<?xml version="1.0" encoding="utf-8" standalone="no"?>
<!DOCTYPE svg PUBLIC "-//W3C//DTD SVG 1.1//EN"
  "http://www.w3.org/Graphics/SVG/1.1/DTD/svg11.dtd">
<!-- Created with matplotlib (https://matplotlib.org/) -->
<svg height="155.594543pt" version="1.1" viewBox="0 0 477.986112 155.594543" width="477.986112pt" xmlns="http://www.w3.org/2000/svg" xmlns:xlink="http://www.w3.org/1999/xlink">
 <defs>
  <style type="text/css">
*{stroke-linecap:butt;stroke-linejoin:round;}
  </style>
 </defs>
 <g id="figure_1">
  <g id="patch_1">
   <path d="M 0 155.594543 
L 477.986112 155.594543 
L 477.986112 0 
L 0 0 
z
" style="fill:#ffffff;"/>
  </g>
  <g id="axes_1">
   <g id="patch_2">
    <path d="M 36.990802 111.915725 
L 228.895369 111.915725 
L 228.895369 10.7 
L 36.990802 10.7 
z
" style="fill:#ffffff;"/>
   </g>
   <g id="matplotlib.axis_1">
    <g id="xtick_1">
     <g id="line2d_1">
      <defs>
       <path d="M 0 0 
L 0 3.5 
" id="m6f33a72db0" style="stroke:#808080;stroke-width:0.8;"/>
      </defs>
      <g>
       <use style="fill:#808080;stroke:#808080;stroke-width:0.8;" x="45.210691" xlink:href="#m6f33a72db0" y="111.915725"/>
      </g>
     </g>
     <g id="text_1">
      <!-- $0$ -->
      <defs>
       <path d="M 42 31.640625 
C 42 37.75 41.90625 48.125 37.703125 56.109375 
C 34 63.109375 28.09375 65.59375 22.90625 65.59375 
C 18.09375 65.59375 12 63.40625 8.203125 56.203125 
C 4.203125 48.71875 3.796875 39.4375 3.796875 31.640625 
C 3.796875 25.953125 3.90625 17.28125 7 9.671875 
C 11.296875 -0.609375 19 -2 22.90625 -2 
C 27.5 -2 34.5 -0.109375 38.59375 9.375 
C 41.59375 16.28125 42 24.359375 42 31.640625 
z
M 22.90625 -0.40625 
C 16.5 -0.40625 12.703125 5.078125 11.296875 12.6875 
C 10.203125 18.5625 10.203125 27.15625 10.203125 32.75 
C 10.203125 40.4375 10.203125 46.828125 11.5 52.921875 
C 13.40625 61.390625 19 64 22.90625 64 
C 27 64 32.296875 61.296875 34.203125 53.125 
C 35.5 47.4375 35.59375 40.734375 35.59375 32.75 
C 35.59375 26.25 35.59375 18.265625 34.40625 12.375 
C 32.296875 1.484375 26.40625 -0.40625 22.90625 -0.40625 
z
" id="CMR17-48"/>
      </defs>
      <g transform="translate(43.0936 124.450527)scale(0.08 -0.08)">
       <use transform="scale(0.996264)" xlink:href="#CMR17-48"/>
      </g>
     </g>
    </g>
    <g id="xtick_2">
     <g id="line2d_2">
      <g>
       <use style="fill:#808080;stroke:#808080;stroke-width:0.8;" x="91.13186" xlink:href="#m6f33a72db0" y="111.915725"/>
      </g>
     </g>
     <g id="text_2">
      <!-- $50k$ -->
      <defs>
       <path d="M 11.40625 57.6875 
C 12.40625 57.28125 16.5 56 20.703125 56 
C 30 56 35.09375 61.109375 38 64.0625 
C 38 64.953125 38 65.5 37.40625 65.5 
C 37.296875 65.5 37.09375 65.5 36.296875 65.046875 
C 32.796875 63.40625 28.703125 62.078125 23.703125 62.078125 
C 20.703125 62.078125 16.203125 62.484375 11.296875 64.671875 
C 10.203125 65.171875 10 65.171875 9.90625 65.171875 
C 9.40625 65.171875 9.296875 65.0625 9.296875 63.078125 
L 9.296875 34.421875 
C 9.296875 32.640625 9.296875 32.140625 10.296875 32.140625 
C 10.796875 32.140625 11 32.34375 11.5 33.03125 
C 14.703125 37.515625 19.09375 39.40625 24.09375 39.40625 
C 27.59375 39.40625 35.09375 37.21875 35.09375 20.140625 
C 35.09375 16.953125 35.09375 11.171875 32.09375 6.578125 
C 29.59375 2.484375 25.703125 0.390625 21.40625 0.390625 
C 14.796875 0.390625 8.09375 5 6.296875 12.71875 
C 6.703125 12.609375 7.5 12.421875 7.90625 12.421875 
C 9.203125 12.421875 11.703125 13.125 11.703125 16.21875 
C 11.703125 18.90625 9.796875 20 7.90625 20 
C 5.59375 20 4.09375 18.59375 4.09375 15.796875 
C 4.09375 7.09375 11 -2 21.59375 -2 
C 31.90625 -2 41.703125 6.875 41.703125 19.75 
C 41.703125 31.71875 33.90625 41 24.203125 41 
C 19.09375 41 14.796875 39.109375 11.40625 35.53125 
z
" id="CMR17-53"/>
       <path d="M 28.09375 66.515625 
C 28.203125 66.921875 28.40625 67.515625 28.40625 68 
C 28.40625 69 27.40625 69 27.203125 69 
C 27.09375 69 23.5 68.640625 21.703125 68.390625 
C 20 68.390625 18.5 68.09375 16.703125 68.09375 
C 14.296875 67.890625 13.59375 67.796875 13.59375 66 
C 13.59375 65 14.59375 65 15.59375 65 
C 20.703125 65 20.703125 64.109375 20.703125 63.125 
C 20.703125 62.734375 20.703125 62.53125 20.203125 60.75 
L 5.90625 3.875 
C 5.5 2.375 5.5 2.1875 5.5 1.578125 
C 5.5 -0.59375 7.203125 -1 8.203125 -1 
C 11 -1 11.59375 1.203125 12.40625 4.296875 
L 17.09375 22.953125 
C 24.296875 22.15625 28.59375 19.15625 28.59375 14.375 
C 28.59375 13.765625 28.59375 13.375 28.296875 11.875 
C 27.90625 10.375 27.90625 9.1875 27.90625 8.6875 
C 27.90625 2.890625 31.703125 -1 36.796875 -1 
C 41.40625 -1 43.796875 3.1875 44.59375 4.59375 
C 46.703125 8.28125 48 13.875 48 14.265625 
C 48 14.765625 47.59375 15.171875 47 15.171875 
C 46.09375 15.171875 46 14.765625 45.59375 13.171875 
C 44.203125 7.984375 42.09375 1 37 1 
C 35 1 33.703125 2 33.703125 5.78125 
C 33.703125 7.6875 34.09375 9.875 34.5 11.375 
C 34.90625 13.171875 34.90625 13.265625 34.90625 14.46875 
C 34.90625 20.359375 29.59375 23.65625 20.40625 24.84375 
C 24 27.046875 27.59375 30.9375 29 32.4375 
C 34.703125 38.8125 38.59375 42.015625 43.203125 42.015625 
C 45.5 42.015625 46.09375 41.40625 46.796875 40.8125 
C 43.09375 40.40625 41.703125 37.8125 41.703125 35.828125 
C 41.703125 33.421875 43.59375 32.625 45 32.625 
C 47.703125 32.625 50.09375 34.921875 50.09375 38.125 
C 50.09375 41.015625 47.796875 44 43.296875 44 
C 37.796875 44 33.296875 40.109375 26.203125 32.125 
C 25.203125 30.9375 21.5 27.140625 17.796875 25.75 
z
" id="CMMI12-107"/>
      </defs>
      <g transform="translate(84.692956 124.450527)scale(0.08 -0.08)">
       <use transform="scale(0.996264)" xlink:href="#CMR17-53"/>
       <use transform="translate(45.690477 0)scale(0.996264)" xlink:href="#CMR17-48"/>
       <use transform="translate(91.380954 0)scale(0.996264)" xlink:href="#CMMI12-107"/>
      </g>
     </g>
    </g>
    <g id="xtick_3">
     <g id="line2d_3">
      <g>
       <use style="fill:#808080;stroke:#808080;stroke-width:0.8;" x="137.05303" xlink:href="#m6f33a72db0" y="111.915725"/>
      </g>
     </g>
     <g id="text_3">
      <!-- $100k$ -->
      <defs>
       <path d="M 26.59375 63.40625 
C 26.59375 65.5 26.5 65.5 25.09375 65.5 
C 21.203125 61.1875 15.296875 59.796875 9.703125 59.796875 
C 9.40625 59.796875 8.90625 59.796875 8.796875 59.5 
C 8.703125 59.296875 8.703125 59.09375 8.703125 57 
C 11.796875 57 17 57.59375 21 59.984375 
L 21 7.203125 
C 21 3.6875 20.796875 2.5 12.203125 2.5 
L 9.203125 2.5 
L 9.203125 0 
C 14 0 19 0 23.796875 0 
C 28.59375 0 33.59375 0 38.40625 0 
L 38.40625 2.5 
L 35.40625 2.5 
C 26.796875 2.5 26.59375 3.59375 26.59375 7.15625 
z
" id="CMR17-49"/>
      </defs>
      <g transform="translate(128.497034 124.450527)scale(0.08 -0.08)">
       <use transform="scale(0.996264)" xlink:href="#CMR17-49"/>
       <use transform="translate(45.690477 0)scale(0.996264)" xlink:href="#CMR17-48"/>
       <use transform="translate(91.380954 0)scale(0.996264)" xlink:href="#CMR17-48"/>
       <use transform="translate(137.071431 0)scale(0.996264)" xlink:href="#CMMI12-107"/>
      </g>
     </g>
    </g>
    <g id="xtick_4">
     <g id="line2d_4">
      <g>
       <use style="fill:#808080;stroke:#808080;stroke-width:0.8;" x="182.9742" xlink:href="#m6f33a72db0" y="111.915725"/>
      </g>
     </g>
     <g id="text_4">
      <!-- $150k$ -->
      <g transform="translate(174.418203 124.450527)scale(0.08 -0.08)">
       <use transform="scale(0.996264)" xlink:href="#CMR17-49"/>
       <use transform="translate(45.690477 0)scale(0.996264)" xlink:href="#CMR17-53"/>
       <use transform="translate(91.380954 0)scale(0.996264)" xlink:href="#CMR17-48"/>
       <use transform="translate(137.071431 0)scale(0.996264)" xlink:href="#CMMI12-107"/>
      </g>
     </g>
    </g>
    <g id="xtick_5">
     <g id="line2d_5">
      <g>
       <use style="fill:#808080;stroke:#808080;stroke-width:0.8;" x="228.895369" xlink:href="#m6f33a72db0" y="111.915725"/>
      </g>
     </g>
     <g id="text_5">
      <!-- $200k$ -->
      <defs>
       <path d="M 41.703125 15.453125 
L 39.90625 15.453125 
C 38.90625 8.375 38.09375 7.171875 37.703125 6.5625 
C 37.203125 5.765625 30 5.765625 28.59375 5.765625 
L 9.40625 5.765625 
C 13 9.671875 20 16.75 28.5 24.953125 
C 34.59375 30.734375 41.703125 37.53125 41.703125 47.421875 
C 41.703125 59.21875 32.296875 66 21.796875 66 
C 10.796875 66 4.09375 56.3125 4.09375 47.34375 
C 4.09375 43.4375 7 42.9375 8.203125 42.9375 
C 9.203125 42.9375 12.203125 43.546875 12.203125 47.03125 
C 12.203125 50.109375 9.59375 51 8.203125 51 
C 7.59375 51 7 50.90625 6.59375 50.703125 
C 8.5 59.21875 14.296875 63.40625 20.40625 63.40625 
C 29.09375 63.40625 34.796875 56.515625 34.796875 47.421875 
C 34.796875 38.734375 29.703125 31.25 24 24.75 
L 4.09375 2.28125 
L 4.09375 0 
L 39.296875 0 
z
" id="CMR17-50"/>
      </defs>
      <g transform="translate(220.339373 124.450527)scale(0.08 -0.08)">
       <use transform="scale(0.996264)" xlink:href="#CMR17-50"/>
       <use transform="translate(45.690477 0)scale(0.996264)" xlink:href="#CMR17-48"/>
       <use transform="translate(91.380954 0)scale(0.996264)" xlink:href="#CMR17-48"/>
       <use transform="translate(137.071431 0)scale(0.996264)" xlink:href="#CMMI12-107"/>
      </g>
     </g>
    </g>
    <g id="text_6">
     <!-- Number of training data points -->
     <defs>
      <path d="M 22.90625 65.3125 
L 21.09375 69 
L 8.796875 69 
L 8.796875 0 
L 16.59375 0 
L 16.59375 61.34375 
L 16.703125 61.4375 
C 17.40625 59.640625 17.796875 58.75 21.90625 49.90625 
L 43.296875 3.6875 
L 45.09375 0 
L 57.40625 0 
L 57.40625 69 
L 49.59375 69 
L 49.59375 7.65625 
L 49.5 7.546875 
C 48.796875 9.34375 48.40625 10.234375 44.296875 19.078125 
z
" id="CMSS17-78"/>
      <path d="M 40.90625 42.796875 
L 33.296875 42.796875 
L 33.296875 15.1875 
C 33.296875 7.78125 27.90625 4.78125 22.203125 4.78125 
C 15.59375 4.78125 15 6.984375 15 11.078125 
L 15 42.796875 
L 7.40625 42.796875 
L 7.40625 10.59375 
C 7.40625 2.796875 10.09375 -1 17 -1 
C 20.40625 -1 28.09375 -0.203125 33.5 4.78125 
L 33.5 0 
L 40.90625 0 
z
" id="CMSS17-117"/>
      <path d="M 67 29.328125 
C 67 36.0625 65.296875 44 54.09375 44 
C 46.59375 44 42.09375 39.3125 40.09375 36.421875 
C 38.296875 41.71875 34.09375 44 28.09375 44 
C 21.296875 44 17 40.125 14.703125 37.328125 
L 14.703125 43.09375 
L 7.40625 43.09375 
L 7.40625 0 
L 15 0 
L 15 24.359375 
C 15 30.296875 17.203125 37.9375 24.296875 37.9375 
C 33.40625 37.9375 33.40625 31.5 33.40625 28.578125 
L 33.40625 0 
L 41 0 
L 41 24.359375 
C 41 30.296875 43.203125 37.9375 50.296875 37.9375 
C 59.40625 37.9375 59.40625 31.5 59.40625 28.578125 
L 59.40625 0 
L 67 0 
z
" id="CMSS17-109"/>
      <path d="M 14.90625 69 
L 7.5 69 
L 7.5 -0.203125 
L 15.09375 -0.203125 
L 15.09375 4.28125 
C 18.90625 0.59375 23.5 -1 27.59375 -1 
C 37.203125 -1 45 8.578125 45 21.125 
C 45 32.59375 39 43.0625 30.09375 43.0625 
C 23.796875 43.0625 18.203125 40.484375 14.90625 37.796875 
z
M 15.09375 31.96875 
C 17.296875 34.71875 20.40625 37 24.796875 37 
C 30.703125 37 37.40625 32.765625 37.40625 21.125 
C 37.40625 8.71875 29.40625 5.078125 23.90625 5.078125 
C 21.90625 5.078125 19.796875 5.5625 17.796875 7.25 
C 15.09375 9.609375 15.09375 11.078125 15.09375 12.453125 
z
" id="CMSS17-98"/>
      <path d="M 39.09375 21.515625 
C 39.09375 24.84375 38.90625 31.296875 35.703125 36.640625 
C 32.203125 42.390625 26.5 44 22.203125 44 
C 11.796875 44 3 34.1875 3 21.484375 
C 3 9.09375 12.09375 -1 23.59375 -1 
C 28.09375 -1 33.59375 0.296875 38.59375 3.875 
C 38.59375 4.28125 38.40625 6.46875 38.296875 6.5625 
C 38.296875 6.765625 38 9.84375 38 10.25 
C 33.203125 6.359375 27.703125 5.078125 23.703125 5.078125 
C 17.296875 5.078125 10.40625 10.421875 10.09375 21.515625 
z
M 10.90625 27 
C 12.203125 32.5625 16.59375 37.828125 22.203125 37.828125 
C 23.703125 37.828125 30.703125 37.828125 32.5 27 
z
" id="CMSS17-101"/>
      <path d="M 14.90625 21.296875 
C 14.90625 30.703125 21.796875 37 30.59375 37 
L 30.59375 43.578125 
C 24.203125 43.578125 18.203125 40.390625 14.59375 35.203125 
L 14.59375 43.09375 
L 7.5 43.09375 
L 7.5 0 
L 14.90625 0 
z
" id="CMSS17-114"/>
      <path d="M 44.203125 21.1875 
C 44.203125 34 34.703125 44 23.5 44 
C 12 44 2.703125 33.703125 2.703125 21.1875 
C 2.703125 8.5 12.296875 -1 23.40625 -1 
C 34.796875 -1 44.203125 8.796875 44.203125 21.1875 
z
M 23.5 5.265625 
C 16.40625 5.265625 10.296875 11.078125 10.296875 22 
C 10.296875 33.609375 17.40625 37.921875 23.40625 37.921875 
C 29.90625 37.921875 36.59375 33.21875 36.59375 22 
C 36.59375 10.671875 30.09375 5.265625 23.5 5.265625 
z
" id="CMSS17-111"/>
      <path d="M 16.796875 37 
L 26.90625 37 
L 26.90625 42.765625 
L 16.59375 42.765625 
L 16.59375 55.609375 
C 16.59375 62.71875 22 63.9375 25.09375 63.9375 
C 26.09375 63.9375 28.90625 63.9375 32.5 62.640625 
L 32.5 69.203125 
C 30.203125 69.703125 27.40625 70 25.203125 70 
C 15.90625 70 9.40625 62.390625 9.40625 52.484375 
L 9.40625 42.765625 
L 2.5 42.765625 
L 2.5 37 
L 9.40625 37 
L 9.40625 0 
L 16.796875 0 
z
" id="CMSS17-102"/>
      <path d="M 16.703125 37 
L 29.703125 37 
L 29.703125 42.765625 
L 16.703125 42.765625 
L 16.703125 55 
L 9.59375 55 
L 9.59375 42.765625 
L 1.703125 42.765625 
L 1.703125 37 
L 9.40625 37 
L 9.40625 11.703125 
C 9.40625 6 10.703125 -1 17.296875 -1 
C 22.296875 -1 26.90625 0.390625 31.296875 2.6875 
L 29.703125 8.5625 
C 27.296875 6.46875 24.40625 5.265625 21.296875 5.265625 
C 16.90625 5.265625 16.703125 10.875 16.703125 13.375 
z
" id="CMSS17-116"/>
      <path d="M 37.59375 27.984375 
C 37.59375 37.375 30.90625 43.875 21.90625 43.875 
C 17.5 43.875 12.703125 43.078125 7.203125 39.890625 
L 7.796875 33.359375 
C 10.296875 35.125 14.59375 38 21.796875 38 
C 26.90625 38 30 34.0625 30 27.84375 
L 30 24 
C 14 24 4 19.34375 4 11.34375 
C 4 7.203125 6.5 -1 14.796875 -1 
C 16.296875 -1 24.40625 -1 30.203125 3.390625 
L 30.203125 -0.296875 
L 37.59375 -0.296875 
z
M 30 12.75 
C 30 10.953125 30 8.5625 27 6.78125 
C 24.40625 5.078125 21.09375 5.078125 19.703125 5.078125 
C 14.703125 5.078125 11.296875 7.984375 11.296875 11.625 
C 11.296875 18.921875 26.90625 18.921875 30 18.921875 
z
" id="CMSS17-97"/>
      <path d="M 15.296875 65.359375 
L 6.90625 65.359375 
L 6.90625 57 
L 15.296875 57 
z
M 14.796875 42.796875 
L 7.40625 42.796875 
L 7.40625 0 
L 14.796875 0 
z
" id="CMSS17-105"/>
      <path d="M 40.90625 29.328125 
C 40.90625 35.671875 39.40625 44 28.09375 44 
C 21.703125 44 17.5 40.71875 14.703125 37.328125 
L 14.703125 43.09375 
L 7.40625 43.09375 
L 7.40625 0 
L 15 0 
L 15 24.359375 
C 15 30.6875 17.40625 37.9375 24.203125 37.9375 
C 33 37.9375 33.296875 32 33.296875 28.578125 
L 33.296875 0 
L 40.90625 0 
z
" id="CMSS17-110"/>
      <path d="M 44.5 43.875 
C 38.796875 43.875 33.90625 42.78125 29.90625 40.890625 
C 26.59375 43.390625 23.203125 43.875 20.90625 43.875 
C 12.203125 43.875 5.59375 36.703125 5.59375 28.34375 
C 5.59375 22.9375 8.59375 18.859375 8.796875 18.671875 
C 7 16.171875 6 13.484375 6 10.5 
C 6 7 7.40625 4.515625 8.5 3.125 
C 3.296875 -0.046875 2.59375 -4.90625 2.59375 -6.796875 
C 2.59375 -14.03125 11.703125 -20 23.40625 -20 
C 35.203125 -20 44.296875 -14.03125 44.296875 -6.6875 
C 44.296875 7 29 7 24.796875 7 
L 16.703125 7 
C 15.203125 7 11.203125 7 11.203125 12.359375 
C 11.203125 14.390625 12.09375 15.6875 12.203125 15.78125 
C 13.703125 14.6875 16.796875 13 20.90625 13 
C 29.203125 13 36.09375 19.96875 36.09375 28.546875 
C 36.09375 33.3125 33.90625 36.796875 33 38 
L 33.296875 38 
C 33.59375 38 37.796875 38 39.296875 38 
C 42.5 38 42.796875 37.953125 45.59375 37.796875 
z
M 20.90625 18.46875 
C 17.5 18.46875 12.703125 20.546875 12.703125 28.484375 
C 12.703125 37.109375 18.203125 38.5 20.796875 38.5 
C 24.203125 38.5 29 36.421875 29 28.484375 
C 29 19.859375 23.5 18.46875 20.90625 18.46875 
z
M 24.703125 -0.15625 
C 27.09375 -0.15625 37.203125 -0.15625 37.203125 -6.90625 
C 37.203125 -11.15625 31 -14.515625 23.5 -14.515625 
C 15.90625 -14.515625 9.703125 -11.25 9.703125 -6.796875 
C 9.703125 -6.296875 9.703125 -0.15625 16.59375 -0.15625 
z
" id="CMSS17-103"/>
      <path d="M 40.796875 69 
L 33.40625 69 
L 33.40625 38.09375 
C 30.296875 40.671875 25.203125 43.0625 19.59375 43.0625 
C 10.5 43.0625 3.296875 33.296875 3.296875 21.046875 
C 3.296875 8.78125 10.40625 -1 19.296875 -1 
C 26.203125 -1 30.796875 2.6875 33.203125 4.78125 
L 33.203125 -0.203125 
L 40.796875 -0.203125 
z
M 33.203125 13.0625 
C 33.203125 11.671875 33.203125 10.203125 30.09375 7.53125 
C 28.09375 5.859375 25.703125 5.078125 23.40625 5.078125 
C 18 5.078125 10.90625 9 10.90625 20.9375 
C 10.90625 33.34375 18.90625 37 24.40625 37 
C 28.09375 37 31.09375 35.21875 33.203125 32.265625 
z
" id="CMSS17-100"/>
      <path d="M 15.09375 5.203125 
C 18.40625 2.015625 22.90625 -0.078125 27.703125 -0.078125 
C 37 -0.078125 45 9.421875 45 22.0625 
C 45 33.734375 39 44 30.40625 44 
C 25.40625 44 19.40625 42.21875 14.90625 38.625 
L 14.90625 43.203125 
L 7.5 43.203125 
L 7.5 -19 
L 15.09375 -19 
z
M 15.09375 32.8125 
C 15.90625 34 19.296875 37.734375 24.796875 37.734375 
C 31.796875 37.734375 37.40625 30.625 37.40625 22.0625 
C 37.40625 12.296875 30.59375 6 23.90625 6 
C 21.90625 6 19.796875 6.484375 17.796875 8.171875 
C 15.09375 10.53125 15.09375 12 15.09375 13.390625 
z
" id="CMSS17-112"/>
      <path d="M 32.203125 41.046875 
C 26.296875 43.859375 21.703125 43.859375 18.703125 43.859375 
C 11.59375 43.859375 3.09375 41.375 3.09375 31.296875 
C 3.09375 21.234375 14.09375 19.03125 17.09375 18.421875 
C 21.703125 17.53125 26.796875 16.53125 26.796875 11.5625 
C 26.796875 5.265625 19.59375 5.265625 18.296875 5.265625 
C 14.296875 5.265625 8.796875 6.359375 3.796875 9.96875 
L 2.59375 3.28125 
C 8.296875 0 13.796875 -1 18.40625 -1 
C 30.703125 -1 33.796875 6.5 33.796875 12.203125 
C 33.796875 17.09375 31 20.390625 29.09375 21.890625 
C 25.796875 24.5 24.59375 24.796875 16.40625 26.5 
C 15 26.703125 10.09375 27.796875 10.09375 32.28125 
C 10.09375 38 16.40625 38 17.796875 38 
C 24.296875 38 28.296875 35.984375 31 34.5 
z
" id="CMSS17-115"/>
     </defs>
     <g transform="translate(77.64553 135.535074)scale(0.08 -0.08)">
      <use transform="scale(0.996264)" xlink:href="#CMSS17-78"/>
      <use transform="translate(66.061519 0)scale(0.996264)" xlink:href="#CMSS17-117"/>
      <use transform="translate(114.266462 0)scale(0.996264)" xlink:href="#CMSS17-109"/>
      <use transform="translate(188.495717 0)scale(0.996264)" xlink:href="#CMSS17-98"/>
      <use transform="translate(239.303099 0)scale(0.996264)" xlink:href="#CMSS17-101"/>
      <use transform="translate(280.941921 0)scale(0.996264)" xlink:href="#CMSS17-114"/>
      <use transform="translate(344.080806 0)scale(0.996264)" xlink:href="#CMSS17-111"/>
      <use transform="translate(390.92443 0)scale(0.996264)" xlink:href="#CMSS17-102"/>
      <use transform="translate(450.780201 0)scale(0.996264)" xlink:href="#CMSS17-116"/>
      <use transform="translate(484.611768 0)scale(0.996264)" xlink:href="#CMSS17-114"/>
      <use transform="translate(516.52154 0)scale(0.996264)" xlink:href="#CMSS17-97"/>
      <use transform="translate(561.443461 0)scale(0.996264)" xlink:href="#CMSS17-105"/>
      <use transform="translate(583.624184 0)scale(0.996264)" xlink:href="#CMSS17-110"/>
      <use transform="translate(631.829127 0)scale(0.996264)" xlink:href="#CMSS17-105"/>
      <use transform="translate(654.00985 0)scale(0.996264)" xlink:href="#CMSS17-110"/>
      <use transform="translate(702.214793 0)scale(0.996264)" xlink:href="#CMSS17-103"/>
      <use transform="translate(780.28753 0)scale(0.996264)" xlink:href="#CMSS17-100"/>
      <use transform="translate(828.492473 0)scale(0.996264)" xlink:href="#CMSS17-97"/>
      <use transform="translate(873.414393 0)scale(0.996264)" xlink:href="#CMSS17-116"/>
      <use transform="translate(907.24596 0)scale(0.996264)" xlink:href="#CMSS17-97"/>
      <use transform="translate(983.396993 0)scale(0.996264)" xlink:href="#CMSS17-112"/>
      <use transform="translate(1034.204375 0)scale(0.996264)" xlink:href="#CMSS17-111"/>
      <use transform="translate(1081.047999 0)scale(0.996264)" xlink:href="#CMSS17-105"/>
      <use transform="translate(1103.228722 0)scale(0.996264)" xlink:href="#CMSS17-110"/>
      <use transform="translate(1151.433665 0)scale(0.996264)" xlink:href="#CMSS17-116"/>
      <use transform="translate(1185.265232 0)scale(0.996264)" xlink:href="#CMSS17-115"/>
     </g>
    </g>
   </g>
   <g id="matplotlib.axis_2">
    <g id="ytick_1">
     <g id="line2d_6">
      <defs>
       <path d="M 0 0 
L -3.5 0 
" id="m31ed833c9f" style="stroke:#808080;stroke-width:0.8;"/>
      </defs>
      <g>
       <use style="fill:#808080;stroke:#808080;stroke-width:0.8;" x="36.990802" xlink:href="#m31ed833c9f" y="111.915725"/>
      </g>
     </g>
     <g id="text_7">
      <!-- $0.2$ -->
      <defs>
       <path d="M 18.40625 4.796875 
C 18.40625 7.6875 16 9.671875 13.59375 9.671875 
C 10.703125 9.671875 8.703125 7.28125 8.703125 4.890625 
C 8.703125 2 11.09375 0 13.5 0 
C 16.40625 0 18.40625 2.390625 18.40625 4.796875 
z
" id="CMMI12-58"/>
      </defs>
      <g transform="translate(19.170112 114.683126)scale(0.08 -0.08)">
       <use transform="scale(0.996264)" xlink:href="#CMR17-48"/>
       <use transform="translate(45.690477 0)scale(0.996264)" xlink:href="#CMMI12-58"/>
       <use transform="translate(72.787654 0)scale(0.996264)" xlink:href="#CMR17-50"/>
      </g>
     </g>
    </g>
    <g id="ytick_2">
     <g id="line2d_7">
      <g>
       <use style="fill:#808080;stroke:#808080;stroke-width:0.8;" x="36.990802" xlink:href="#m31ed833c9f" y="99.263759"/>
      </g>
     </g>
     <g id="text_8">
      <!-- $0.3$ -->
      <defs>
       <path d="M 22.09375 33.703125 
C 31 33.703125 34.90625 25.96875 34.90625 17.03125 
C 34.90625 5 28.5 0.390625 22.703125 0.390625 
C 17.40625 0.390625 8.796875 3.03125 6.09375 10.828125 
C 6.59375 10.625 7.09375 10.625 7.59375 10.625 
C 10 10.625 11.796875 12.21875 11.796875 14.8125 
C 11.796875 17.703125 9.59375 19 7.59375 19 
C 5.90625 19 3.296875 18.203125 3.296875 14.46875 
C 3.296875 5.234375 12.296875 -2 22.90625 -2 
C 34 -2 42.5 6.71875 42.5 16.953125 
C 42.5 26.671875 34.5 33.703125 25 34.796875 
C 32.59375 36.375 39.90625 43.0625 39.90625 52.015625 
C 39.90625 59.6875 32 65.296875 23 65.296875 
C 13.90625 65.296875 5.90625 59.828125 5.90625 52.015625 
C 5.90625 48.59375 8.5 48 9.796875 48 
C 11.90625 48 13.703125 49.296875 13.703125 51.890625 
C 13.703125 54.46875 11.90625 55.765625 9.796875 55.765625 
C 9.40625 55.765625 8.90625 55.765625 8.5 55.578125 
C 11.40625 61.859375 19.296875 63 22.796875 63 
C 26.296875 63 32.90625 61.328125 32.90625 51.875 
C 32.90625 49.109375 32.5 44.1875 29.09375 39.84375 
C 26.09375 36 22.703125 36 19.40625 35.6875 
C 18.90625 35.6875 16.59375 35.453125 16.203125 35.453125 
C 15.5 35.359375 15.09375 35.265625 15.09375 34.5 
C 15.09375 33.796875 15.203125 33.703125 17.203125 33.703125 
z
" id="CMR17-51"/>
      </defs>
      <g transform="translate(19.170112 102.03116)scale(0.08 -0.08)">
       <use transform="scale(0.996264)" xlink:href="#CMR17-48"/>
       <use transform="translate(45.690477 0)scale(0.996264)" xlink:href="#CMMI12-58"/>
       <use transform="translate(72.787654 0)scale(0.996264)" xlink:href="#CMR17-51"/>
      </g>
     </g>
    </g>
    <g id="ytick_3">
     <g id="line2d_8">
      <g>
       <use style="fill:#808080;stroke:#808080;stroke-width:0.8;" x="36.990802" xlink:href="#m31ed833c9f" y="86.611794"/>
      </g>
     </g>
     <g id="text_9">
      <!-- $0.4$ -->
      <defs>
       <path d="M 33.59375 64.40625 
C 33.59375 66.5 33.5 66.5 31.703125 66.5 
L 2 19.59375 
L 2 17 
L 27.796875 17 
L 27.796875 7.140625 
C 27.796875 3.5 27.59375 2.5 20.59375 2.5 
L 18.703125 2.5 
L 18.703125 0 
C 21.90625 0 27.296875 0 30.703125 0 
C 34.09375 0 39.5 0 42.703125 0 
L 42.703125 2.5 
L 40.796875 2.5 
C 33.796875 2.5 33.59375 3.5 33.59375 7.140625 
L 33.59375 17 
L 43.796875 17 
L 43.796875 19.59375 
L 33.59375 19.59375 
z
M 28.09375 57.859375 
L 28.09375 19.59375 
L 4 19.59375 
z
" id="CMR17-52"/>
      </defs>
      <g transform="translate(19.170112 89.379195)scale(0.08 -0.08)">
       <use transform="scale(0.996264)" xlink:href="#CMR17-48"/>
       <use transform="translate(45.690477 0)scale(0.996264)" xlink:href="#CMMI12-58"/>
       <use transform="translate(72.787654 0)scale(0.996264)" xlink:href="#CMR17-52"/>
      </g>
     </g>
    </g>
    <g id="ytick_4">
     <g id="line2d_9">
      <g>
       <use style="fill:#808080;stroke:#808080;stroke-width:0.8;" x="36.990802" xlink:href="#m31ed833c9f" y="73.959828"/>
      </g>
     </g>
     <g id="text_10">
      <!-- $0.5$ -->
      <g transform="translate(19.170112 76.727229)scale(0.08 -0.08)">
       <use transform="scale(0.996264)" xlink:href="#CMR17-48"/>
       <use transform="translate(45.690477 0)scale(0.996264)" xlink:href="#CMMI12-58"/>
       <use transform="translate(72.787654 0)scale(0.996264)" xlink:href="#CMR17-53"/>
      </g>
     </g>
    </g>
    <g id="ytick_5">
     <g id="line2d_10">
      <g>
       <use style="fill:#808080;stroke:#808080;stroke-width:0.8;" x="36.990802" xlink:href="#m31ed833c9f" y="61.307863"/>
      </g>
     </g>
     <g id="text_11">
      <!-- $0.6$ -->
      <defs>
       <path d="M 10.59375 34 
C 10.59375 57.65625 21.796875 63 28.296875 63 
C 30.40625 63 35.5 62.640625 37.5 59 
C 35.90625 59 32.90625 59 32.90625 55.515625 
C 32.90625 52.828125 35.09375 51.921875 36.5 51.921875 
C 37.40625 51.921875 40.09375 52.3125 40.09375 55.625 
C 40.09375 61.78125 35.09375 65.296875 28.203125 65.296875 
C 16.296875 65.296875 3.796875 52.96875 3.796875 31 
C 3.796875 3.953125 15.09375 -2 23.09375 -2 
C 32.796875 -2 42 6.671875 42 20.046875 
C 42 32.515625 33.90625 41.59375 23.703125 41.59375 
C 17.59375 41.59375 13.09375 37.609375 10.59375 30.625 
z
M 23.09375 0.390625 
C 10.796875 0.390625 10.796875 18.75 10.796875 22.4375 
C 10.796875 29.625 14.203125 40 23.5 40 
C 25.203125 40 30.09375 40 33.40625 33.125 
C 35.203125 29.21875 35.203125 25.140625 35.203125 20.140625 
C 35.203125 14.75 35.203125 10.78125 33.09375 6.78125 
C 30.90625 2.671875 27.703125 0.390625 23.09375 0.390625 
z
" id="CMR17-54"/>
      </defs>
      <g transform="translate(19.170112 64.075263)scale(0.08 -0.08)">
       <use transform="scale(0.996264)" xlink:href="#CMR17-48"/>
       <use transform="translate(45.690477 0)scale(0.996264)" xlink:href="#CMMI12-58"/>
       <use transform="translate(72.787654 0)scale(0.996264)" xlink:href="#CMR17-54"/>
      </g>
     </g>
    </g>
    <g id="ytick_6">
     <g id="line2d_11">
      <g>
       <use style="fill:#808080;stroke:#808080;stroke-width:0.8;" x="36.990802" xlink:href="#m31ed833c9f" y="48.655897"/>
      </g>
     </g>
     <g id="text_12">
      <!-- $0.7$ -->
      <defs>
       <path d="M 45.09375 61.578125 
L 45.09375 63.765625 
L 21.59375 63.765625 
C 9.90625 63.765625 9.703125 65.078125 9.296875 67 
L 7.5 67 
L 4.59375 48.34375 
L 6.40625 48.34375 
C 6.703125 50.234375 7.40625 55.3125 8.59375 57.203125 
C 9.203125 58 16.59375 58 18.296875 58 
L 40.296875 58 
L 29.203125 41.578125 
C 21.796875 30.53125 16.703125 15.609375 16.703125 2.578125 
C 16.703125 1.390625 16.703125 -2 20.296875 -2 
C 23.90625 -2 23.90625 1.390625 23.90625 2.671875 
L 23.90625 7.265625 
C 23.90625 23.5625 26.703125 34.3125 31.296875 41.1875 
z
" id="CMR17-55"/>
      </defs>
      <g transform="translate(19.170112 51.423298)scale(0.08 -0.08)">
       <use transform="scale(0.996264)" xlink:href="#CMR17-48"/>
       <use transform="translate(45.690477 0)scale(0.996264)" xlink:href="#CMMI12-58"/>
       <use transform="translate(72.787654 0)scale(0.996264)" xlink:href="#CMR17-55"/>
      </g>
     </g>
    </g>
    <g id="ytick_7">
     <g id="line2d_12">
      <g>
       <use style="fill:#808080;stroke:#808080;stroke-width:0.8;" x="36.990802" xlink:href="#m31ed833c9f" y="36.003931"/>
      </g>
     </g>
     <g id="text_13">
      <!-- $0.8$ -->
      <defs>
       <path d="M 27.203125 35.375 
C 33.5 38.546875 39.90625 43.328125 39.90625 50.984375 
C 39.90625 60.015625 31.09375 65.296875 23 65.296875 
C 13.90625 65.296875 5.90625 58.734375 5.90625 49.6875 
C 5.90625 47.203125 6.5 42.921875 10.40625 39.140625 
C 11.40625 38.15625 15.59375 35.171875 18.296875 33.28125 
C 13.796875 30.984375 3.296875 25.53125 3.296875 14.59375 
C 3.296875 4.359375 13.09375 -2 22.796875 -2 
C 33.5 -2 42.5 5.65625 42.5 15.78125 
C 42.5 24.84375 36.40625 29.015625 32.40625 31.703125 
z
M 14.09375 44.09375 
C 13.296875 44.59375 9.296875 47.671875 9.296875 52.359375 
C 9.296875 58.421875 15.59375 63 22.796875 63 
C 30.703125 63 36.5 57.4375 36.5 50.96875 
C 36.5 41.703125 26.09375 36.421875 25.59375 36.421875 
C 25.5 36.421875 25.40625 36.421875 24.59375 37.03125 
z
M 32.5 23.734375 
C 34 22.640625 38.796875 19.375 38.796875 13.296875 
C 38.796875 5.953125 31.40625 0.390625 23 0.390625 
C 13.90625 0.390625 7 6.84375 7 14.6875 
C 7 22.546875 13.09375 29.09375 20 32.1875 
z
" id="CMR17-56"/>
      </defs>
      <g transform="translate(19.170112 38.771332)scale(0.08 -0.08)">
       <use transform="scale(0.996264)" xlink:href="#CMR17-48"/>
       <use transform="translate(45.690477 0)scale(0.996264)" xlink:href="#CMMI12-58"/>
       <use transform="translate(72.787654 0)scale(0.996264)" xlink:href="#CMR17-56"/>
      </g>
     </g>
    </g>
    <g id="ytick_8">
     <g id="line2d_13">
      <g>
       <use style="fill:#808080;stroke:#808080;stroke-width:0.8;" x="36.990802" xlink:href="#m31ed833c9f" y="23.351966"/>
      </g>
     </g>
     <g id="text_14">
      <!-- $0.9$ -->
      <defs>
       <path d="M 35.203125 29.125 
C 35.203125 7.25 26.09375 0.484375 18.59375 0.484375 
C 16.296875 0.484375 10.703125 0.484375 8.40625 4.59375 
C 11 4.1875 12.90625 5.578125 12.90625 8.09375 
C 12.90625 10.8125 10.703125 11.703125 9.296875 11.703125 
C 8.40625 11.703125 5.703125 11.296875 5.703125 7.90625 
C 5.703125 1.109375 11.59375 -2 18.796875 -2 
C 30.296875 -2 42 10.53125 42 32.390625 
C 42 59.640625 30.796875 65.296875 23.203125 65.296875 
C 13.296875 65.296875 3.796875 56.6875 3.796875 43.40625 
C 3.796875 31.109375 11.90625 22 22.09375 22 
C 30.5 22 34.203125 29.734375 35.203125 33 
z
M 22.296875 23.59375 
C 19.59375 23.59375 15.796875 24.09375 12.703125 30.03125 
C 10.59375 33.890625 10.59375 38.453125 10.59375 43.296875 
C 10.59375 49.15625 10.59375 53.203125 13.40625 57.5625 
C 14.796875 59.640625 17.40625 63 23.203125 63 
C 35 63 35 45.078125 35 41.125 
C 35 34.09375 31.796875 23.59375 22.296875 23.59375 
z
" id="CMR17-57"/>
      </defs>
      <g transform="translate(19.170112 26.119367)scale(0.08 -0.08)">
       <use transform="scale(0.996264)" xlink:href="#CMR17-48"/>
       <use transform="translate(45.690477 0)scale(0.996264)" xlink:href="#CMMI12-58"/>
       <use transform="translate(72.787654 0)scale(0.996264)" xlink:href="#CMR17-57"/>
      </g>
     </g>
    </g>
    <g id="ytick_9">
     <g id="line2d_14">
      <g>
       <use style="fill:#808080;stroke:#808080;stroke-width:0.8;" x="36.990802" xlink:href="#m31ed833c9f" y="10.7"/>
      </g>
     </g>
     <g id="text_15">
      <!-- $1.0$ -->
      <g transform="translate(19.170112 13.467401)scale(0.08 -0.08)">
       <use transform="scale(0.996264)" xlink:href="#CMR17-49"/>
       <use transform="translate(45.690477 0)scale(0.996264)" xlink:href="#CMMI12-58"/>
       <use transform="translate(72.787654 0)scale(0.996264)" xlink:href="#CMR17-48"/>
      </g>
     </g>
    </g>
    <g id="text_16">
     <!-- Computation time (fraction) -->
     <defs>
      <path d="M 54.703125 11.15625 
C 48 6.671875 44.90625 5.375 36.796875 5.375 
C 22.796875 5.375 14.59375 20.359375 14.59375 34.046875 
C 14.59375 48.625 23 63 37.203125 63 
C 43.59375 63 47.796875 61.21875 52.90625 58.046875 
L 54.296875 65.890625 
C 49.5 68.28125 43.40625 69.375 37.296875 69.375 
C 18.09375 69.375 6.203125 51.8125 6.203125 34.046875 
C 6.203125 14.484375 20.296875 -1 36.296875 -1 
C 44.90625 -1 47.90625 -0.296875 55.296875 4.375 
z
" id="CMSS17-67"/>
      <path d="M 25.203125 74.5 
C 19.796875 69.015625 7.40625 56.265625 7.40625 24.8125 
C 7.40625 -6.765625 19.796875 -19.421875 25.203125 -25 
L 31.296875 -25 
C 19 -12.25 15 5.578125 15 24.703125 
C 15 43.71875 18.796875 61.65625 31.296875 74.5 
z
" id="CMSS17-40"/>
      <path d="M 38.5 39.703125 
C 38.5 40.390625 33.90625 42.40625 32.703125 42.796875 
C 29.40625 44 25.203125 44 24.09375 44 
C 11.09375 44 3.296875 32.703125 3.296875 21.296875 
C 3.296875 9.296875 12 -1 23.703125 -1 
C 30.40625 -1 35.203125 1.1875 39.09375 3.78125 
L 38.5 10.375 
C 34.203125 7.078125 29.203125 5.265625 23.796875 5.265625 
C 16 5.265625 10.90625 12.09375 10.90625 21.390625 
C 10.90625 28.609375 14.203125 37.71875 24.203125 37.71875 
C 29.703125 37.71875 32.796875 36.609375 37.40625 33.515625 
z
" id="CMSS17-99"/>
      <path d="M 11.296875 -25 
C 16.703125 -19.515625 29.09375 -6.765625 29.09375 24.703125 
C 29.09375 56.265625 16.703125 68.921875 11.296875 74.5 
L 5.203125 74.5 
C 17.5 61.75 21.5 43.921875 21.5 24.8125 
C 21.5 5.78125 17.703125 -12.15625 5.203125 -25 
z
" id="CMSS17-41"/>
     </defs>
     <g transform="translate(13.177584 111.66832)rotate(-90)scale(0.08 -0.08)">
      <use transform="scale(0.996264)" xlink:href="#CMSS17-67"/>
      <use transform="translate(59.855772 0)scale(0.996264)" xlink:href="#CMSS17-111"/>
      <use transform="translate(106.699395 0)scale(0.996264)" xlink:href="#CMSS17-109"/>
      <use transform="translate(180.92865 0)scale(0.996264)" xlink:href="#CMSS17-112"/>
      <use transform="translate(229.133593 0)scale(0.996264)" xlink:href="#CMSS17-117"/>
      <use transform="translate(277.338536 0)scale(0.996264)" xlink:href="#CMSS17-116"/>
      <use transform="translate(311.170102 0)scale(0.996264)" xlink:href="#CMSS17-97"/>
      <use transform="translate(356.092023 0)scale(0.996264)" xlink:href="#CMSS17-116"/>
      <use transform="translate(389.92359 0)scale(0.996264)" xlink:href="#CMSS17-105"/>
      <use transform="translate(412.104313 0)scale(0.996264)" xlink:href="#CMSS17-111"/>
      <use transform="translate(458.947936 0)scale(0.996264)" xlink:href="#CMSS17-110"/>
      <use transform="translate(538.381992 0)scale(0.996264)" xlink:href="#CMSS17-116"/>
      <use transform="translate(572.213559 0)scale(0.996264)" xlink:href="#CMSS17-105"/>
      <use transform="translate(594.394282 0)scale(0.996264)" xlink:href="#CMSS17-109"/>
      <use transform="translate(668.623536 0)scale(0.996264)" xlink:href="#CMSS17-101"/>
      <use transform="translate(741.491471 0)scale(0.996264)" xlink:href="#CMSS17-40"/>
      <use transform="translate(777.925385 0)scale(0.996264)" xlink:href="#CMSS17-102"/>
      <use transform="translate(806.552044 0)scale(0.996264)" xlink:href="#CMSS17-114"/>
      <use transform="translate(838.461817 0)scale(0.996264)" xlink:href="#CMSS17-97"/>
      <use transform="translate(883.383737 0)scale(0.996264)" xlink:href="#CMSS17-99"/>
      <use transform="translate(925.022559 0)scale(0.996264)" xlink:href="#CMSS17-116"/>
      <use transform="translate(958.854126 0)scale(0.996264)" xlink:href="#CMSS17-105"/>
      <use transform="translate(981.034849 0)scale(0.996264)" xlink:href="#CMSS17-111"/>
      <use transform="translate(1027.878473 0)scale(0.996264)" xlink:href="#CMSS17-110"/>
      <use transform="translate(1076.083416 0)scale(0.996264)" xlink:href="#CMSS17-41"/>
     </g>
    </g>
   </g>
   <g id="line2d_15">
    <path d="M 46.129114 52.873219 
L 46.551589 10.7 
L 47.167851 46.848473 
L 48.068825 52.873219 
L 49.383088 66.05235 
L 51.303512 54.98188 
L 54.10654 39.896844 
L 58.199035 69.375783 
L 64.173379 67.837909 
L 72.897482 71.429435 
L 85.634178 59.483441 
L 104.229496 62.573059 
L 131.379929 68.785905 
L 171.020001 54.082398 
L 228.895369 69.118752 
" style="fill:none;stroke:#2f974e;stroke-dasharray:4.8,1.2,0.75,1.2;stroke-dashoffset:0;stroke-width:0.75;"/>
    <defs>
     <path d="M -2.5 0 
L 2.5 0 
M 0 2.5 
L 0 -2.5 
" id="m425beca4c8" style="stroke:#2f974e;"/>
    </defs>
    <g>
     <use style="fill:#2f974e;stroke:#2f974e;" x="46.129114" xlink:href="#m425beca4c8" y="52.873219"/>
     <use style="fill:#2f974e;stroke:#2f974e;" x="46.551589" xlink:href="#m425beca4c8" y="10.7"/>
     <use style="fill:#2f974e;stroke:#2f974e;" x="47.167851" xlink:href="#m425beca4c8" y="46.848473"/>
     <use style="fill:#2f974e;stroke:#2f974e;" x="48.068825" xlink:href="#m425beca4c8" y="52.873219"/>
     <use style="fill:#2f974e;stroke:#2f974e;" x="49.383088" xlink:href="#m425beca4c8" y="66.05235"/>
     <use style="fill:#2f974e;stroke:#2f974e;" x="51.303512" xlink:href="#m425beca4c8" y="54.98188"/>
     <use style="fill:#2f974e;stroke:#2f974e;" x="54.10654" xlink:href="#m425beca4c8" y="39.896844"/>
     <use style="fill:#2f974e;stroke:#2f974e;" x="58.199035" xlink:href="#m425beca4c8" y="69.375783"/>
     <use style="fill:#2f974e;stroke:#2f974e;" x="64.173379" xlink:href="#m425beca4c8" y="67.837909"/>
     <use style="fill:#2f974e;stroke:#2f974e;" x="72.897482" xlink:href="#m425beca4c8" y="71.429435"/>
     <use style="fill:#2f974e;stroke:#2f974e;" x="85.634178" xlink:href="#m425beca4c8" y="59.483441"/>
     <use style="fill:#2f974e;stroke:#2f974e;" x="104.229496" xlink:href="#m425beca4c8" y="62.573059"/>
     <use style="fill:#2f974e;stroke:#2f974e;" x="131.379929" xlink:href="#m425beca4c8" y="68.785905"/>
     <use style="fill:#2f974e;stroke:#2f974e;" x="171.020001" xlink:href="#m425beca4c8" y="54.082398"/>
     <use style="fill:#2f974e;stroke:#2f974e;" x="228.895369" xlink:href="#m425beca4c8" y="69.118752"/>
    </g>
   </g>
   <g id="line2d_16">
    <path d="M 46.129114 52.873219 
L 46.551589 10.7 
L 47.167851 46.848473 
L 48.068825 52.873219 
L 49.383088 66.05235 
L 51.303512 61.307863 
L 54.10654 43.140938 
L 58.199035 78.543874 
L 64.173379 79.061427 
L 72.897482 82.816204 
L 85.634178 88.039602 
L 104.229496 85.346597 
L 131.379929 89.481596 
L 171.020001 68.962709 
L 228.895369 89.50713 
" style="fill:none;stroke:#2f974e;stroke-dasharray:4.8,1.2,0.75,1.2;stroke-dashoffset:0;stroke-width:0.75;"/>
    <defs>
     <path d="M 0 0 
L 0 -5 
" id="me5967e3a86" style="stroke:#2f974e;"/>
    </defs>
    <g>
     <use style="fill:#2f974e;stroke:#2f974e;" x="46.129114" xlink:href="#me5967e3a86" y="52.873219"/>
     <use style="fill:#2f974e;stroke:#2f974e;" x="46.551589" xlink:href="#me5967e3a86" y="10.7"/>
     <use style="fill:#2f974e;stroke:#2f974e;" x="47.167851" xlink:href="#me5967e3a86" y="46.848473"/>
     <use style="fill:#2f974e;stroke:#2f974e;" x="48.068825" xlink:href="#me5967e3a86" y="52.873219"/>
     <use style="fill:#2f974e;stroke:#2f974e;" x="49.383088" xlink:href="#me5967e3a86" y="66.05235"/>
     <use style="fill:#2f974e;stroke:#2f974e;" x="51.303512" xlink:href="#me5967e3a86" y="61.307863"/>
     <use style="fill:#2f974e;stroke:#2f974e;" x="54.10654" xlink:href="#me5967e3a86" y="43.140938"/>
     <use style="fill:#2f974e;stroke:#2f974e;" x="58.199035" xlink:href="#me5967e3a86" y="78.543874"/>
     <use style="fill:#2f974e;stroke:#2f974e;" x="64.173379" xlink:href="#me5967e3a86" y="79.061427"/>
     <use style="fill:#2f974e;stroke:#2f974e;" x="72.897482" xlink:href="#me5967e3a86" y="82.816204"/>
     <use style="fill:#2f974e;stroke:#2f974e;" x="85.634178" xlink:href="#me5967e3a86" y="88.039602"/>
     <use style="fill:#2f974e;stroke:#2f974e;" x="104.229496" xlink:href="#me5967e3a86" y="85.346597"/>
     <use style="fill:#2f974e;stroke:#2f974e;" x="131.379929" xlink:href="#me5967e3a86" y="89.481596"/>
     <use style="fill:#2f974e;stroke:#2f974e;" x="171.020001" xlink:href="#me5967e3a86" y="68.962709"/>
     <use style="fill:#2f974e;stroke:#2f974e;" x="228.895369" xlink:href="#me5967e3a86" y="89.50713"/>
    </g>
   </g>
   <g id="line2d_17">
    <path d="M 46.129114 95.046438 
L 46.551589 10.7 
L 47.167851 46.848473 
L 48.068825 38.815479 
L 49.383088 81.867307 
L 51.303512 73.959828 
L 54.10654 56.117313 
L 58.199035 91.379201 
L 64.173379 79.061427 
L 72.897482 82.183606 
L 85.634178 85.263308 
L 104.229496 85.135731 
L 131.379929 101.623068 
L 171.020001 74.737158 
L 228.895369 97.466975 
" style="fill:none;stroke:#2f974e;stroke-dasharray:4.8,1.2,0.75,1.2;stroke-dashoffset:0;stroke-width:0.75;"/>
    <defs>
     <path d="M -2.5 2.5 
L 2.5 -2.5 
M -2.5 -2.5 
L 2.5 2.5 
" id="me1b4a044b0" style="stroke:#2f974e;"/>
    </defs>
    <g>
     <use style="fill:#2f974e;stroke:#2f974e;" x="46.129114" xlink:href="#me1b4a044b0" y="95.046438"/>
     <use style="fill:#2f974e;stroke:#2f974e;" x="46.551589" xlink:href="#me1b4a044b0" y="10.7"/>
     <use style="fill:#2f974e;stroke:#2f974e;" x="47.167851" xlink:href="#me1b4a044b0" y="46.848473"/>
     <use style="fill:#2f974e;stroke:#2f974e;" x="48.068825" xlink:href="#me1b4a044b0" y="38.815479"/>
     <use style="fill:#2f974e;stroke:#2f974e;" x="49.383088" xlink:href="#me1b4a044b0" y="81.867307"/>
     <use style="fill:#2f974e;stroke:#2f974e;" x="51.303512" xlink:href="#me1b4a044b0" y="73.959828"/>
     <use style="fill:#2f974e;stroke:#2f974e;" x="54.10654" xlink:href="#me1b4a044b0" y="56.117313"/>
     <use style="fill:#2f974e;stroke:#2f974e;" x="58.199035" xlink:href="#me1b4a044b0" y="91.379201"/>
     <use style="fill:#2f974e;stroke:#2f974e;" x="64.173379" xlink:href="#me1b4a044b0" y="79.061427"/>
     <use style="fill:#2f974e;stroke:#2f974e;" x="72.897482" xlink:href="#me1b4a044b0" y="82.183606"/>
     <use style="fill:#2f974e;stroke:#2f974e;" x="85.634178" xlink:href="#me1b4a044b0" y="85.263308"/>
     <use style="fill:#2f974e;stroke:#2f974e;" x="104.229496" xlink:href="#me1b4a044b0" y="85.135731"/>
     <use style="fill:#2f974e;stroke:#2f974e;" x="131.379929" xlink:href="#me1b4a044b0" y="101.623068"/>
     <use style="fill:#2f974e;stroke:#2f974e;" x="171.020001" xlink:href="#me1b4a044b0" y="74.737158"/>
     <use style="fill:#2f974e;stroke:#2f974e;" x="228.895369" xlink:href="#me1b4a044b0" y="97.466975"/>
    </g>
   </g>
   <g id="patch_3">
    <path d="M 36.990802 111.915725 
L 36.990802 10.7 
" style="fill:none;stroke:#808080;stroke-linecap:square;stroke-linejoin:miter;stroke-width:0.5;"/>
   </g>
   <g id="patch_4">
    <path d="M 36.990802 111.915725 
L 228.895369 111.915725 
" style="fill:none;stroke:#808080;stroke-linecap:square;stroke-linejoin:miter;stroke-width:0.5;"/>
   </g>
   <g id="text_17">
    <!-- (a) -->
    <g transform="translate(127.615765 146.402015)scale(0.08 -0.08)">
     <use transform="scale(0.996264)" xlink:href="#CMSS17-40"/>
     <use transform="translate(36.433914 0)scale(0.996264)" xlink:href="#CMSS17-97"/>
     <use transform="translate(81.355835 0)scale(0.996264)" xlink:href="#CMSS17-41"/>
    </g>
   </g>
   <g id="legend_1">
    <g id="patch_5">
     <path d="M 148.398984 50.549237 
L 223.295369 50.549237 
Q 224.895369 50.549237 224.895369 48.949237 
L 224.895369 16.3 
Q 224.895369 14.7 223.295369 14.7 
L 148.398984 14.7 
Q 146.798984 14.7 146.798984 16.3 
L 146.798984 48.949237 
Q 146.798984 50.549237 148.398984 50.549237 
z
" style="fill:#ffffff;opacity:0.8;stroke:#cccccc;stroke-linejoin:miter;"/>
    </g>
    <g id="line2d_18">
     <path d="M 149.998984 20.7 
L 165.998984 20.7 
" style="fill:none;stroke:#2f974e;stroke-dasharray:4.8,1.2,0.75,1.2;stroke-dashoffset:0;stroke-width:0.75;"/>
    </g>
    <g id="line2d_19">
     <g>
      <use style="fill:#2f974e;stroke:#2f974e;" x="157.998984" xlink:href="#m425beca4c8" y="20.7"/>
     </g>
    </g>
    <g id="text_18">
     <!-- \# workers : 2 -->
     <defs>
      <path d="M 49.09375 14 
L 69.703125 14 
C 71.40625 14 73.09375 14 73.09375 15.796875 
C 73.09375 17.484375 71.59375 17.484375 70.09375 17.484375 
L 50.09375 17.484375 
L 53.5 31.515625 
L 70.09375 31.515625 
C 71.59375 31.515625 73.09375 31.515625 73.09375 33.203125 
C 73.09375 35 71.40625 35 69.703125 35 
L 54.5 35 
L 62.203125 65.375 
C 62.5 66.375 62.59375 66.875 62.59375 67.1875 
C 62.59375 68.1875 61.796875 69 60.796875 69 
C 59.40625 69 59.09375 67.59375 58.90625 66.796875 
L 50.90625 35 
L 32.796875 35 
L 40.5 65.375 
C 40.796875 66.375 40.90625 66.875 40.90625 67.1875 
C 40.90625 68.1875 40.09375 69 39.09375 69 
C 37.703125 69 37.40625 67.59375 37.203125 66.796875 
L 29.203125 35 
L 8.59375 35 
C 6.90625 35 5.203125 35 5.203125 33.203125 
C 5.203125 31.515625 6.703125 31.515625 8.203125 31.515625 
L 28.203125 31.515625 
L 24.796875 17.484375 
L 8.203125 17.484375 
C 6.703125 17.484375 5.203125 17.484375 5.203125 15.796875 
C 5.203125 14 6.90625 14 8.59375 14 
L 23.796875 14 
L 16.09375 -15.9375 
C 15.796875 -16.921875 15.703125 -17.40625 15.703125 -17.71875 
C 15.703125 -18.703125 16.5 -19.5 17.5 -19.5 
C 18.90625 -19.5 19.203125 -18.109375 19.40625 -17.328125 
L 27.40625 14 
L 45.5 14 
L 37.796875 -15.9375 
C 37.5 -16.921875 37.40625 -17.40625 37.40625 -17.71875 
C 37.40625 -18.703125 38.203125 -19.5 39.203125 -19.5 
C 40.59375 -19.5 40.90625 -18.109375 41.09375 -17.328125 
z
M 28.40625 17.484375 
L 31.796875 31.515625 
L 49.90625 31.515625 
L 46.5 17.484375 
z
" id="CMSS17-35"/>
      <path d="M 62.703125 43 
L 55.09375 43 
L 49.796875 25.015625 
C 48.703125 21.21875 45.59375 10.703125 45.203125 5.796875 
L 45.09375 5.796875 
C 44.90625 8.8125 43.203125 16 40.40625 25.515625 
L 35.296875 43 
L 28.40625 43 
L 23.40625 25.90625 
C 20.90625 17.203125 19 9.796875 18.796875 5.796875 
L 18.703125 5.796875 
C 18.296875 11.703125 14.203125 25.515625 13.59375 27.703125 
L 9.09375 43 
L 1.296875 43 
L 14.296875 0 
L 21.90625 0 
C 27.09375 17.125 31.09375 30.359375 31.40625 37.03125 
C 31.59375 33.75 33.296875 26.671875 34.296875 23.1875 
L 40.90625 0 
L 49.703125 0 
z
" id="CMSS17-119"/>
      <path d="M 26.5 26.375 
L 42 42.796875 
L 32.40625 42.796875 
L 14.90625 24.28125 
L 14.90625 69 
L 7.5 69 
L 7.5 0 
L 14.796875 0 
L 14.796875 13.9375 
L 21.5 21 
L 35.59375 0 
L 44.09375 0 
z
" id="CMSS17-107"/>
      <path d="M 17 42.953125 
L 9 42.953125 
L 9 35 
L 17 35 
z
M 9 7.96875 
L 9 0 
L 17 0 
L 17 7.96875 
z
" id="CMSS17-58"/>
      <path d="M 25.796875 21.203125 
C 28.59375 24.078125 32.796875 27.5625 35.703125 31.046875 
C 38.5 34.4375 42.203125 39.234375 42.203125 46.203125 
C 42.203125 57.140625 34.796875 67 22.203125 67 
C 12.296875 67 6.59375 60.828125 3.90625 51.15625 
L 7.796875 45.765625 
C 10 54.84375 13.09375 60.625 20.90625 60.625 
C 29.5 60.625 34.296875 53.640625 34.296875 45.96875 
C 34.296875 36.796875 27.296875 29.703125 22 24.421875 
C 16.09375 18.546875 10.296875 12.5625 4.703125 6.375 
L 4.703125 0 
L 42.203125 0 
L 42.203125 6.765625 
L 25.203125 6.765625 
C 24 6.765625 22.796875 6.765625 21.59375 6.765625 
L 11.59375 6.765625 
L 11.59375 6.859375 
z
" id="CMSS17-50"/>
     </defs>
     <g transform="translate(172.398984 23.5)scale(0.08 -0.08)">
      <use transform="scale(0.996264)" xlink:href="#CMSS17-35"/>
      <use transform="translate(109.301849 0)scale(0.996264)" xlink:href="#CMSS17-119"/>
      <use transform="translate(170.51894 0)scale(0.996264)" xlink:href="#CMSS17-111"/>
      <use transform="translate(214.76011 0)scale(0.996264)" xlink:href="#CMSS17-114"/>
      <use transform="translate(246.669882 0)scale(0.996264)" xlink:href="#CMSS17-107"/>
      <use transform="translate(289.669918 0)scale(0.996264)" xlink:href="#CMSS17-101"/>
      <use transform="translate(331.30874 0)scale(0.996264)" xlink:href="#CMSS17-114"/>
      <use transform="translate(363.218512 0)scale(0.996264)" xlink:href="#CMSS17-115"/>
      <use transform="translate(430.361167 0)scale(0.996264)" xlink:href="#CMSS17-58"/>
      <use transform="translate(498.024179 0)scale(0.996264)" xlink:href="#CMSS17-50"/>
     </g>
    </g>
    <g id="line2d_20">
     <path d="M 149.998984 31.849746 
L 165.998984 31.849746 
" style="fill:none;stroke:#2f974e;stroke-dasharray:4.8,1.2,0.75,1.2;stroke-dashoffset:0;stroke-width:0.75;"/>
    </g>
    <g id="line2d_21">
     <g>
      <use style="fill:#2f974e;stroke:#2f974e;" x="157.998984" xlink:href="#me5967e3a86" y="31.849746"/>
     </g>
    </g>
    <g id="text_19">
     <!-- \# workers : 3 -->
     <defs>
      <path d="M 15.703125 31.640625 
L 22.5 31.640625 
C 31.90625 31.640625 34.59375 23.546875 34.59375 17.90625 
C 34.59375 10.203125 30.203125 4.171875 23 4.171875 
C 17.40625 4.171875 9.5 6.9375 5 14.25 
C 4.296875 10.796875 4.296875 10.59375 3.90625 8.21875 
C 8.59375 1.375 16.203125 -2 23.203125 -2 
C 34.59375 -2 43 7.390625 43 17.78125 
C 43 25.59375 37.5 32.140625 30 34.609375 
C 36 37.875 40.40625 44 40.40625 51.140625 
C 40.40625 59.453125 32.703125 66.078125 23.296875 66.078125 
C 14.703125 66.078125 8 60.8125 5.203125 55.15625 
C 5.90625 54.1875 7.703125 51.3125 8.59375 49.828125 
C 10.796875 55.65625 16.5 60 23.203125 60 
C 28.796875 60 32.5 56.359375 32.5 51.109375 
C 32.5 45.671875 29 39.734375 23.09375 38.359375 
C 22.703125 38.359375 16.5 37.765625 15.703125 37.671875 
z
" id="CMSS17-51"/>
     </defs>
     <g transform="translate(172.398984 34.649746)scale(0.08 -0.08)">
      <use transform="scale(0.996264)" xlink:href="#CMSS17-35"/>
      <use transform="translate(109.301849 0)scale(0.996264)" xlink:href="#CMSS17-119"/>
      <use transform="translate(170.51894 0)scale(0.996264)" xlink:href="#CMSS17-111"/>
      <use transform="translate(214.76011 0)scale(0.996264)" xlink:href="#CMSS17-114"/>
      <use transform="translate(246.669882 0)scale(0.996264)" xlink:href="#CMSS17-107"/>
      <use transform="translate(289.669918 0)scale(0.996264)" xlink:href="#CMSS17-101"/>
      <use transform="translate(331.30874 0)scale(0.996264)" xlink:href="#CMSS17-114"/>
      <use transform="translate(363.218512 0)scale(0.996264)" xlink:href="#CMSS17-115"/>
      <use transform="translate(430.361167 0)scale(0.996264)" xlink:href="#CMSS17-58"/>
      <use transform="translate(498.024179 0)scale(0.996264)" xlink:href="#CMSS17-51"/>
     </g>
    </g>
    <g id="line2d_22">
     <path d="M 149.998984 42.999491 
L 165.998984 42.999491 
" style="fill:none;stroke:#2f974e;stroke-dasharray:4.8,1.2,0.75,1.2;stroke-dashoffset:0;stroke-width:0.75;"/>
    </g>
    <g id="line2d_23">
     <g>
      <use style="fill:#2f974e;stroke:#2f974e;" x="157.998984" xlink:href="#me1b4a044b0" y="42.999491"/>
     </g>
    </g>
    <g id="text_20">
     <!-- \# workers : 4 -->
     <defs>
      <path d="M 35.203125 17 
L 44.296875 17 
L 44.296875 23.078125 
L 35.203125 23.078125 
L 35.203125 65.5 
L 26.40625 65.5 
L 2.59375 23.078125 
L 2.59375 17 
L 27.296875 17 
L 27.296875 0 
L 35.203125 0 
z
M 10.296875 23.078125 
C 16.09375 33.234375 27.59375 53.734375 27.59375 60.703125 
L 27.59375 23.078125 
z
" id="CMSS17-52"/>
     </defs>
     <g transform="translate(172.398984 45.799491)scale(0.08 -0.08)">
      <use transform="scale(0.996264)" xlink:href="#CMSS17-35"/>
      <use transform="translate(109.301849 0)scale(0.996264)" xlink:href="#CMSS17-119"/>
      <use transform="translate(170.51894 0)scale(0.996264)" xlink:href="#CMSS17-111"/>
      <use transform="translate(214.76011 0)scale(0.996264)" xlink:href="#CMSS17-114"/>
      <use transform="translate(246.669882 0)scale(0.996264)" xlink:href="#CMSS17-107"/>
      <use transform="translate(289.669918 0)scale(0.996264)" xlink:href="#CMSS17-101"/>
      <use transform="translate(331.30874 0)scale(0.996264)" xlink:href="#CMSS17-114"/>
      <use transform="translate(363.218512 0)scale(0.996264)" xlink:href="#CMSS17-115"/>
      <use transform="translate(430.361167 0)scale(0.996264)" xlink:href="#CMSS17-58"/>
      <use transform="translate(498.024179 0)scale(0.996264)" xlink:href="#CMSS17-52"/>
     </g>
    </g>
   </g>
  </g>
  <g id="axes_2">
   <g id="patch_6">
    <path d="M 270.325548 111.915725 
L 462.230116 111.915725 
L 462.230116 10.7 
L 270.325548 10.7 
z
" style="fill:#ffffff;"/>
   </g>
   <g id="matplotlib.axis_3">
    <g id="xtick_6">
     <g id="line2d_24">
      <g>
       <use style="fill:#808080;stroke:#808080;stroke-width:0.8;" x="279.463861" xlink:href="#m6f33a72db0" y="111.915725"/>
      </g>
     </g>
     <g id="text_21">
      <!-- $1k$ -->
      <g transform="translate(275.142047 124.450527)scale(0.08 -0.08)">
       <use transform="scale(0.996264)" xlink:href="#CMR17-49"/>
       <use transform="translate(45.690477 0)scale(0.996264)" xlink:href="#CMMI12-107"/>
      </g>
     </g>
    </g>
    <g id="xtick_7">
     <g id="line2d_25">
      <g>
       <use style="fill:#808080;stroke:#808080;stroke-width:0.8;" x="296.913905" xlink:href="#m6f33a72db0" y="111.915725"/>
      </g>
     </g>
     <g id="text_22">
      <!-- $20k$ -->
      <g transform="translate(290.475 124.450527)scale(0.08 -0.08)">
       <use transform="scale(0.996264)" xlink:href="#CMR17-50"/>
       <use transform="translate(45.690477 0)scale(0.996264)" xlink:href="#CMR17-48"/>
       <use transform="translate(91.380954 0)scale(0.996264)" xlink:href="#CMMI12-107"/>
      </g>
     </g>
    </g>
    <g id="xtick_8">
     <g id="line2d_26">
      <g>
       <use style="fill:#808080;stroke:#808080;stroke-width:0.8;" x="324.466607" xlink:href="#m6f33a72db0" y="111.915725"/>
      </g>
     </g>
     <g id="text_23">
      <!-- $50k$ -->
      <g transform="translate(318.027702 124.450527)scale(0.08 -0.08)">
       <use transform="scale(0.996264)" xlink:href="#CMR17-53"/>
       <use transform="translate(45.690477 0)scale(0.996264)" xlink:href="#CMR17-48"/>
       <use transform="translate(91.380954 0)scale(0.996264)" xlink:href="#CMMI12-107"/>
      </g>
     </g>
    </g>
    <g id="xtick_9">
     <g id="line2d_27">
      <g>
       <use style="fill:#808080;stroke:#808080;stroke-width:0.8;" x="370.387777" xlink:href="#m6f33a72db0" y="111.915725"/>
      </g>
     </g>
     <g id="text_24">
      <!-- $100k$ -->
      <g transform="translate(361.83178 124.450527)scale(0.08 -0.08)">
       <use transform="scale(0.996264)" xlink:href="#CMR17-49"/>
       <use transform="translate(45.690477 0)scale(0.996264)" xlink:href="#CMR17-48"/>
       <use transform="translate(91.380954 0)scale(0.996264)" xlink:href="#CMR17-48"/>
       <use transform="translate(137.071431 0)scale(0.996264)" xlink:href="#CMMI12-107"/>
      </g>
     </g>
    </g>
    <g id="xtick_10">
     <g id="line2d_28">
      <g>
       <use style="fill:#808080;stroke:#808080;stroke-width:0.8;" x="462.230116" xlink:href="#m6f33a72db0" y="111.915725"/>
      </g>
     </g>
     <g id="text_25">
      <!-- $200k$ -->
      <g transform="translate(453.674119 124.450527)scale(0.08 -0.08)">
       <use transform="scale(0.996264)" xlink:href="#CMR17-50"/>
       <use transform="translate(45.690477 0)scale(0.996264)" xlink:href="#CMR17-48"/>
       <use transform="translate(91.380954 0)scale(0.996264)" xlink:href="#CMR17-48"/>
       <use transform="translate(137.071431 0)scale(0.996264)" xlink:href="#CMMI12-107"/>
      </g>
     </g>
    </g>
    <g id="text_26">
     <!-- Number of training data points -->
     <g transform="translate(310.980277 135.535074)scale(0.08 -0.08)">
      <use transform="scale(0.996264)" xlink:href="#CMSS17-78"/>
      <use transform="translate(66.061519 0)scale(0.996264)" xlink:href="#CMSS17-117"/>
      <use transform="translate(114.266462 0)scale(0.996264)" xlink:href="#CMSS17-109"/>
      <use transform="translate(188.495717 0)scale(0.996264)" xlink:href="#CMSS17-98"/>
      <use transform="translate(239.303099 0)scale(0.996264)" xlink:href="#CMSS17-101"/>
      <use transform="translate(280.941921 0)scale(0.996264)" xlink:href="#CMSS17-114"/>
      <use transform="translate(344.080806 0)scale(0.996264)" xlink:href="#CMSS17-111"/>
      <use transform="translate(390.92443 0)scale(0.996264)" xlink:href="#CMSS17-102"/>
      <use transform="translate(450.780201 0)scale(0.996264)" xlink:href="#CMSS17-116"/>
      <use transform="translate(484.611768 0)scale(0.996264)" xlink:href="#CMSS17-114"/>
      <use transform="translate(516.52154 0)scale(0.996264)" xlink:href="#CMSS17-97"/>
      <use transform="translate(561.443461 0)scale(0.996264)" xlink:href="#CMSS17-105"/>
      <use transform="translate(583.624184 0)scale(0.996264)" xlink:href="#CMSS17-110"/>
      <use transform="translate(631.829127 0)scale(0.996264)" xlink:href="#CMSS17-105"/>
      <use transform="translate(654.00985 0)scale(0.996264)" xlink:href="#CMSS17-110"/>
      <use transform="translate(702.214793 0)scale(0.996264)" xlink:href="#CMSS17-103"/>
      <use transform="translate(780.28753 0)scale(0.996264)" xlink:href="#CMSS17-100"/>
      <use transform="translate(828.492473 0)scale(0.996264)" xlink:href="#CMSS17-97"/>
      <use transform="translate(873.414393 0)scale(0.996264)" xlink:href="#CMSS17-116"/>
      <use transform="translate(907.24596 0)scale(0.996264)" xlink:href="#CMSS17-97"/>
      <use transform="translate(983.396993 0)scale(0.996264)" xlink:href="#CMSS17-112"/>
      <use transform="translate(1034.204375 0)scale(0.996264)" xlink:href="#CMSS17-111"/>
      <use transform="translate(1081.047999 0)scale(0.996264)" xlink:href="#CMSS17-105"/>
      <use transform="translate(1103.228722 0)scale(0.996264)" xlink:href="#CMSS17-110"/>
      <use transform="translate(1151.433665 0)scale(0.996264)" xlink:href="#CMSS17-116"/>
      <use transform="translate(1185.265232 0)scale(0.996264)" xlink:href="#CMSS17-115"/>
     </g>
    </g>
   </g>
   <g id="matplotlib.axis_4">
    <g id="ytick_10">
     <g id="line2d_29">
      <g>
       <use style="fill:#808080;stroke:#808080;stroke-width:0.8;" x="270.325548" xlink:href="#m31ed833c9f" y="111.915725"/>
      </g>
     </g>
     <g id="text_27">
      <!-- $0$ -->
      <g transform="translate(259.091365 114.683126)scale(0.08 -0.08)">
       <use transform="scale(0.996264)" xlink:href="#CMR17-48"/>
      </g>
     </g>
    </g>
    <g id="ytick_11">
     <g id="line2d_30">
      <g>
       <use style="fill:#808080;stroke:#808080;stroke-width:0.8;" x="270.325548" xlink:href="#m31ed833c9f" y="86.611794"/>
      </g>
     </g>
     <g id="text_28">
      <!-- $2$ -->
      <g transform="translate(259.091365 89.379195)scale(0.08 -0.08)">
       <use transform="scale(0.996264)" xlink:href="#CMR17-50"/>
      </g>
     </g>
    </g>
    <g id="ytick_12">
     <g id="line2d_31">
      <g>
       <use style="fill:#808080;stroke:#808080;stroke-width:0.8;" x="270.325548" xlink:href="#m31ed833c9f" y="61.307863"/>
      </g>
     </g>
     <g id="text_29">
      <!-- $4$ -->
      <g transform="translate(259.091365 64.075263)scale(0.08 -0.08)">
       <use transform="scale(0.996264)" xlink:href="#CMR17-52"/>
      </g>
     </g>
    </g>
    <g id="ytick_13">
     <g id="line2d_32">
      <g>
       <use style="fill:#808080;stroke:#808080;stroke-width:0.8;" x="270.325548" xlink:href="#m31ed833c9f" y="36.003931"/>
      </g>
     </g>
     <g id="text_30">
      <!-- $6$ -->
      <g transform="translate(259.091365 38.771332)scale(0.08 -0.08)">
       <use transform="scale(0.996264)" xlink:href="#CMR17-54"/>
      </g>
     </g>
    </g>
    <g id="ytick_14">
     <g id="line2d_33">
      <g>
       <use style="fill:#808080;stroke:#808080;stroke-width:0.8;" x="270.325548" xlink:href="#m31ed833c9f" y="10.7"/>
      </g>
     </g>
     <g id="text_31">
      <!-- $8$ -->
      <g transform="translate(259.091365 13.467401)scale(0.08 -0.08)">
       <use transform="scale(0.996264)" xlink:href="#CMR17-56"/>
      </g>
     </g>
    </g>
    <g id="text_32">
     <!-- Number of critical chunks -->
     <defs>
      <path d="M 14.796875 69 
L 7.40625 69 
L 7.40625 0 
L 14.796875 0 
z
" id="CMSS17-108"/>
      <path d="M 40.90625 29.546875 
C 40.90625 35.8125 39.40625 44.0625 28.09375 44.0625 
C 21.796875 44.0625 17.703125 40.984375 14.796875 37.609375 
L 14.796875 69.5 
L 7.40625 69.5 
L 7.40625 0.5 
L 15 0.5 
L 15 24.578125 
C 15 30.828125 17.40625 38 24.203125 38 
C 33 38 33.296875 32.125 33.296875 28.734375 
L 33.296875 0.5 
L 40.90625 0.5 
z
" id="CMSS17-104"/>
     </defs>
     <g transform="translate(253.54162 107.057756)rotate(-90)scale(0.08 -0.08)">
      <use transform="scale(0.996264)" xlink:href="#CMSS17-78"/>
      <use transform="translate(66.061519 0)scale(0.996264)" xlink:href="#CMSS17-117"/>
      <use transform="translate(114.266462 0)scale(0.996264)" xlink:href="#CMSS17-109"/>
      <use transform="translate(188.495717 0)scale(0.996264)" xlink:href="#CMSS17-98"/>
      <use transform="translate(239.303099 0)scale(0.996264)" xlink:href="#CMSS17-101"/>
      <use transform="translate(280.941921 0)scale(0.996264)" xlink:href="#CMSS17-114"/>
      <use transform="translate(344.080806 0)scale(0.996264)" xlink:href="#CMSS17-111"/>
      <use transform="translate(390.92443 0)scale(0.996264)" xlink:href="#CMSS17-102"/>
      <use transform="translate(450.780201 0)scale(0.996264)" xlink:href="#CMSS17-99"/>
      <use transform="translate(492.419023 0)scale(0.996264)" xlink:href="#CMSS17-114"/>
      <use transform="translate(524.328796 0)scale(0.996264)" xlink:href="#CMSS17-105"/>
      <use transform="translate(546.509519 0)scale(0.996264)" xlink:href="#CMSS17-116"/>
      <use transform="translate(580.341085 0)scale(0.996264)" xlink:href="#CMSS17-105"/>
      <use transform="translate(602.521808 0)scale(0.996264)" xlink:href="#CMSS17-99"/>
      <use transform="translate(644.160631 0)scale(0.996264)" xlink:href="#CMSS17-97"/>
      <use transform="translate(689.082551 0)scale(0.996264)" xlink:href="#CMSS17-108"/>
      <use transform="translate(742.492387 0)scale(0.996264)" xlink:href="#CMSS17-99"/>
      <use transform="translate(784.131209 0)scale(0.996264)" xlink:href="#CMSS17-104"/>
      <use transform="translate(832.336152 0)scale(0.996264)" xlink:href="#CMSS17-117"/>
      <use transform="translate(880.541095 0)scale(0.996264)" xlink:href="#CMSS17-110"/>
      <use transform="translate(928.746038 0)scale(0.996264)" xlink:href="#CMSS17-107"/>
      <use transform="translate(974.348528 0)scale(0.996264)" xlink:href="#CMSS17-115"/>
     </g>
    </g>
   </g>
   <g id="line2d_34">
    <path d="M 279.463861 61.307863 
L 279.886336 73.959828 
L 280.502598 86.611794 
L 281.403571 61.307863 
L 282.717835 73.959828 
L 284.638258 48.655897 
L 287.441287 48.655897 
L 291.533781 48.655897 
L 297.508125 48.655897 
L 306.232229 48.655897 
L 318.968925 36.003931 
L 337.564243 36.003931 
L 364.714675 10.7 
L 404.354747 23.351966 
L 462.230116 23.351966 
" style="fill:none;stroke:#2f974e;stroke-dasharray:4.8,1.2,0.75,1.2;stroke-dashoffset:0;stroke-width:0.75;"/>
    <defs>
     <path d="M 0 -1.5 
L -1.5 1.5 
L 1.5 1.5 
z
" id="meabfad5087" style="stroke:#2f974e;stroke-linejoin:miter;"/>
    </defs>
    <g>
     <use style="fill:#2f974e;stroke:#2f974e;stroke-linejoin:miter;" x="279.463861" xlink:href="#meabfad5087" y="61.307863"/>
     <use style="fill:#2f974e;stroke:#2f974e;stroke-linejoin:miter;" x="279.886336" xlink:href="#meabfad5087" y="73.959828"/>
     <use style="fill:#2f974e;stroke:#2f974e;stroke-linejoin:miter;" x="280.502598" xlink:href="#meabfad5087" y="86.611794"/>
     <use style="fill:#2f974e;stroke:#2f974e;stroke-linejoin:miter;" x="281.403571" xlink:href="#meabfad5087" y="61.307863"/>
     <use style="fill:#2f974e;stroke:#2f974e;stroke-linejoin:miter;" x="282.717835" xlink:href="#meabfad5087" y="73.959828"/>
     <use style="fill:#2f974e;stroke:#2f974e;stroke-linejoin:miter;" x="284.638258" xlink:href="#meabfad5087" y="48.655897"/>
     <use style="fill:#2f974e;stroke:#2f974e;stroke-linejoin:miter;" x="287.441287" xlink:href="#meabfad5087" y="48.655897"/>
     <use style="fill:#2f974e;stroke:#2f974e;stroke-linejoin:miter;" x="291.533781" xlink:href="#meabfad5087" y="48.655897"/>
     <use style="fill:#2f974e;stroke:#2f974e;stroke-linejoin:miter;" x="297.508125" xlink:href="#meabfad5087" y="48.655897"/>
     <use style="fill:#2f974e;stroke:#2f974e;stroke-linejoin:miter;" x="306.232229" xlink:href="#meabfad5087" y="48.655897"/>
     <use style="fill:#2f974e;stroke:#2f974e;stroke-linejoin:miter;" x="318.968925" xlink:href="#meabfad5087" y="36.003931"/>
     <use style="fill:#2f974e;stroke:#2f974e;stroke-linejoin:miter;" x="337.564243" xlink:href="#meabfad5087" y="36.003931"/>
     <use style="fill:#2f974e;stroke:#2f974e;stroke-linejoin:miter;" x="364.714675" xlink:href="#meabfad5087" y="10.7"/>
     <use style="fill:#2f974e;stroke:#2f974e;stroke-linejoin:miter;" x="404.354747" xlink:href="#meabfad5087" y="23.351966"/>
     <use style="fill:#2f974e;stroke:#2f974e;stroke-linejoin:miter;" x="462.230116" xlink:href="#meabfad5087" y="23.351966"/>
    </g>
   </g>
   <g id="patch_7">
    <path d="M 270.325548 111.915725 
L 270.325548 10.7 
" style="fill:none;stroke:#808080;stroke-linecap:square;stroke-linejoin:miter;stroke-width:0.5;"/>
   </g>
   <g id="patch_8">
    <path d="M 270.325548 111.915725 
L 462.230116 111.915725 
" style="fill:none;stroke:#808080;stroke-linecap:square;stroke-linejoin:miter;stroke-width:0.5;"/>
   </g>
   <g id="text_33">
    <!-- (b) -->
    <g transform="translate(360.798304 146.402015)scale(0.08 -0.08)">
     <use transform="scale(0.996264)" xlink:href="#CMSS17-40"/>
     <use transform="translate(36.433914 0)scale(0.996264)" xlink:href="#CMSS17-98"/>
     <use transform="translate(84.638857 0)scale(0.996264)" xlink:href="#CMSS17-41"/>
    </g>
   </g>
  </g>
 </g>
</svg>
