<?xml version="1.0" encoding="utf-8" standalone="no"?>
<!DOCTYPE svg PUBLIC "-//W3C//DTD SVG 1.1//EN"
  "http://www.w3.org/Graphics/SVG/1.1/DTD/svg11.dtd">
<!-- Created with matplotlib (https://matplotlib.org/) -->
<svg height="163.780899pt" version="1.1" viewBox="0 0 237.002112 163.780899" width="237.002112pt" xmlns="http://www.w3.org/2000/svg" xmlns:xlink="http://www.w3.org/1999/xlink">
 <defs>
  <style type="text/css">
*{stroke-linecap:butt;stroke-linejoin:round;}
  </style>
 </defs>
 <g id="figure_1">
  <g id="patch_1">
   <path d="M 0 163.780899 
L 237.002112 163.780899 
L 237.002112 0 
L 0 0 
z
" style="fill:#ffffff;"/>
  </g>
  <g id="axes_1">
   <g id="patch_2">
    <path d="M 34.638478 131.411804 
L 221.501528 131.411804 
L 221.501528 10.7 
L 34.638478 10.7 
z
" style="fill:#ffffff;"/>
   </g>
   <g id="matplotlib.axis_1">
    <g id="xtick_1">
     <g id="line2d_1">
      <defs>
       <path d="M 0 0 
L 0 3.5 
" id="m4d273db772" style="stroke:#808080;stroke-width:0.8;"/>
      </defs>
      <g>
       <use style="fill:#808080;stroke:#808080;stroke-width:0.8;" x="34.638478" xlink:href="#m4d273db772" y="131.411804"/>
      </g>
     </g>
     <g id="text_1">
      <!-- $0$ -->
      <defs>
       <path d="M 42 31.640625 
C 42 37.75 41.90625 48.125 37.703125 56.109375 
C 34 63.109375 28.09375 65.59375 22.90625 65.59375 
C 18.09375 65.59375 12 63.40625 8.203125 56.203125 
C 4.203125 48.71875 3.796875 39.4375 3.796875 31.640625 
C 3.796875 25.953125 3.90625 17.28125 7 9.671875 
C 11.296875 -0.609375 19 -2 22.90625 -2 
C 27.5 -2 34.5 -0.109375 38.59375 9.375 
C 41.59375 16.28125 42 24.359375 42 31.640625 
z
M 22.90625 -0.40625 
C 16.5 -0.40625 12.703125 5.078125 11.296875 12.6875 
C 10.203125 18.5625 10.203125 27.15625 10.203125 32.75 
C 10.203125 40.4375 10.203125 46.828125 11.5 52.921875 
C 13.40625 61.390625 19 64 22.90625 64 
C 27 64 32.296875 61.296875 34.203125 53.125 
C 35.5 47.4375 35.59375 40.734375 35.59375 32.75 
C 35.59375 26.25 35.59375 18.265625 34.40625 12.375 
C 32.296875 1.484375 26.40625 -0.40625 22.90625 -0.40625 
z
" id="CMR17-48"/>
      </defs>
      <g transform="translate(32.521386 143.946606)scale(0.08 -0.08)">
       <use transform="scale(0.996264)" xlink:href="#CMR17-48"/>
      </g>
     </g>
    </g>
    <g id="xtick_2">
     <g id="line2d_2">
      <g>
       <use style="fill:#808080;stroke:#808080;stroke-width:0.8;" x="81.35424" xlink:href="#m4d273db772" y="131.411804"/>
      </g>
     </g>
     <g id="text_2">
      <!-- $5M$ -->
      <defs>
       <path d="M 11.40625 57.6875 
C 12.40625 57.28125 16.5 56 20.703125 56 
C 30 56 35.09375 61.109375 38 64.0625 
C 38 64.953125 38 65.5 37.40625 65.5 
C 37.296875 65.5 37.09375 65.5 36.296875 65.046875 
C 32.796875 63.40625 28.703125 62.078125 23.703125 62.078125 
C 20.703125 62.078125 16.203125 62.484375 11.296875 64.671875 
C 10.203125 65.171875 10 65.171875 9.90625 65.171875 
C 9.40625 65.171875 9.296875 65.0625 9.296875 63.078125 
L 9.296875 34.421875 
C 9.296875 32.640625 9.296875 32.140625 10.296875 32.140625 
C 10.796875 32.140625 11 32.34375 11.5 33.03125 
C 14.703125 37.515625 19.09375 39.40625 24.09375 39.40625 
C 27.59375 39.40625 35.09375 37.21875 35.09375 20.140625 
C 35.09375 16.953125 35.09375 11.171875 32.09375 6.578125 
C 29.59375 2.484375 25.703125 0.390625 21.40625 0.390625 
C 14.796875 0.390625 8.09375 5 6.296875 12.71875 
C 6.703125 12.609375 7.5 12.421875 7.90625 12.421875 
C 9.203125 12.421875 11.703125 13.125 11.703125 16.21875 
C 11.703125 18.90625 9.796875 20 7.90625 20 
C 5.59375 20 4.09375 18.59375 4.09375 15.796875 
C 4.09375 7.09375 11 -2 21.59375 -2 
C 31.90625 -2 41.703125 6.875 41.703125 19.75 
C 41.703125 31.71875 33.90625 41 24.203125 41 
C 19.09375 41 14.796875 39.109375 11.40625 35.53125 
z
" id="CMR17-53"/>
       <path d="M 90.796875 60.71875 
C 91.703125 64.109375 91.90625 65.109375 99 65.109375 
C 100.90625 65.109375 101.796875 65.109375 101.796875 67 
C 101.796875 68 101.09375 68 99.203125 68 
L 87.203125 68 
C 84.703125 68 84.59375 67.90625 83.5 66.296875 
L 47 8.78125 
L 39.5 65.796875 
C 39.203125 68 39.09375 68 36.5 68 
L 24.09375 68 
C 22.203125 68 21.296875 68 21.296875 66.109375 
C 21.296875 65.109375 22.203125 65.109375 23.703125 65.109375 
C 29.796875 65.109375 29.796875 64.3125 29.796875 63.21875 
C 29.796875 63.03125 29.796875 62.421875 29.40625 60.921875 
L 16.59375 9.90625 
C 15.40625 5.109375 13.09375 2.90625 6.40625 2.90625 
C 6.09375 2.90625 4.90625 2.90625 4.90625 1.140625 
C 4.90625 0 5.796875 0 6.203125 0 
C 8.203125 0 13.296875 0 15.296875 0 
L 20.09375 0 
C 21.5 0 23.203125 0 24.59375 0 
C 25.296875 0 26.40625 0 26.40625 1.90625 
C 26.40625 2.8125 25.40625 2.90625 25 2.90625 
C 21.703125 2.90625 18.5 3.5 18.5 7.09375 
C 18.5 8.09375 18.5 8.1875 18.90625 9.578125 
L 32.703125 64.515625 
L 32.796875 64.515625 
L 41.09375 2.6875 
C 41.40625 0.296875 41.5 0 42.40625 0 
C 43.5 0 44 0.796875 44.5 1.703125 
L 84.703125 65.015625 
L 84.796875 65.015625 
L 70.296875 7.390625 
C 69.40625 3.90625 69.203125 2.90625 62.203125 2.90625 
C 60.296875 2.90625 59.296875 2.90625 59.296875 1.09375 
C 59.296875 0 60.203125 0 60.796875 0 
C 62.5 0 64.5 0 66.203125 0 
L 78 0 
C 79.703125 0 81.796875 0 83.5 0 
C 84.296875 0 85.40625 0 85.40625 1.90625 
C 85.40625 2.90625 84.5 2.90625 83 2.90625 
C 76.90625 2.90625 76.90625 3.65625 76.90625 4.59375 
C 76.90625 4.703125 76.90625 5.390625 77.09375 6.1875 
z
" id="CMMI12-77"/>
      </defs>
      <g transform="translate(75.170748 143.946606)scale(0.08 -0.08)">
       <use transform="scale(0.996264)" xlink:href="#CMR17-53"/>
       <use transform="translate(45.690477 0)scale(0.996264)" xlink:href="#CMMI12-77"/>
      </g>
     </g>
    </g>
    <g id="xtick_3">
     <g id="line2d_3">
      <g>
       <use style="fill:#808080;stroke:#808080;stroke-width:0.8;" x="128.070003" xlink:href="#m4d273db772" y="131.411804"/>
      </g>
     </g>
     <g id="text_3">
      <!-- $10M$ -->
      <defs>
       <path d="M 26.59375 63.40625 
C 26.59375 65.5 26.5 65.5 25.09375 65.5 
C 21.203125 61.1875 15.296875 59.796875 9.703125 59.796875 
C 9.40625 59.796875 8.90625 59.796875 8.796875 59.5 
C 8.703125 59.296875 8.703125 59.09375 8.703125 57 
C 11.796875 57 17 57.59375 21 59.984375 
L 21 7.203125 
C 21 3.6875 20.796875 2.5 12.203125 2.5 
L 9.203125 2.5 
L 9.203125 0 
C 14 0 19 0 23.796875 0 
C 28.59375 0 33.59375 0 38.40625 0 
L 38.40625 2.5 
L 35.40625 2.5 
C 26.796875 2.5 26.59375 3.59375 26.59375 7.15625 
z
" id="CMR17-49"/>
      </defs>
      <g transform="translate(119.769419 143.946606)scale(0.08 -0.08)">
       <use transform="scale(0.996264)" xlink:href="#CMR17-49"/>
       <use transform="translate(45.690477 0)scale(0.996264)" xlink:href="#CMR17-48"/>
       <use transform="translate(91.380954 0)scale(0.996264)" xlink:href="#CMMI12-77"/>
      </g>
     </g>
    </g>
    <g id="xtick_4">
     <g id="line2d_4">
      <g>
       <use style="fill:#808080;stroke:#808080;stroke-width:0.8;" x="174.785766" xlink:href="#m4d273db772" y="131.411804"/>
      </g>
     </g>
     <g id="text_4">
      <!-- $15M$ -->
      <g transform="translate(166.485182 143.946606)scale(0.08 -0.08)">
       <use transform="scale(0.996264)" xlink:href="#CMR17-49"/>
       <use transform="translate(45.690477 0)scale(0.996264)" xlink:href="#CMR17-53"/>
       <use transform="translate(91.380954 0)scale(0.996264)" xlink:href="#CMMI12-77"/>
      </g>
     </g>
    </g>
    <g id="xtick_5">
     <g id="line2d_5">
      <g>
       <use style="fill:#808080;stroke:#808080;stroke-width:0.8;" x="221.501528" xlink:href="#m4d273db772" y="131.411804"/>
      </g>
     </g>
     <g id="text_5">
      <!-- $20M$ -->
      <defs>
       <path d="M 41.703125 15.453125 
L 39.90625 15.453125 
C 38.90625 8.375 38.09375 7.171875 37.703125 6.5625 
C 37.203125 5.765625 30 5.765625 28.59375 5.765625 
L 9.40625 5.765625 
C 13 9.671875 20 16.75 28.5 24.953125 
C 34.59375 30.734375 41.703125 37.53125 41.703125 47.421875 
C 41.703125 59.21875 32.296875 66 21.796875 66 
C 10.796875 66 4.09375 56.3125 4.09375 47.34375 
C 4.09375 43.4375 7 42.9375 8.203125 42.9375 
C 9.203125 42.9375 12.203125 43.546875 12.203125 47.03125 
C 12.203125 50.109375 9.59375 51 8.203125 51 
C 7.59375 51 7 50.90625 6.59375 50.703125 
C 8.5 59.21875 14.296875 63.40625 20.40625 63.40625 
C 29.09375 63.40625 34.796875 56.515625 34.796875 47.421875 
C 34.796875 38.734375 29.703125 31.25 24 24.75 
L 4.09375 2.28125 
L 4.09375 0 
L 39.296875 0 
z
" id="CMR17-50"/>
      </defs>
      <g transform="translate(213.200945 143.946606)scale(0.08 -0.08)">
       <use transform="scale(0.996264)" xlink:href="#CMR17-50"/>
       <use transform="translate(45.690477 0)scale(0.996264)" xlink:href="#CMR17-48"/>
       <use transform="translate(91.380954 0)scale(0.996264)" xlink:href="#CMMI12-77"/>
      </g>
     </g>
    </g>
    <g id="text_6">
     <!-- Number of communicated data points -->
     <defs>
      <path d="M 22.90625 65.3125 
L 21.09375 69 
L 8.796875 69 
L 8.796875 0 
L 16.59375 0 
L 16.59375 61.34375 
L 16.703125 61.4375 
C 17.40625 59.640625 17.796875 58.75 21.90625 49.90625 
L 43.296875 3.6875 
L 45.09375 0 
L 57.40625 0 
L 57.40625 69 
L 49.59375 69 
L 49.59375 7.65625 
L 49.5 7.546875 
C 48.796875 9.34375 48.40625 10.234375 44.296875 19.078125 
z
" id="CMSS17-78"/>
      <path d="M 40.90625 42.796875 
L 33.296875 42.796875 
L 33.296875 15.1875 
C 33.296875 7.78125 27.90625 4.78125 22.203125 4.78125 
C 15.59375 4.78125 15 6.984375 15 11.078125 
L 15 42.796875 
L 7.40625 42.796875 
L 7.40625 10.59375 
C 7.40625 2.796875 10.09375 -1 17 -1 
C 20.40625 -1 28.09375 -0.203125 33.5 4.78125 
L 33.5 0 
L 40.90625 0 
z
" id="CMSS17-117"/>
      <path d="M 67 29.328125 
C 67 36.0625 65.296875 44 54.09375 44 
C 46.59375 44 42.09375 39.3125 40.09375 36.421875 
C 38.296875 41.71875 34.09375 44 28.09375 44 
C 21.296875 44 17 40.125 14.703125 37.328125 
L 14.703125 43.09375 
L 7.40625 43.09375 
L 7.40625 0 
L 15 0 
L 15 24.359375 
C 15 30.296875 17.203125 37.9375 24.296875 37.9375 
C 33.40625 37.9375 33.40625 31.5 33.40625 28.578125 
L 33.40625 0 
L 41 0 
L 41 24.359375 
C 41 30.296875 43.203125 37.9375 50.296875 37.9375 
C 59.40625 37.9375 59.40625 31.5 59.40625 28.578125 
L 59.40625 0 
L 67 0 
z
" id="CMSS17-109"/>
      <path d="M 14.90625 69 
L 7.5 69 
L 7.5 -0.203125 
L 15.09375 -0.203125 
L 15.09375 4.28125 
C 18.90625 0.59375 23.5 -1 27.59375 -1 
C 37.203125 -1 45 8.578125 45 21.125 
C 45 32.59375 39 43.0625 30.09375 43.0625 
C 23.796875 43.0625 18.203125 40.484375 14.90625 37.796875 
z
M 15.09375 31.96875 
C 17.296875 34.71875 20.40625 37 24.796875 37 
C 30.703125 37 37.40625 32.765625 37.40625 21.125 
C 37.40625 8.71875 29.40625 5.078125 23.90625 5.078125 
C 21.90625 5.078125 19.796875 5.5625 17.796875 7.25 
C 15.09375 9.609375 15.09375 11.078125 15.09375 12.453125 
z
" id="CMSS17-98"/>
      <path d="M 39.09375 21.515625 
C 39.09375 24.84375 38.90625 31.296875 35.703125 36.640625 
C 32.203125 42.390625 26.5 44 22.203125 44 
C 11.796875 44 3 34.1875 3 21.484375 
C 3 9.09375 12.09375 -1 23.59375 -1 
C 28.09375 -1 33.59375 0.296875 38.59375 3.875 
C 38.59375 4.28125 38.40625 6.46875 38.296875 6.5625 
C 38.296875 6.765625 38 9.84375 38 10.25 
C 33.203125 6.359375 27.703125 5.078125 23.703125 5.078125 
C 17.296875 5.078125 10.40625 10.421875 10.09375 21.515625 
z
M 10.90625 27 
C 12.203125 32.5625 16.59375 37.828125 22.203125 37.828125 
C 23.703125 37.828125 30.703125 37.828125 32.5 27 
z
" id="CMSS17-101"/>
      <path d="M 14.90625 21.296875 
C 14.90625 30.703125 21.796875 37 30.59375 37 
L 30.59375 43.578125 
C 24.203125 43.578125 18.203125 40.390625 14.59375 35.203125 
L 14.59375 43.09375 
L 7.5 43.09375 
L 7.5 0 
L 14.90625 0 
z
" id="CMSS17-114"/>
      <path d="M 44.203125 21.1875 
C 44.203125 34 34.703125 44 23.5 44 
C 12 44 2.703125 33.703125 2.703125 21.1875 
C 2.703125 8.5 12.296875 -1 23.40625 -1 
C 34.796875 -1 44.203125 8.796875 44.203125 21.1875 
z
M 23.5 5.265625 
C 16.40625 5.265625 10.296875 11.078125 10.296875 22 
C 10.296875 33.609375 17.40625 37.921875 23.40625 37.921875 
C 29.90625 37.921875 36.59375 33.21875 36.59375 22 
C 36.59375 10.671875 30.09375 5.265625 23.5 5.265625 
z
" id="CMSS17-111"/>
      <path d="M 16.796875 37 
L 26.90625 37 
L 26.90625 42.765625 
L 16.59375 42.765625 
L 16.59375 55.609375 
C 16.59375 62.71875 22 63.9375 25.09375 63.9375 
C 26.09375 63.9375 28.90625 63.9375 32.5 62.640625 
L 32.5 69.203125 
C 30.203125 69.703125 27.40625 70 25.203125 70 
C 15.90625 70 9.40625 62.390625 9.40625 52.484375 
L 9.40625 42.765625 
L 2.5 42.765625 
L 2.5 37 
L 9.40625 37 
L 9.40625 0 
L 16.796875 0 
z
" id="CMSS17-102"/>
      <path d="M 38.5 39.703125 
C 38.5 40.390625 33.90625 42.40625 32.703125 42.796875 
C 29.40625 44 25.203125 44 24.09375 44 
C 11.09375 44 3.296875 32.703125 3.296875 21.296875 
C 3.296875 9.296875 12 -1 23.703125 -1 
C 30.40625 -1 35.203125 1.1875 39.09375 3.78125 
L 38.5 10.375 
C 34.203125 7.078125 29.203125 5.265625 23.796875 5.265625 
C 16 5.265625 10.90625 12.09375 10.90625 21.390625 
C 10.90625 28.609375 14.203125 37.71875 24.203125 37.71875 
C 29.703125 37.71875 32.796875 36.609375 37.40625 33.515625 
z
" id="CMSS17-99"/>
      <path d="M 40.90625 29.328125 
C 40.90625 35.671875 39.40625 44 28.09375 44 
C 21.703125 44 17.5 40.71875 14.703125 37.328125 
L 14.703125 43.09375 
L 7.40625 43.09375 
L 7.40625 0 
L 15 0 
L 15 24.359375 
C 15 30.6875 17.40625 37.9375 24.203125 37.9375 
C 33 37.9375 33.296875 32 33.296875 28.578125 
L 33.296875 0 
L 40.90625 0 
z
" id="CMSS17-110"/>
      <path d="M 15.296875 65.359375 
L 6.90625 65.359375 
L 6.90625 57 
L 15.296875 57 
z
M 14.796875 42.796875 
L 7.40625 42.796875 
L 7.40625 0 
L 14.796875 0 
z
" id="CMSS17-105"/>
      <path d="M 37.59375 27.984375 
C 37.59375 37.375 30.90625 43.875 21.90625 43.875 
C 17.5 43.875 12.703125 43.078125 7.203125 39.890625 
L 7.796875 33.359375 
C 10.296875 35.125 14.59375 38 21.796875 38 
C 26.90625 38 30 34.0625 30 27.84375 
L 30 24 
C 14 24 4 19.34375 4 11.34375 
C 4 7.203125 6.5 -1 14.796875 -1 
C 16.296875 -1 24.40625 -1 30.203125 3.390625 
L 30.203125 -0.296875 
L 37.59375 -0.296875 
z
M 30 12.75 
C 30 10.953125 30 8.5625 27 6.78125 
C 24.40625 5.078125 21.09375 5.078125 19.703125 5.078125 
C 14.703125 5.078125 11.296875 7.984375 11.296875 11.625 
C 11.296875 18.921875 26.90625 18.921875 30 18.921875 
z
" id="CMSS17-97"/>
      <path d="M 16.703125 37 
L 29.703125 37 
L 29.703125 42.765625 
L 16.703125 42.765625 
L 16.703125 55 
L 9.59375 55 
L 9.59375 42.765625 
L 1.703125 42.765625 
L 1.703125 37 
L 9.40625 37 
L 9.40625 11.703125 
C 9.40625 6 10.703125 -1 17.296875 -1 
C 22.296875 -1 26.90625 0.390625 31.296875 2.6875 
L 29.703125 8.5625 
C 27.296875 6.46875 24.40625 5.265625 21.296875 5.265625 
C 16.90625 5.265625 16.703125 10.875 16.703125 13.375 
z
" id="CMSS17-116"/>
      <path d="M 40.796875 69 
L 33.40625 69 
L 33.40625 38.09375 
C 30.296875 40.671875 25.203125 43.0625 19.59375 43.0625 
C 10.5 43.0625 3.296875 33.296875 3.296875 21.046875 
C 3.296875 8.78125 10.40625 -1 19.296875 -1 
C 26.203125 -1 30.796875 2.6875 33.203125 4.78125 
L 33.203125 -0.203125 
L 40.796875 -0.203125 
z
M 33.203125 13.0625 
C 33.203125 11.671875 33.203125 10.203125 30.09375 7.53125 
C 28.09375 5.859375 25.703125 5.078125 23.40625 5.078125 
C 18 5.078125 10.90625 9 10.90625 20.9375 
C 10.90625 33.34375 18.90625 37 24.40625 37 
C 28.09375 37 31.09375 35.21875 33.203125 32.265625 
z
" id="CMSS17-100"/>
      <path d="M 15.09375 5.203125 
C 18.40625 2.015625 22.90625 -0.078125 27.703125 -0.078125 
C 37 -0.078125 45 9.421875 45 22.0625 
C 45 33.734375 39 44 30.40625 44 
C 25.40625 44 19.40625 42.21875 14.90625 38.625 
L 14.90625 43.203125 
L 7.5 43.203125 
L 7.5 -19 
L 15.09375 -19 
z
M 15.09375 32.8125 
C 15.90625 34 19.296875 37.734375 24.796875 37.734375 
C 31.796875 37.734375 37.40625 30.625 37.40625 22.0625 
C 37.40625 12.296875 30.59375 6 23.90625 6 
C 21.90625 6 19.796875 6.484375 17.796875 8.171875 
C 15.09375 10.53125 15.09375 12 15.09375 13.390625 
z
" id="CMSS17-112"/>
      <path d="M 32.203125 41.046875 
C 26.296875 43.859375 21.703125 43.859375 18.703125 43.859375 
C 11.59375 43.859375 3.09375 41.375 3.09375 31.296875 
C 3.09375 21.234375 14.09375 19.03125 17.09375 18.421875 
C 21.703125 17.53125 26.796875 16.53125 26.796875 11.5625 
C 26.796875 5.265625 19.59375 5.265625 18.296875 5.265625 
C 14.296875 5.265625 8.796875 6.359375 3.796875 9.96875 
L 2.59375 3.28125 
C 8.296875 0 13.796875 -1 18.40625 -1 
C 30.703125 -1 33.796875 6.5 33.796875 12.203125 
C 33.796875 17.09375 31 20.390625 29.09375 21.890625 
C 25.796875 24.5 24.59375 24.796875 16.40625 26.5 
C 15 26.703125 10.09375 27.796875 10.09375 32.28125 
C 10.09375 38 16.40625 38 17.796875 38 
C 24.296875 38 28.296875 35.984375 31 34.5 
z
" id="CMSS17-115"/>
     </defs>
     <g transform="translate(60.671822 155.031153)scale(0.08 -0.08)">
      <use transform="scale(0.996264)" xlink:href="#CMSS17-78"/>
      <use transform="translate(66.061519 0)scale(0.996264)" xlink:href="#CMSS17-117"/>
      <use transform="translate(114.266462 0)scale(0.996264)" xlink:href="#CMSS17-109"/>
      <use transform="translate(188.495717 0)scale(0.996264)" xlink:href="#CMSS17-98"/>
      <use transform="translate(239.303099 0)scale(0.996264)" xlink:href="#CMSS17-101"/>
      <use transform="translate(280.941921 0)scale(0.996264)" xlink:href="#CMSS17-114"/>
      <use transform="translate(344.080806 0)scale(0.996264)" xlink:href="#CMSS17-111"/>
      <use transform="translate(390.92443 0)scale(0.996264)" xlink:href="#CMSS17-102"/>
      <use transform="translate(450.780201 0)scale(0.996264)" xlink:href="#CMSS17-99"/>
      <use transform="translate(492.419023 0)scale(0.996264)" xlink:href="#CMSS17-111"/>
      <use transform="translate(539.262647 0)scale(0.996264)" xlink:href="#CMSS17-109"/>
      <use transform="translate(613.491901 0)scale(0.996264)" xlink:href="#CMSS17-109"/>
      <use transform="translate(687.721156 0)scale(0.996264)" xlink:href="#CMSS17-117"/>
      <use transform="translate(735.926099 0)scale(0.996264)" xlink:href="#CMSS17-110"/>
      <use transform="translate(784.131042 0)scale(0.996264)" xlink:href="#CMSS17-105"/>
      <use transform="translate(806.311765 0)scale(0.996264)" xlink:href="#CMSS17-99"/>
      <use transform="translate(847.950587 0)scale(0.996264)" xlink:href="#CMSS17-97"/>
      <use transform="translate(892.872508 0)scale(0.996264)" xlink:href="#CMSS17-116"/>
      <use transform="translate(926.704074 0)scale(0.996264)" xlink:href="#CMSS17-101"/>
      <use transform="translate(968.342896 0)scale(0.996264)" xlink:href="#CMSS17-100"/>
      <use transform="translate(1047.776952 0)scale(0.996264)" xlink:href="#CMSS17-100"/>
      <use transform="translate(1095.981895 0)scale(0.996264)" xlink:href="#CMSS17-97"/>
      <use transform="translate(1140.903816 0)scale(0.996264)" xlink:href="#CMSS17-116"/>
      <use transform="translate(1174.735383 0)scale(0.996264)" xlink:href="#CMSS17-97"/>
      <use transform="translate(1250.886416 0)scale(0.996264)" xlink:href="#CMSS17-112"/>
      <use transform="translate(1301.693798 0)scale(0.996264)" xlink:href="#CMSS17-111"/>
      <use transform="translate(1348.537421 0)scale(0.996264)" xlink:href="#CMSS17-105"/>
      <use transform="translate(1370.718144 0)scale(0.996264)" xlink:href="#CMSS17-110"/>
      <use transform="translate(1418.923087 0)scale(0.996264)" xlink:href="#CMSS17-116"/>
      <use transform="translate(1452.754654 0)scale(0.996264)" xlink:href="#CMSS17-115"/>
     </g>
    </g>
   </g>
   <g id="matplotlib.axis_2">
    <g id="ytick_1">
     <g id="line2d_6">
      <defs>
       <path d="M 0 0 
L -3.5 0 
" id="m05283be603" style="stroke:#808080;stroke-width:0.8;"/>
      </defs>
      <g>
       <use style="fill:#808080;stroke:#808080;stroke-width:0.8;" x="34.638478" xlink:href="#m05283be603" y="131.411804"/>
      </g>
     </g>
     <g id="text_7">
      <!-- $0$ -->
      <g transform="translate(23.404295 134.179205)scale(0.08 -0.08)">
       <use transform="scale(0.996264)" xlink:href="#CMR17-48"/>
      </g>
     </g>
    </g>
    <g id="ytick_2">
     <g id="line2d_7">
      <g>
       <use style="fill:#808080;stroke:#808080;stroke-width:0.8;" x="34.638478" xlink:href="#m05283be603" y="101.233853"/>
      </g>
     </g>
     <g id="text_8">
      <!-- $4$ -->
      <defs>
       <path d="M 33.59375 64.40625 
C 33.59375 66.5 33.5 66.5 31.703125 66.5 
L 2 19.59375 
L 2 17 
L 27.796875 17 
L 27.796875 7.140625 
C 27.796875 3.5 27.59375 2.5 20.59375 2.5 
L 18.703125 2.5 
L 18.703125 0 
C 21.90625 0 27.296875 0 30.703125 0 
C 34.09375 0 39.5 0 42.703125 0 
L 42.703125 2.5 
L 40.796875 2.5 
C 33.796875 2.5 33.59375 3.5 33.59375 7.140625 
L 33.59375 17 
L 43.796875 17 
L 43.796875 19.59375 
L 33.59375 19.59375 
z
M 28.09375 57.859375 
L 28.09375 19.59375 
L 4 19.59375 
z
" id="CMR17-52"/>
      </defs>
      <g transform="translate(23.404295 104.001254)scale(0.08 -0.08)">
       <use transform="scale(0.996264)" xlink:href="#CMR17-52"/>
      </g>
     </g>
    </g>
    <g id="ytick_3">
     <g id="line2d_8">
      <g>
       <use style="fill:#808080;stroke:#808080;stroke-width:0.8;" x="34.638478" xlink:href="#m05283be603" y="71.055902"/>
      </g>
     </g>
     <g id="text_9">
      <!-- $8$ -->
      <defs>
       <path d="M 27.203125 35.375 
C 33.5 38.546875 39.90625 43.328125 39.90625 50.984375 
C 39.90625 60.015625 31.09375 65.296875 23 65.296875 
C 13.90625 65.296875 5.90625 58.734375 5.90625 49.6875 
C 5.90625 47.203125 6.5 42.921875 10.40625 39.140625 
C 11.40625 38.15625 15.59375 35.171875 18.296875 33.28125 
C 13.796875 30.984375 3.296875 25.53125 3.296875 14.59375 
C 3.296875 4.359375 13.09375 -2 22.796875 -2 
C 33.5 -2 42.5 5.65625 42.5 15.78125 
C 42.5 24.84375 36.40625 29.015625 32.40625 31.703125 
z
M 14.09375 44.09375 
C 13.296875 44.59375 9.296875 47.671875 9.296875 52.359375 
C 9.296875 58.421875 15.59375 63 22.796875 63 
C 30.703125 63 36.5 57.4375 36.5 50.96875 
C 36.5 41.703125 26.09375 36.421875 25.59375 36.421875 
C 25.5 36.421875 25.40625 36.421875 24.59375 37.03125 
z
M 32.5 23.734375 
C 34 22.640625 38.796875 19.375 38.796875 13.296875 
C 38.796875 5.953125 31.40625 0.390625 23 0.390625 
C 13.90625 0.390625 7 6.84375 7 14.6875 
C 7 22.546875 13.09375 29.09375 20 32.1875 
z
" id="CMR17-56"/>
      </defs>
      <g transform="translate(23.404295 73.823303)scale(0.08 -0.08)">
       <use transform="scale(0.996264)" xlink:href="#CMR17-56"/>
      </g>
     </g>
    </g>
    <g id="ytick_4">
     <g id="line2d_9">
      <g>
       <use style="fill:#808080;stroke:#808080;stroke-width:0.8;" x="34.638478" xlink:href="#m05283be603" y="40.877951"/>
      </g>
     </g>
     <g id="text_10">
      <!-- $12$ -->
      <g transform="translate(19.170112 43.645352)scale(0.08 -0.08)">
       <use transform="scale(0.996264)" xlink:href="#CMR17-49"/>
       <use transform="translate(45.690477 0)scale(0.996264)" xlink:href="#CMR17-50"/>
      </g>
     </g>
    </g>
    <g id="ytick_5">
     <g id="line2d_10">
      <g>
       <use style="fill:#808080;stroke:#808080;stroke-width:0.8;" x="34.638478" xlink:href="#m05283be603" y="10.7"/>
      </g>
     </g>
     <g id="text_11">
      <!-- $16$ -->
      <defs>
       <path d="M 10.59375 34 
C 10.59375 57.65625 21.796875 63 28.296875 63 
C 30.40625 63 35.5 62.640625 37.5 59 
C 35.90625 59 32.90625 59 32.90625 55.515625 
C 32.90625 52.828125 35.09375 51.921875 36.5 51.921875 
C 37.40625 51.921875 40.09375 52.3125 40.09375 55.625 
C 40.09375 61.78125 35.09375 65.296875 28.203125 65.296875 
C 16.296875 65.296875 3.796875 52.96875 3.796875 31 
C 3.796875 3.953125 15.09375 -2 23.09375 -2 
C 32.796875 -2 42 6.671875 42 20.046875 
C 42 32.515625 33.90625 41.59375 23.703125 41.59375 
C 17.59375 41.59375 13.09375 37.609375 10.59375 30.625 
z
M 23.09375 0.390625 
C 10.796875 0.390625 10.796875 18.75 10.796875 22.4375 
C 10.796875 29.625 14.203125 40 23.5 40 
C 25.203125 40 30.09375 40 33.40625 33.125 
C 35.203125 29.21875 35.203125 25.140625 35.203125 20.140625 
C 35.203125 14.75 35.203125 10.78125 33.09375 6.78125 
C 30.90625 2.671875 27.703125 0.390625 23.09375 0.390625 
z
" id="CMR17-54"/>
      </defs>
      <g transform="translate(19.170112 13.467401)scale(0.08 -0.08)">
       <use transform="scale(0.996264)" xlink:href="#CMR17-49"/>
       <use transform="translate(45.690477 0)scale(0.996264)" xlink:href="#CMR17-54"/>
      </g>
     </g>
    </g>
    <g id="text_12">
     <!-- Computation time (seconds) -->
     <defs>
      <path d="M 54.703125 11.15625 
C 48 6.671875 44.90625 5.375 36.796875 5.375 
C 22.796875 5.375 14.59375 20.359375 14.59375 34.046875 
C 14.59375 48.625 23 63 37.203125 63 
C 43.59375 63 47.796875 61.21875 52.90625 58.046875 
L 54.296875 65.890625 
C 49.5 68.28125 43.40625 69.375 37.296875 69.375 
C 18.09375 69.375 6.203125 51.8125 6.203125 34.046875 
C 6.203125 14.484375 20.296875 -1 36.296875 -1 
C 44.90625 -1 47.90625 -0.296875 55.296875 4.375 
z
" id="CMSS17-67"/>
      <path d="M 25.203125 74.5 
C 19.796875 69.015625 7.40625 56.265625 7.40625 24.8125 
C 7.40625 -6.765625 19.796875 -19.421875 25.203125 -25 
L 31.296875 -25 
C 19 -12.25 15 5.578125 15 24.703125 
C 15 43.71875 18.796875 61.65625 31.296875 74.5 
z
" id="CMSS17-40"/>
      <path d="M 11.296875 -25 
C 16.703125 -19.515625 29.09375 -6.765625 29.09375 24.703125 
C 29.09375 56.265625 16.703125 68.921875 11.296875 74.5 
L 5.203125 74.5 
C 17.5 61.75 21.5 43.921875 21.5 24.8125 
C 21.5 5.78125 17.703125 -12.15625 5.203125 -25 
z
" id="CMSS17-41"/>
     </defs>
     <g transform="translate(13.177584 121.417743)rotate(-90)scale(0.08 -0.08)">
      <use transform="scale(0.996264)" xlink:href="#CMSS17-67"/>
      <use transform="translate(59.855772 0)scale(0.996264)" xlink:href="#CMSS17-111"/>
      <use transform="translate(106.699395 0)scale(0.996264)" xlink:href="#CMSS17-109"/>
      <use transform="translate(180.92865 0)scale(0.996264)" xlink:href="#CMSS17-112"/>
      <use transform="translate(229.133593 0)scale(0.996264)" xlink:href="#CMSS17-117"/>
      <use transform="translate(277.338536 0)scale(0.996264)" xlink:href="#CMSS17-116"/>
      <use transform="translate(311.170102 0)scale(0.996264)" xlink:href="#CMSS17-97"/>
      <use transform="translate(356.092023 0)scale(0.996264)" xlink:href="#CMSS17-116"/>
      <use transform="translate(389.92359 0)scale(0.996264)" xlink:href="#CMSS17-105"/>
      <use transform="translate(412.104313 0)scale(0.996264)" xlink:href="#CMSS17-111"/>
      <use transform="translate(458.947936 0)scale(0.996264)" xlink:href="#CMSS17-110"/>
      <use transform="translate(538.381992 0)scale(0.996264)" xlink:href="#CMSS17-116"/>
      <use transform="translate(572.213559 0)scale(0.996264)" xlink:href="#CMSS17-105"/>
      <use transform="translate(594.394282 0)scale(0.996264)" xlink:href="#CMSS17-109"/>
      <use transform="translate(668.623536 0)scale(0.996264)" xlink:href="#CMSS17-101"/>
      <use transform="translate(741.491471 0)scale(0.996264)" xlink:href="#CMSS17-40"/>
      <use transform="translate(777.925385 0)scale(0.996264)" xlink:href="#CMSS17-115"/>
      <use transform="translate(813.838927 0)scale(0.996264)" xlink:href="#CMSS17-101"/>
      <use transform="translate(855.477749 0)scale(0.996264)" xlink:href="#CMSS17-99"/>
      <use transform="translate(897.116572 0)scale(0.996264)" xlink:href="#CMSS17-111"/>
      <use transform="translate(943.960195 0)scale(0.996264)" xlink:href="#CMSS17-110"/>
      <use transform="translate(992.165138 0)scale(0.996264)" xlink:href="#CMSS17-100"/>
      <use transform="translate(1040.370081 0)scale(0.996264)" xlink:href="#CMSS17-115"/>
      <use transform="translate(1076.283623 0)scale(0.996264)" xlink:href="#CMSS17-41"/>
     </g>
    </g>
   </g>
   <g id="line2d_11">
    <path d="M 34.666507 131.396715 
L 34.685081 131.381626 
L 34.715989 131.351448 
L 34.767367 131.32127 
L 34.852819 131.276004 
L 34.994919 131.18547 
L 35.231226 131.042124 
L 35.62418 130.755434 
L 36.27765 130.29522 
L 37.364315 129.601127 
L 39.171383 128.492088 
L 42.17643 126.439987 
L 47.173625 123.218491 
L 55.483668 117.695926 
L 69.302751 109.404533 
L 92.283047 93.644099 
L 130.497868 70.173197 
L 194.046778 29.485775 
" style="fill:none;stroke:#7262ac;stroke-dasharray:2.775,1.2;stroke-dashoffset:0;stroke-width:0.75;"/>
    <defs>
     <path d="M -0 2.12132 
L 2.12132 0 
L 0 -2.12132 
L -2.12132 -0 
z
" id="m322454be75" style="stroke:#7262ac;stroke-linejoin:miter;"/>
    </defs>
    <g>
     <use style="fill:#7262ac;stroke:#7262ac;stroke-linejoin:miter;" x="34.666507" xlink:href="#m322454be75" y="131.396715"/>
     <use style="fill:#7262ac;stroke:#7262ac;stroke-linejoin:miter;" x="34.685081" xlink:href="#m322454be75" y="131.381626"/>
     <use style="fill:#7262ac;stroke:#7262ac;stroke-linejoin:miter;" x="34.715989" xlink:href="#m322454be75" y="131.351448"/>
     <use style="fill:#7262ac;stroke:#7262ac;stroke-linejoin:miter;" x="34.767367" xlink:href="#m322454be75" y="131.32127"/>
     <use style="fill:#7262ac;stroke:#7262ac;stroke-linejoin:miter;" x="34.852819" xlink:href="#m322454be75" y="131.276004"/>
     <use style="fill:#7262ac;stroke:#7262ac;stroke-linejoin:miter;" x="34.994919" xlink:href="#m322454be75" y="131.18547"/>
     <use style="fill:#7262ac;stroke:#7262ac;stroke-linejoin:miter;" x="35.231226" xlink:href="#m322454be75" y="131.042124"/>
     <use style="fill:#7262ac;stroke:#7262ac;stroke-linejoin:miter;" x="35.62418" xlink:href="#m322454be75" y="130.755434"/>
     <use style="fill:#7262ac;stroke:#7262ac;stroke-linejoin:miter;" x="36.27765" xlink:href="#m322454be75" y="130.29522"/>
     <use style="fill:#7262ac;stroke:#7262ac;stroke-linejoin:miter;" x="37.364315" xlink:href="#m322454be75" y="129.601127"/>
     <use style="fill:#7262ac;stroke:#7262ac;stroke-linejoin:miter;" x="39.171383" xlink:href="#m322454be75" y="128.492088"/>
     <use style="fill:#7262ac;stroke:#7262ac;stroke-linejoin:miter;" x="42.17643" xlink:href="#m322454be75" y="126.439987"/>
     <use style="fill:#7262ac;stroke:#7262ac;stroke-linejoin:miter;" x="47.173625" xlink:href="#m322454be75" y="123.218491"/>
     <use style="fill:#7262ac;stroke:#7262ac;stroke-linejoin:miter;" x="55.483668" xlink:href="#m322454be75" y="117.695926"/>
     <use style="fill:#7262ac;stroke:#7262ac;stroke-linejoin:miter;" x="69.302751" xlink:href="#m322454be75" y="109.404533"/>
     <use style="fill:#7262ac;stroke:#7262ac;stroke-linejoin:miter;" x="92.283047" xlink:href="#m322454be75" y="93.644099"/>
     <use style="fill:#7262ac;stroke:#7262ac;stroke-linejoin:miter;" x="130.497868" xlink:href="#m322454be75" y="70.173197"/>
     <use style="fill:#7262ac;stroke:#7262ac;stroke-linejoin:miter;" x="194.046778" xlink:href="#m322454be75" y="29.485775"/>
    </g>
   </g>
   <g id="line2d_12">
    <path d="M 34.666507 131.389171 
L 34.685081 131.381626 
L 34.715989 131.374082 
L 34.767367 131.343904 
L 34.852819 131.298637 
L 34.994919 131.230737 
L 35.231226 131.042124 
L 35.62418 130.906324 
L 36.27765 130.589455 
L 37.364315 130.00853 
L 39.171383 129.163547 
L 42.17643 127.715005 
L 47.173625 124.878278 
L 55.483668 120.894788 
L 69.302751 114.481974 
L 92.283047 102.493783 
L 130.497868 84.205944 
L 194.046778 49.674824 
" style="fill:none;stroke:#9e9ac8;stroke-dasharray:2.775,1.2;stroke-dashoffset:0;stroke-width:0.75;"/>
    <defs>
     <path d="M -0 2.12132 
L 1.272792 0 
L 0 -2.12132 
L -1.272792 -0 
z
" id="mef7ba470b3" style="stroke:#9e9ac8;stroke-linejoin:miter;"/>
    </defs>
    <g>
     <use style="fill:#9e9ac8;stroke:#9e9ac8;stroke-linejoin:miter;" x="34.666507" xlink:href="#mef7ba470b3" y="131.389171"/>
     <use style="fill:#9e9ac8;stroke:#9e9ac8;stroke-linejoin:miter;" x="34.685081" xlink:href="#mef7ba470b3" y="131.381626"/>
     <use style="fill:#9e9ac8;stroke:#9e9ac8;stroke-linejoin:miter;" x="34.715989" xlink:href="#mef7ba470b3" y="131.374082"/>
     <use style="fill:#9e9ac8;stroke:#9e9ac8;stroke-linejoin:miter;" x="34.767367" xlink:href="#mef7ba470b3" y="131.343904"/>
     <use style="fill:#9e9ac8;stroke:#9e9ac8;stroke-linejoin:miter;" x="34.852819" xlink:href="#mef7ba470b3" y="131.298637"/>
     <use style="fill:#9e9ac8;stroke:#9e9ac8;stroke-linejoin:miter;" x="34.994919" xlink:href="#mef7ba470b3" y="131.230737"/>
     <use style="fill:#9e9ac8;stroke:#9e9ac8;stroke-linejoin:miter;" x="35.231226" xlink:href="#mef7ba470b3" y="131.042124"/>
     <use style="fill:#9e9ac8;stroke:#9e9ac8;stroke-linejoin:miter;" x="35.62418" xlink:href="#mef7ba470b3" y="130.906324"/>
     <use style="fill:#9e9ac8;stroke:#9e9ac8;stroke-linejoin:miter;" x="36.27765" xlink:href="#mef7ba470b3" y="130.589455"/>
     <use style="fill:#9e9ac8;stroke:#9e9ac8;stroke-linejoin:miter;" x="37.364315" xlink:href="#mef7ba470b3" y="130.00853"/>
     <use style="fill:#9e9ac8;stroke:#9e9ac8;stroke-linejoin:miter;" x="39.171383" xlink:href="#mef7ba470b3" y="129.163547"/>
     <use style="fill:#9e9ac8;stroke:#9e9ac8;stroke-linejoin:miter;" x="42.17643" xlink:href="#mef7ba470b3" y="127.715005"/>
     <use style="fill:#9e9ac8;stroke:#9e9ac8;stroke-linejoin:miter;" x="47.173625" xlink:href="#mef7ba470b3" y="124.878278"/>
     <use style="fill:#9e9ac8;stroke:#9e9ac8;stroke-linejoin:miter;" x="55.483668" xlink:href="#mef7ba470b3" y="120.894788"/>
     <use style="fill:#9e9ac8;stroke:#9e9ac8;stroke-linejoin:miter;" x="69.302751" xlink:href="#mef7ba470b3" y="114.481974"/>
     <use style="fill:#9e9ac8;stroke:#9e9ac8;stroke-linejoin:miter;" x="92.283047" xlink:href="#mef7ba470b3" y="102.493783"/>
     <use style="fill:#9e9ac8;stroke:#9e9ac8;stroke-linejoin:miter;" x="130.497868" xlink:href="#mef7ba470b3" y="84.205944"/>
     <use style="fill:#9e9ac8;stroke:#9e9ac8;stroke-linejoin:miter;" x="194.046778" xlink:href="#mef7ba470b3" y="49.674824"/>
    </g>
   </g>
   <g id="patch_3">
    <path d="M 34.638478 131.411804 
L 34.638478 10.7 
" style="fill:none;stroke:#808080;stroke-linecap:square;stroke-linejoin:miter;stroke-width:0.5;"/>
   </g>
   <g id="patch_4">
    <path d="M 34.638478 131.411804 
L 221.501528 131.411804 
" style="fill:none;stroke:#808080;stroke-linecap:square;stroke-linejoin:miter;stroke-width:0.5;"/>
   </g>
   <g id="legend_1">
    <g id="patch_5">
     <path d="M 40.238478 39.399491 
L 102.977511 39.399491 
Q 104.577511 39.399491 104.577511 37.799491 
L 104.577511 16.3 
Q 104.577511 14.7 102.977511 14.7 
L 40.238478 14.7 
Q 38.638478 14.7 38.638478 16.3 
L 38.638478 37.799491 
Q 38.638478 39.399491 40.238478 39.399491 
z
" style="fill:#ffffff;opacity:0.8;stroke:#cccccc;stroke-linejoin:miter;"/>
    </g>
    <g id="line2d_13">
     <path d="M 41.838478 20.7 
L 57.838478 20.7 
" style="fill:none;stroke:#7262ac;stroke-dasharray:2.775,1.2;stroke-dashoffset:0;stroke-width:0.75;"/>
    </g>
    <g id="line2d_14">
     <g>
      <use style="fill:#7262ac;stroke:#7262ac;stroke-linejoin:miter;" x="49.838478" xlink:href="#m322454be75" y="20.7"/>
     </g>
    </g>
    <g id="text_13">
     <!-- Protocol 2 -->
     <defs>
      <path d="M 32.90625 29 
C 44.90625 29 54.703125 38.328125 54.703125 49.34375 
C 54.703125 60.15625 45.296875 69.578125 32.296875 69.578125 
L 8.90625 69.578125 
L 8.90625 0 
L 17.296875 0 
L 17.296875 29 
z
M 30.09375 64 
C 41.703125 64 46.796875 56.671875 46.796875 49.328125 
C 46.796875 42.5 42.09375 34.78125 30.09375 34.78125 
L 17.09375 34.78125 
L 17.09375 64 
z
" id="CMSS17-80"/>
      <path d="M 14.796875 69 
L 7.40625 69 
L 7.40625 0 
L 14.796875 0 
z
" id="CMSS17-108"/>
      <path d="M 25.796875 21.203125 
C 28.59375 24.078125 32.796875 27.5625 35.703125 31.046875 
C 38.5 34.4375 42.203125 39.234375 42.203125 46.203125 
C 42.203125 57.140625 34.796875 67 22.203125 67 
C 12.296875 67 6.59375 60.828125 3.90625 51.15625 
L 7.796875 45.765625 
C 10 54.84375 13.09375 60.625 20.90625 60.625 
C 29.5 60.625 34.296875 53.640625 34.296875 45.96875 
C 34.296875 36.796875 27.296875 29.703125 22 24.421875 
C 16.09375 18.546875 10.296875 12.5625 4.703125 6.375 
L 4.703125 0 
L 42.203125 0 
L 42.203125 6.765625 
L 25.203125 6.765625 
C 24 6.765625 22.796875 6.765625 21.59375 6.765625 
L 11.59375 6.765625 
L 11.59375 6.859375 
z
" id="CMSS17-50"/>
     </defs>
     <g transform="translate(64.238478 23.5)scale(0.08 -0.08)">
      <use transform="scale(0.996264)" xlink:href="#CMSS17-80"/>
      <use transform="translate(59.735586 0)scale(0.996264)" xlink:href="#CMSS17-114"/>
      <use transform="translate(91.645359 0)scale(0.996264)" xlink:href="#CMSS17-111"/>
      <use transform="translate(138.488982 0)scale(0.996264)" xlink:href="#CMSS17-116"/>
      <use transform="translate(172.320549 0)scale(0.996264)" xlink:href="#CMSS17-111"/>
      <use transform="translate(221.766611 0)scale(0.996264)" xlink:href="#CMSS17-99"/>
      <use transform="translate(263.405433 0)scale(0.996264)" xlink:href="#CMSS17-111"/>
      <use transform="translate(310.249057 0)scale(0.996264)" xlink:href="#CMSS17-108"/>
      <use transform="translate(363.658893 0)scale(0.996264)" xlink:href="#CMSS17-50"/>
     </g>
    </g>
    <g id="line2d_15">
     <path d="M 41.838478 31.849746 
L 57.838478 31.849746 
" style="fill:none;stroke:#9e9ac8;stroke-dasharray:2.775,1.2;stroke-dashoffset:0;stroke-width:0.75;"/>
    </g>
    <g id="line2d_16">
     <g>
      <use style="fill:#9e9ac8;stroke:#9e9ac8;stroke-linejoin:miter;" x="49.838478" xlink:href="#mef7ba470b3" y="31.849746"/>
     </g>
    </g>
    <g id="text_14">
     <!-- Protocol 1 -->
     <defs>
      <path d="M 28.40625 67 
L 26.5 67 
C 21.09375 61.5625 14.796875 60.78125 8.40625 60.78125 
L 8.40625 55 
C 11.296875 55 16 55 20.703125 57.296875 
L 20.703125 5.765625 
L 8.90625 5.765625 
L 8.90625 0 
L 40.203125 0 
L 40.203125 5.765625 
L 28.40625 5.765625 
z
" id="CMSS17-49"/>
     </defs>
     <g transform="translate(64.238478 34.649746)scale(0.08 -0.08)">
      <use transform="scale(0.996264)" xlink:href="#CMSS17-80"/>
      <use transform="translate(59.735586 0)scale(0.996264)" xlink:href="#CMSS17-114"/>
      <use transform="translate(91.645359 0)scale(0.996264)" xlink:href="#CMSS17-111"/>
      <use transform="translate(138.488982 0)scale(0.996264)" xlink:href="#CMSS17-116"/>
      <use transform="translate(172.320549 0)scale(0.996264)" xlink:href="#CMSS17-111"/>
      <use transform="translate(221.766611 0)scale(0.996264)" xlink:href="#CMSS17-99"/>
      <use transform="translate(263.405433 0)scale(0.996264)" xlink:href="#CMSS17-111"/>
      <use transform="translate(310.249057 0)scale(0.996264)" xlink:href="#CMSS17-108"/>
      <use transform="translate(363.658893 0)scale(0.996264)" xlink:href="#CMSS17-49"/>
     </g>
    </g>
   </g>
  </g>
 </g>
</svg>
