<?xml version="1.0" encoding="utf-8" standalone="no"?>
<!DOCTYPE svg PUBLIC "-//W3C//DTD SVG 1.1//EN"
  "http://www.w3.org/Graphics/SVG/1.1/DTD/svg11.dtd">
<!-- Created with matplotlib (https://matplotlib.org/) -->
<svg height="155.594543pt" version="1.1" viewBox="0 0 477.986112 155.594543" width="477.986112pt" xmlns="http://www.w3.org/2000/svg" xmlns:xlink="http://www.w3.org/1999/xlink">
 <defs>
  <style type="text/css">
*{stroke-linecap:butt;stroke-linejoin:round;}
  </style>
 </defs>
 <g id="figure_1">
  <g id="patch_1">
   <path d="M 0 155.594543 
L 477.986112 155.594543 
L 477.986112 0 
L 0 0 
z
" style="fill:#ffffff;"/>
  </g>
  <g id="axes_1">
   <g id="patch_2">
    <path d="M 34.638478 111.915725 
L 220.191771 111.915725 
L 220.191771 10.7 
L 34.638478 10.7 
z
" style="fill:#ffffff;"/>
   </g>
   <g id="matplotlib.axis_1">
    <g id="xtick_1">
     <g id="line2d_1">
      <defs>
       <path d="M 0 0 
L 0 3.5 
" id="m5d4b163a86" style="stroke:#808080;stroke-width:0.8;"/>
      </defs>
      <g>
       <use style="fill:#808080;stroke:#808080;stroke-width:0.8;" x="34.638478" xlink:href="#m5d4b163a86" y="111.915725"/>
      </g>
     </g>
     <g id="text_1">
      <!-- $1k$ -->
      <defs>
       <path d="M 26.59375 63.40625 
C 26.59375 65.5 26.5 65.5 25.09375 65.5 
C 21.203125 61.1875 15.296875 59.796875 9.703125 59.796875 
C 9.40625 59.796875 8.90625 59.796875 8.796875 59.5 
C 8.703125 59.296875 8.703125 59.09375 8.703125 57 
C 11.796875 57 17 57.59375 21 59.984375 
L 21 7.203125 
C 21 3.6875 20.796875 2.5 12.203125 2.5 
L 9.203125 2.5 
L 9.203125 0 
C 14 0 19 0 23.796875 0 
C 28.59375 0 33.59375 0 38.40625 0 
L 38.40625 2.5 
L 35.40625 2.5 
C 26.796875 2.5 26.59375 3.59375 26.59375 7.15625 
z
" id="CMR17-49"/>
       <path d="M 28.09375 66.515625 
C 28.203125 66.921875 28.40625 67.515625 28.40625 68 
C 28.40625 69 27.40625 69 27.203125 69 
C 27.09375 69 23.5 68.640625 21.703125 68.390625 
C 20 68.390625 18.5 68.09375 16.703125 68.09375 
C 14.296875 67.890625 13.59375 67.796875 13.59375 66 
C 13.59375 65 14.59375 65 15.59375 65 
C 20.703125 65 20.703125 64.109375 20.703125 63.125 
C 20.703125 62.734375 20.703125 62.53125 20.203125 60.75 
L 5.90625 3.875 
C 5.5 2.375 5.5 2.1875 5.5 1.578125 
C 5.5 -0.59375 7.203125 -1 8.203125 -1 
C 11 -1 11.59375 1.203125 12.40625 4.296875 
L 17.09375 22.953125 
C 24.296875 22.15625 28.59375 19.15625 28.59375 14.375 
C 28.59375 13.765625 28.59375 13.375 28.296875 11.875 
C 27.90625 10.375 27.90625 9.1875 27.90625 8.6875 
C 27.90625 2.890625 31.703125 -1 36.796875 -1 
C 41.40625 -1 43.796875 3.1875 44.59375 4.59375 
C 46.703125 8.28125 48 13.875 48 14.265625 
C 48 14.765625 47.59375 15.171875 47 15.171875 
C 46.09375 15.171875 46 14.765625 45.59375 13.171875 
C 44.203125 7.984375 42.09375 1 37 1 
C 35 1 33.703125 2 33.703125 5.78125 
C 33.703125 7.6875 34.09375 9.875 34.5 11.375 
C 34.90625 13.171875 34.90625 13.265625 34.90625 14.46875 
C 34.90625 20.359375 29.59375 23.65625 20.40625 24.84375 
C 24 27.046875 27.59375 30.9375 29 32.4375 
C 34.703125 38.8125 38.59375 42.015625 43.203125 42.015625 
C 45.5 42.015625 46.09375 41.40625 46.796875 40.8125 
C 43.09375 40.40625 41.703125 37.8125 41.703125 35.828125 
C 41.703125 33.421875 43.59375 32.625 45 32.625 
C 47.703125 32.625 50.09375 34.921875 50.09375 38.125 
C 50.09375 41.015625 47.796875 44 43.296875 44 
C 37.796875 44 33.296875 40.109375 26.203125 32.125 
C 25.203125 30.9375 21.5 27.140625 17.796875 25.75 
z
" id="CMMI12-107"/>
      </defs>
      <g transform="translate(30.316664 124.450527)scale(0.08 -0.08)">
       <use transform="scale(0.996264)" xlink:href="#CMR17-49"/>
       <use transform="translate(45.690477 0)scale(0.996264)" xlink:href="#CMMI12-107"/>
      </g>
     </g>
    </g>
    <g id="xtick_2">
     <g id="line2d_2">
      <g>
       <use style="fill:#808080;stroke:#808080;stroke-width:0.8;" x="52.354621" xlink:href="#m5d4b163a86" y="111.915725"/>
      </g>
     </g>
     <g id="text_2">
      <!-- $20k$ -->
      <defs>
       <path d="M 41.703125 15.453125 
L 39.90625 15.453125 
C 38.90625 8.375 38.09375 7.171875 37.703125 6.5625 
C 37.203125 5.765625 30 5.765625 28.59375 5.765625 
L 9.40625 5.765625 
C 13 9.671875 20 16.75 28.5 24.953125 
C 34.59375 30.734375 41.703125 37.53125 41.703125 47.421875 
C 41.703125 59.21875 32.296875 66 21.796875 66 
C 10.796875 66 4.09375 56.3125 4.09375 47.34375 
C 4.09375 43.4375 7 42.9375 8.203125 42.9375 
C 9.203125 42.9375 12.203125 43.546875 12.203125 47.03125 
C 12.203125 50.109375 9.59375 51 8.203125 51 
C 7.59375 51 7 50.90625 6.59375 50.703125 
C 8.5 59.21875 14.296875 63.40625 20.40625 63.40625 
C 29.09375 63.40625 34.796875 56.515625 34.796875 47.421875 
C 34.796875 38.734375 29.703125 31.25 24 24.75 
L 4.09375 2.28125 
L 4.09375 0 
L 39.296875 0 
z
" id="CMR17-50"/>
       <path d="M 42 31.640625 
C 42 37.75 41.90625 48.125 37.703125 56.109375 
C 34 63.109375 28.09375 65.59375 22.90625 65.59375 
C 18.09375 65.59375 12 63.40625 8.203125 56.203125 
C 4.203125 48.71875 3.796875 39.4375 3.796875 31.640625 
C 3.796875 25.953125 3.90625 17.28125 7 9.671875 
C 11.296875 -0.609375 19 -2 22.90625 -2 
C 27.5 -2 34.5 -0.109375 38.59375 9.375 
C 41.59375 16.28125 42 24.359375 42 31.640625 
z
M 22.90625 -0.40625 
C 16.5 -0.40625 12.703125 5.078125 11.296875 12.6875 
C 10.203125 18.5625 10.203125 27.15625 10.203125 32.75 
C 10.203125 40.4375 10.203125 46.828125 11.5 52.921875 
C 13.40625 61.390625 19 64 22.90625 64 
C 27 64 32.296875 61.296875 34.203125 53.125 
C 35.5 47.4375 35.59375 40.734375 35.59375 32.75 
C 35.59375 26.25 35.59375 18.265625 34.40625 12.375 
C 32.296875 1.484375 26.40625 -0.40625 22.90625 -0.40625 
z
" id="CMR17-48"/>
      </defs>
      <g transform="translate(45.915716 124.450527)scale(0.08 -0.08)">
       <use transform="scale(0.996264)" xlink:href="#CMR17-50"/>
       <use transform="translate(45.690477 0)scale(0.996264)" xlink:href="#CMR17-48"/>
       <use transform="translate(91.380954 0)scale(0.996264)" xlink:href="#CMMI12-107"/>
      </g>
     </g>
    </g>
    <g id="xtick_3">
     <g id="line2d_3">
      <g>
       <use style="fill:#808080;stroke:#808080;stroke-width:0.8;" x="80.32748" xlink:href="#m5d4b163a86" y="111.915725"/>
      </g>
     </g>
     <g id="text_3">
      <!-- $50k$ -->
      <defs>
       <path d="M 11.40625 57.6875 
C 12.40625 57.28125 16.5 56 20.703125 56 
C 30 56 35.09375 61.109375 38 64.0625 
C 38 64.953125 38 65.5 37.40625 65.5 
C 37.296875 65.5 37.09375 65.5 36.296875 65.046875 
C 32.796875 63.40625 28.703125 62.078125 23.703125 62.078125 
C 20.703125 62.078125 16.203125 62.484375 11.296875 64.671875 
C 10.203125 65.171875 10 65.171875 9.90625 65.171875 
C 9.40625 65.171875 9.296875 65.0625 9.296875 63.078125 
L 9.296875 34.421875 
C 9.296875 32.640625 9.296875 32.140625 10.296875 32.140625 
C 10.796875 32.140625 11 32.34375 11.5 33.03125 
C 14.703125 37.515625 19.09375 39.40625 24.09375 39.40625 
C 27.59375 39.40625 35.09375 37.21875 35.09375 20.140625 
C 35.09375 16.953125 35.09375 11.171875 32.09375 6.578125 
C 29.59375 2.484375 25.703125 0.390625 21.40625 0.390625 
C 14.796875 0.390625 8.09375 5 6.296875 12.71875 
C 6.703125 12.609375 7.5 12.421875 7.90625 12.421875 
C 9.203125 12.421875 11.703125 13.125 11.703125 16.21875 
C 11.703125 18.90625 9.796875 20 7.90625 20 
C 5.59375 20 4.09375 18.59375 4.09375 15.796875 
C 4.09375 7.09375 11 -2 21.59375 -2 
C 31.90625 -2 41.703125 6.875 41.703125 19.75 
C 41.703125 31.71875 33.90625 41 24.203125 41 
C 19.09375 41 14.796875 39.109375 11.40625 35.53125 
z
" id="CMR17-53"/>
      </defs>
      <g transform="translate(73.888575 124.450527)scale(0.08 -0.08)">
       <use transform="scale(0.996264)" xlink:href="#CMR17-53"/>
       <use transform="translate(45.690477 0)scale(0.996264)" xlink:href="#CMR17-48"/>
       <use transform="translate(91.380954 0)scale(0.996264)" xlink:href="#CMMI12-107"/>
      </g>
     </g>
    </g>
    <g id="xtick_4">
     <g id="line2d_4">
      <g>
       <use style="fill:#808080;stroke:#808080;stroke-width:0.8;" x="126.94891" xlink:href="#m5d4b163a86" y="111.915725"/>
      </g>
     </g>
     <g id="text_4">
      <!-- $100k$ -->
      <g transform="translate(118.392914 124.450527)scale(0.08 -0.08)">
       <use transform="scale(0.996264)" xlink:href="#CMR17-49"/>
       <use transform="translate(45.690477 0)scale(0.996264)" xlink:href="#CMR17-48"/>
       <use transform="translate(91.380954 0)scale(0.996264)" xlink:href="#CMR17-48"/>
       <use transform="translate(137.071431 0)scale(0.996264)" xlink:href="#CMMI12-107"/>
      </g>
     </g>
    </g>
    <g id="xtick_5">
     <g id="line2d_5">
      <g>
       <use style="fill:#808080;stroke:#808080;stroke-width:0.8;" x="220.191771" xlink:href="#m5d4b163a86" y="111.915725"/>
      </g>
     </g>
     <g id="text_5">
      <!-- $200k$ -->
      <g transform="translate(211.635775 124.450527)scale(0.08 -0.08)">
       <use transform="scale(0.996264)" xlink:href="#CMR17-50"/>
       <use transform="translate(45.690477 0)scale(0.996264)" xlink:href="#CMR17-48"/>
       <use transform="translate(91.380954 0)scale(0.996264)" xlink:href="#CMR17-48"/>
       <use transform="translate(137.071431 0)scale(0.996264)" xlink:href="#CMMI12-107"/>
      </g>
     </g>
    </g>
    <g id="text_6">
     <!-- Number of training data points -->
     <defs>
      <path d="M 22.90625 65.3125 
L 21.09375 69 
L 8.796875 69 
L 8.796875 0 
L 16.59375 0 
L 16.59375 61.34375 
L 16.703125 61.4375 
C 17.40625 59.640625 17.796875 58.75 21.90625 49.90625 
L 43.296875 3.6875 
L 45.09375 0 
L 57.40625 0 
L 57.40625 69 
L 49.59375 69 
L 49.59375 7.65625 
L 49.5 7.546875 
C 48.796875 9.34375 48.40625 10.234375 44.296875 19.078125 
z
" id="CMSS17-78"/>
      <path d="M 40.90625 42.796875 
L 33.296875 42.796875 
L 33.296875 15.1875 
C 33.296875 7.78125 27.90625 4.78125 22.203125 4.78125 
C 15.59375 4.78125 15 6.984375 15 11.078125 
L 15 42.796875 
L 7.40625 42.796875 
L 7.40625 10.59375 
C 7.40625 2.796875 10.09375 -1 17 -1 
C 20.40625 -1 28.09375 -0.203125 33.5 4.78125 
L 33.5 0 
L 40.90625 0 
z
" id="CMSS17-117"/>
      <path d="M 67 29.328125 
C 67 36.0625 65.296875 44 54.09375 44 
C 46.59375 44 42.09375 39.3125 40.09375 36.421875 
C 38.296875 41.71875 34.09375 44 28.09375 44 
C 21.296875 44 17 40.125 14.703125 37.328125 
L 14.703125 43.09375 
L 7.40625 43.09375 
L 7.40625 0 
L 15 0 
L 15 24.359375 
C 15 30.296875 17.203125 37.9375 24.296875 37.9375 
C 33.40625 37.9375 33.40625 31.5 33.40625 28.578125 
L 33.40625 0 
L 41 0 
L 41 24.359375 
C 41 30.296875 43.203125 37.9375 50.296875 37.9375 
C 59.40625 37.9375 59.40625 31.5 59.40625 28.578125 
L 59.40625 0 
L 67 0 
z
" id="CMSS17-109"/>
      <path d="M 14.90625 69 
L 7.5 69 
L 7.5 -0.203125 
L 15.09375 -0.203125 
L 15.09375 4.28125 
C 18.90625 0.59375 23.5 -1 27.59375 -1 
C 37.203125 -1 45 8.578125 45 21.125 
C 45 32.59375 39 43.0625 30.09375 43.0625 
C 23.796875 43.0625 18.203125 40.484375 14.90625 37.796875 
z
M 15.09375 31.96875 
C 17.296875 34.71875 20.40625 37 24.796875 37 
C 30.703125 37 37.40625 32.765625 37.40625 21.125 
C 37.40625 8.71875 29.40625 5.078125 23.90625 5.078125 
C 21.90625 5.078125 19.796875 5.5625 17.796875 7.25 
C 15.09375 9.609375 15.09375 11.078125 15.09375 12.453125 
z
" id="CMSS17-98"/>
      <path d="M 39.09375 21.515625 
C 39.09375 24.84375 38.90625 31.296875 35.703125 36.640625 
C 32.203125 42.390625 26.5 44 22.203125 44 
C 11.796875 44 3 34.1875 3 21.484375 
C 3 9.09375 12.09375 -1 23.59375 -1 
C 28.09375 -1 33.59375 0.296875 38.59375 3.875 
C 38.59375 4.28125 38.40625 6.46875 38.296875 6.5625 
C 38.296875 6.765625 38 9.84375 38 10.25 
C 33.203125 6.359375 27.703125 5.078125 23.703125 5.078125 
C 17.296875 5.078125 10.40625 10.421875 10.09375 21.515625 
z
M 10.90625 27 
C 12.203125 32.5625 16.59375 37.828125 22.203125 37.828125 
C 23.703125 37.828125 30.703125 37.828125 32.5 27 
z
" id="CMSS17-101"/>
      <path d="M 14.90625 21.296875 
C 14.90625 30.703125 21.796875 37 30.59375 37 
L 30.59375 43.578125 
C 24.203125 43.578125 18.203125 40.390625 14.59375 35.203125 
L 14.59375 43.09375 
L 7.5 43.09375 
L 7.5 0 
L 14.90625 0 
z
" id="CMSS17-114"/>
      <path d="M 44.203125 21.1875 
C 44.203125 34 34.703125 44 23.5 44 
C 12 44 2.703125 33.703125 2.703125 21.1875 
C 2.703125 8.5 12.296875 -1 23.40625 -1 
C 34.796875 -1 44.203125 8.796875 44.203125 21.1875 
z
M 23.5 5.265625 
C 16.40625 5.265625 10.296875 11.078125 10.296875 22 
C 10.296875 33.609375 17.40625 37.921875 23.40625 37.921875 
C 29.90625 37.921875 36.59375 33.21875 36.59375 22 
C 36.59375 10.671875 30.09375 5.265625 23.5 5.265625 
z
" id="CMSS17-111"/>
      <path d="M 16.796875 37 
L 26.90625 37 
L 26.90625 42.765625 
L 16.59375 42.765625 
L 16.59375 55.609375 
C 16.59375 62.71875 22 63.9375 25.09375 63.9375 
C 26.09375 63.9375 28.90625 63.9375 32.5 62.640625 
L 32.5 69.203125 
C 30.203125 69.703125 27.40625 70 25.203125 70 
C 15.90625 70 9.40625 62.390625 9.40625 52.484375 
L 9.40625 42.765625 
L 2.5 42.765625 
L 2.5 37 
L 9.40625 37 
L 9.40625 0 
L 16.796875 0 
z
" id="CMSS17-102"/>
      <path d="M 16.703125 37 
L 29.703125 37 
L 29.703125 42.765625 
L 16.703125 42.765625 
L 16.703125 55 
L 9.59375 55 
L 9.59375 42.765625 
L 1.703125 42.765625 
L 1.703125 37 
L 9.40625 37 
L 9.40625 11.703125 
C 9.40625 6 10.703125 -1 17.296875 -1 
C 22.296875 -1 26.90625 0.390625 31.296875 2.6875 
L 29.703125 8.5625 
C 27.296875 6.46875 24.40625 5.265625 21.296875 5.265625 
C 16.90625 5.265625 16.703125 10.875 16.703125 13.375 
z
" id="CMSS17-116"/>
      <path d="M 37.59375 27.984375 
C 37.59375 37.375 30.90625 43.875 21.90625 43.875 
C 17.5 43.875 12.703125 43.078125 7.203125 39.890625 
L 7.796875 33.359375 
C 10.296875 35.125 14.59375 38 21.796875 38 
C 26.90625 38 30 34.0625 30 27.84375 
L 30 24 
C 14 24 4 19.34375 4 11.34375 
C 4 7.203125 6.5 -1 14.796875 -1 
C 16.296875 -1 24.40625 -1 30.203125 3.390625 
L 30.203125 -0.296875 
L 37.59375 -0.296875 
z
M 30 12.75 
C 30 10.953125 30 8.5625 27 6.78125 
C 24.40625 5.078125 21.09375 5.078125 19.703125 5.078125 
C 14.703125 5.078125 11.296875 7.984375 11.296875 11.625 
C 11.296875 18.921875 26.90625 18.921875 30 18.921875 
z
" id="CMSS17-97"/>
      <path d="M 15.296875 65.359375 
L 6.90625 65.359375 
L 6.90625 57 
L 15.296875 57 
z
M 14.796875 42.796875 
L 7.40625 42.796875 
L 7.40625 0 
L 14.796875 0 
z
" id="CMSS17-105"/>
      <path d="M 40.90625 29.328125 
C 40.90625 35.671875 39.40625 44 28.09375 44 
C 21.703125 44 17.5 40.71875 14.703125 37.328125 
L 14.703125 43.09375 
L 7.40625 43.09375 
L 7.40625 0 
L 15 0 
L 15 24.359375 
C 15 30.6875 17.40625 37.9375 24.203125 37.9375 
C 33 37.9375 33.296875 32 33.296875 28.578125 
L 33.296875 0 
L 40.90625 0 
z
" id="CMSS17-110"/>
      <path d="M 44.5 43.875 
C 38.796875 43.875 33.90625 42.78125 29.90625 40.890625 
C 26.59375 43.390625 23.203125 43.875 20.90625 43.875 
C 12.203125 43.875 5.59375 36.703125 5.59375 28.34375 
C 5.59375 22.9375 8.59375 18.859375 8.796875 18.671875 
C 7 16.171875 6 13.484375 6 10.5 
C 6 7 7.40625 4.515625 8.5 3.125 
C 3.296875 -0.046875 2.59375 -4.90625 2.59375 -6.796875 
C 2.59375 -14.03125 11.703125 -20 23.40625 -20 
C 35.203125 -20 44.296875 -14.03125 44.296875 -6.6875 
C 44.296875 7 29 7 24.796875 7 
L 16.703125 7 
C 15.203125 7 11.203125 7 11.203125 12.359375 
C 11.203125 14.390625 12.09375 15.6875 12.203125 15.78125 
C 13.703125 14.6875 16.796875 13 20.90625 13 
C 29.203125 13 36.09375 19.96875 36.09375 28.546875 
C 36.09375 33.3125 33.90625 36.796875 33 38 
L 33.296875 38 
C 33.59375 38 37.796875 38 39.296875 38 
C 42.5 38 42.796875 37.953125 45.59375 37.796875 
z
M 20.90625 18.46875 
C 17.5 18.46875 12.703125 20.546875 12.703125 28.484375 
C 12.703125 37.109375 18.203125 38.5 20.796875 38.5 
C 24.203125 38.5 29 36.421875 29 28.484375 
C 29 19.859375 23.5 18.46875 20.90625 18.46875 
z
M 24.703125 -0.15625 
C 27.09375 -0.15625 37.203125 -0.15625 37.203125 -6.90625 
C 37.203125 -11.15625 31 -14.515625 23.5 -14.515625 
C 15.90625 -14.515625 9.703125 -11.25 9.703125 -6.796875 
C 9.703125 -6.296875 9.703125 -0.15625 16.59375 -0.15625 
z
" id="CMSS17-103"/>
      <path d="M 40.796875 69 
L 33.40625 69 
L 33.40625 38.09375 
C 30.296875 40.671875 25.203125 43.0625 19.59375 43.0625 
C 10.5 43.0625 3.296875 33.296875 3.296875 21.046875 
C 3.296875 8.78125 10.40625 -1 19.296875 -1 
C 26.203125 -1 30.796875 2.6875 33.203125 4.78125 
L 33.203125 -0.203125 
L 40.796875 -0.203125 
z
M 33.203125 13.0625 
C 33.203125 11.671875 33.203125 10.203125 30.09375 7.53125 
C 28.09375 5.859375 25.703125 5.078125 23.40625 5.078125 
C 18 5.078125 10.90625 9 10.90625 20.9375 
C 10.90625 33.34375 18.90625 37 24.40625 37 
C 28.09375 37 31.09375 35.21875 33.203125 32.265625 
z
" id="CMSS17-100"/>
      <path d="M 15.09375 5.203125 
C 18.40625 2.015625 22.90625 -0.078125 27.703125 -0.078125 
C 37 -0.078125 45 9.421875 45 22.0625 
C 45 33.734375 39 44 30.40625 44 
C 25.40625 44 19.40625 42.21875 14.90625 38.625 
L 14.90625 43.203125 
L 7.5 43.203125 
L 7.5 -19 
L 15.09375 -19 
z
M 15.09375 32.8125 
C 15.90625 34 19.296875 37.734375 24.796875 37.734375 
C 31.796875 37.734375 37.40625 30.625 37.40625 22.0625 
C 37.40625 12.296875 30.59375 6 23.90625 6 
C 21.90625 6 19.796875 6.484375 17.796875 8.171875 
C 15.09375 10.53125 15.09375 12 15.09375 13.390625 
z
" id="CMSS17-112"/>
      <path d="M 32.203125 41.046875 
C 26.296875 43.859375 21.703125 43.859375 18.703125 43.859375 
C 11.59375 43.859375 3.09375 41.375 3.09375 31.296875 
C 3.09375 21.234375 14.09375 19.03125 17.09375 18.421875 
C 21.703125 17.53125 26.796875 16.53125 26.796875 11.5625 
C 26.796875 5.265625 19.59375 5.265625 18.296875 5.265625 
C 14.296875 5.265625 8.796875 6.359375 3.796875 9.96875 
L 2.59375 3.28125 
C 8.296875 0 13.796875 -1 18.40625 -1 
C 30.703125 -1 33.796875 6.5 33.796875 12.203125 
C 33.796875 17.09375 31 20.390625 29.09375 21.890625 
C 25.796875 24.5 24.59375 24.796875 16.40625 26.5 
C 15 26.703125 10.09375 27.796875 10.09375 32.28125 
C 10.09375 38 16.40625 38 17.796875 38 
C 24.296875 38 28.296875 35.984375 31 34.5 
z
" id="CMSS17-115"/>
     </defs>
     <g transform="translate(72.117569 135.535074)scale(0.08 -0.08)">
      <use transform="scale(0.996264)" xlink:href="#CMSS17-78"/>
      <use transform="translate(66.061519 0)scale(0.996264)" xlink:href="#CMSS17-117"/>
      <use transform="translate(114.266462 0)scale(0.996264)" xlink:href="#CMSS17-109"/>
      <use transform="translate(188.495717 0)scale(0.996264)" xlink:href="#CMSS17-98"/>
      <use transform="translate(239.303099 0)scale(0.996264)" xlink:href="#CMSS17-101"/>
      <use transform="translate(280.941921 0)scale(0.996264)" xlink:href="#CMSS17-114"/>
      <use transform="translate(344.080806 0)scale(0.996264)" xlink:href="#CMSS17-111"/>
      <use transform="translate(390.92443 0)scale(0.996264)" xlink:href="#CMSS17-102"/>
      <use transform="translate(450.780201 0)scale(0.996264)" xlink:href="#CMSS17-116"/>
      <use transform="translate(484.611768 0)scale(0.996264)" xlink:href="#CMSS17-114"/>
      <use transform="translate(516.52154 0)scale(0.996264)" xlink:href="#CMSS17-97"/>
      <use transform="translate(561.443461 0)scale(0.996264)" xlink:href="#CMSS17-105"/>
      <use transform="translate(583.624184 0)scale(0.996264)" xlink:href="#CMSS17-110"/>
      <use transform="translate(631.829127 0)scale(0.996264)" xlink:href="#CMSS17-105"/>
      <use transform="translate(654.00985 0)scale(0.996264)" xlink:href="#CMSS17-110"/>
      <use transform="translate(702.214793 0)scale(0.996264)" xlink:href="#CMSS17-103"/>
      <use transform="translate(780.28753 0)scale(0.996264)" xlink:href="#CMSS17-100"/>
      <use transform="translate(828.492473 0)scale(0.996264)" xlink:href="#CMSS17-97"/>
      <use transform="translate(873.414393 0)scale(0.996264)" xlink:href="#CMSS17-116"/>
      <use transform="translate(907.24596 0)scale(0.996264)" xlink:href="#CMSS17-97"/>
      <use transform="translate(983.396993 0)scale(0.996264)" xlink:href="#CMSS17-112"/>
      <use transform="translate(1034.204375 0)scale(0.996264)" xlink:href="#CMSS17-111"/>
      <use transform="translate(1081.047999 0)scale(0.996264)" xlink:href="#CMSS17-105"/>
      <use transform="translate(1103.228722 0)scale(0.996264)" xlink:href="#CMSS17-110"/>
      <use transform="translate(1151.433665 0)scale(0.996264)" xlink:href="#CMSS17-116"/>
      <use transform="translate(1185.265232 0)scale(0.996264)" xlink:href="#CMSS17-115"/>
     </g>
    </g>
   </g>
   <g id="matplotlib.axis_2">
    <g id="ytick_1">
     <g id="line2d_6">
      <defs>
       <path d="M 0 0 
L -3.5 0 
" id="mf1719c7e67" style="stroke:#808080;stroke-width:0.8;"/>
      </defs>
      <g>
       <use style="fill:#808080;stroke:#808080;stroke-width:0.8;" x="34.638478" xlink:href="#mf1719c7e67" y="111.915725"/>
      </g>
     </g>
     <g id="text_7">
      <!-- $0$ -->
      <g transform="translate(23.404295 114.683126)scale(0.08 -0.08)">
       <use transform="scale(0.996264)" xlink:href="#CMR17-48"/>
      </g>
     </g>
    </g>
    <g id="ytick_2">
     <g id="line2d_7">
      <g>
       <use style="fill:#808080;stroke:#808080;stroke-width:0.8;" x="34.638478" xlink:href="#mf1719c7e67" y="91.815225"/>
      </g>
     </g>
     <g id="text_8">
      <!-- $5$ -->
      <g transform="translate(23.404295 94.582626)scale(0.08 -0.08)">
       <use transform="scale(0.996264)" xlink:href="#CMR17-53"/>
      </g>
     </g>
    </g>
    <g id="ytick_3">
     <g id="line2d_8">
      <g>
       <use style="fill:#808080;stroke:#808080;stroke-width:0.8;" x="34.638478" xlink:href="#mf1719c7e67" y="71.714725"/>
      </g>
     </g>
     <g id="text_9">
      <!-- $10$ -->
      <g transform="translate(19.170112 74.482126)scale(0.08 -0.08)">
       <use transform="scale(0.996264)" xlink:href="#CMR17-49"/>
       <use transform="translate(45.690477 0)scale(0.996264)" xlink:href="#CMR17-48"/>
      </g>
     </g>
    </g>
    <g id="ytick_4">
     <g id="line2d_9">
      <g>
       <use style="fill:#808080;stroke:#808080;stroke-width:0.8;" x="34.638478" xlink:href="#mf1719c7e67" y="51.614225"/>
      </g>
     </g>
     <g id="text_10">
      <!-- $15$ -->
      <g transform="translate(19.170112 54.381626)scale(0.08 -0.08)">
       <use transform="scale(0.996264)" xlink:href="#CMR17-49"/>
       <use transform="translate(45.690477 0)scale(0.996264)" xlink:href="#CMR17-53"/>
      </g>
     </g>
    </g>
    <g id="ytick_5">
     <g id="line2d_10">
      <g>
       <use style="fill:#808080;stroke:#808080;stroke-width:0.8;" x="34.638478" xlink:href="#mf1719c7e67" y="31.513726"/>
      </g>
     </g>
     <g id="text_11">
      <!-- $20$ -->
      <g transform="translate(19.170112 34.281126)scale(0.08 -0.08)">
       <use transform="scale(0.996264)" xlink:href="#CMR17-50"/>
       <use transform="translate(45.690477 0)scale(0.996264)" xlink:href="#CMR17-48"/>
      </g>
     </g>
    </g>
    <g id="ytick_6">
     <g id="line2d_11">
      <g>
       <use style="fill:#808080;stroke:#808080;stroke-width:0.8;" x="34.638478" xlink:href="#mf1719c7e67" y="11.413226"/>
      </g>
     </g>
     <g id="text_12">
      <!-- $25$ -->
      <g transform="translate(19.170112 14.180627)scale(0.08 -0.08)">
       <use transform="scale(0.996264)" xlink:href="#CMR17-50"/>
       <use transform="translate(45.690477 0)scale(0.996264)" xlink:href="#CMR17-53"/>
      </g>
     </g>
    </g>
    <g id="text_13">
     <!-- Computation time (seconds) -->
     <defs>
      <path d="M 54.703125 11.15625 
C 48 6.671875 44.90625 5.375 36.796875 5.375 
C 22.796875 5.375 14.59375 20.359375 14.59375 34.046875 
C 14.59375 48.625 23 63 37.203125 63 
C 43.59375 63 47.796875 61.21875 52.90625 58.046875 
L 54.296875 65.890625 
C 49.5 68.28125 43.40625 69.375 37.296875 69.375 
C 18.09375 69.375 6.203125 51.8125 6.203125 34.046875 
C 6.203125 14.484375 20.296875 -1 36.296875 -1 
C 44.90625 -1 47.90625 -0.296875 55.296875 4.375 
z
" id="CMSS17-67"/>
      <path d="M 25.203125 74.5 
C 19.796875 69.015625 7.40625 56.265625 7.40625 24.8125 
C 7.40625 -6.765625 19.796875 -19.421875 25.203125 -25 
L 31.296875 -25 
C 19 -12.25 15 5.578125 15 24.703125 
C 15 43.71875 18.796875 61.65625 31.296875 74.5 
z
" id="CMSS17-40"/>
      <path d="M 38.5 39.703125 
C 38.5 40.390625 33.90625 42.40625 32.703125 42.796875 
C 29.40625 44 25.203125 44 24.09375 44 
C 11.09375 44 3.296875 32.703125 3.296875 21.296875 
C 3.296875 9.296875 12 -1 23.703125 -1 
C 30.40625 -1 35.203125 1.1875 39.09375 3.78125 
L 38.5 10.375 
C 34.203125 7.078125 29.203125 5.265625 23.796875 5.265625 
C 16 5.265625 10.90625 12.09375 10.90625 21.390625 
C 10.90625 28.609375 14.203125 37.71875 24.203125 37.71875 
C 29.703125 37.71875 32.796875 36.609375 37.40625 33.515625 
z
" id="CMSS17-99"/>
      <path d="M 11.296875 -25 
C 16.703125 -19.515625 29.09375 -6.765625 29.09375 24.703125 
C 29.09375 56.265625 16.703125 68.921875 11.296875 74.5 
L 5.203125 74.5 
C 17.5 61.75 21.5 43.921875 21.5 24.8125 
C 21.5 5.78125 17.703125 -12.15625 5.203125 -25 
z
" id="CMSS17-41"/>
     </defs>
     <g transform="translate(13.177584 111.669703)rotate(-90)scale(0.08 -0.08)">
      <use transform="scale(0.996264)" xlink:href="#CMSS17-67"/>
      <use transform="translate(59.855772 0)scale(0.996264)" xlink:href="#CMSS17-111"/>
      <use transform="translate(106.699395 0)scale(0.996264)" xlink:href="#CMSS17-109"/>
      <use transform="translate(180.92865 0)scale(0.996264)" xlink:href="#CMSS17-112"/>
      <use transform="translate(229.133593 0)scale(0.996264)" xlink:href="#CMSS17-117"/>
      <use transform="translate(277.338536 0)scale(0.996264)" xlink:href="#CMSS17-116"/>
      <use transform="translate(311.170102 0)scale(0.996264)" xlink:href="#CMSS17-97"/>
      <use transform="translate(356.092023 0)scale(0.996264)" xlink:href="#CMSS17-116"/>
      <use transform="translate(389.92359 0)scale(0.996264)" xlink:href="#CMSS17-105"/>
      <use transform="translate(412.104313 0)scale(0.996264)" xlink:href="#CMSS17-111"/>
      <use transform="translate(458.947936 0)scale(0.996264)" xlink:href="#CMSS17-110"/>
      <use transform="translate(538.381992 0)scale(0.996264)" xlink:href="#CMSS17-116"/>
      <use transform="translate(572.213559 0)scale(0.996264)" xlink:href="#CMSS17-105"/>
      <use transform="translate(594.394282 0)scale(0.996264)" xlink:href="#CMSS17-109"/>
      <use transform="translate(668.623536 0)scale(0.996264)" xlink:href="#CMSS17-101"/>
      <use transform="translate(741.491471 0)scale(0.996264)" xlink:href="#CMSS17-40"/>
      <use transform="translate(777.925385 0)scale(0.996264)" xlink:href="#CMSS17-115"/>
      <use transform="translate(813.838927 0)scale(0.996264)" xlink:href="#CMSS17-101"/>
      <use transform="translate(855.477749 0)scale(0.996264)" xlink:href="#CMSS17-99"/>
      <use transform="translate(897.116572 0)scale(0.996264)" xlink:href="#CMSS17-111"/>
      <use transform="translate(943.960195 0)scale(0.996264)" xlink:href="#CMSS17-110"/>
      <use transform="translate(992.165138 0)scale(0.996264)" xlink:href="#CMSS17-100"/>
      <use transform="translate(1040.370081 0)scale(0.996264)" xlink:href="#CMSS17-115"/>
      <use transform="translate(1076.283623 0)scale(0.996264)" xlink:href="#CMSS17-41"/>
     </g>
    </g>
   </g>
   <g id="line2d_12">
    <path d="M 34.638478 111.891656 
L 35.067395 111.87901 
L 35.693055 111.852296 
L 36.607767 111.800082 
L 37.942072 111.726724 
L 39.891781 111.604011 
L 42.737553 111.35468 
L 46.892455 110.816787 
L 52.957903 110.197783 
L 61.815042 108.632377 
L 74.745962 105.559115 
L 93.624844 100.912554 
L 121.189299 89.937545 
L 161.43385 64.28829 
L 220.191771 15.519384 
" style="fill:none;stroke:#2e7ebc;stroke-linecap:square;stroke-width:0.75;"/>
    <defs>
     <path d="M -1.5 1.5 
L 1.5 1.5 
L 1.5 -1.5 
L -1.5 -1.5 
z
" id="m9aeed2c9ec" style="stroke:#2e7ebc;stroke-linejoin:miter;"/>
    </defs>
    <g>
     <use style="fill:#2e7ebc;stroke:#2e7ebc;stroke-linejoin:miter;" x="34.638478" xlink:href="#m9aeed2c9ec" y="111.891656"/>
     <use style="fill:#2e7ebc;stroke:#2e7ebc;stroke-linejoin:miter;" x="35.067395" xlink:href="#m9aeed2c9ec" y="111.87901"/>
     <use style="fill:#2e7ebc;stroke:#2e7ebc;stroke-linejoin:miter;" x="35.693055" xlink:href="#m9aeed2c9ec" y="111.852296"/>
     <use style="fill:#2e7ebc;stroke:#2e7ebc;stroke-linejoin:miter;" x="36.607767" xlink:href="#m9aeed2c9ec" y="111.800082"/>
     <use style="fill:#2e7ebc;stroke:#2e7ebc;stroke-linejoin:miter;" x="37.942072" xlink:href="#m9aeed2c9ec" y="111.726724"/>
     <use style="fill:#2e7ebc;stroke:#2e7ebc;stroke-linejoin:miter;" x="39.891781" xlink:href="#m9aeed2c9ec" y="111.604011"/>
     <use style="fill:#2e7ebc;stroke:#2e7ebc;stroke-linejoin:miter;" x="42.737553" xlink:href="#m9aeed2c9ec" y="111.35468"/>
     <use style="fill:#2e7ebc;stroke:#2e7ebc;stroke-linejoin:miter;" x="46.892455" xlink:href="#m9aeed2c9ec" y="110.816787"/>
     <use style="fill:#2e7ebc;stroke:#2e7ebc;stroke-linejoin:miter;" x="52.957903" xlink:href="#m9aeed2c9ec" y="110.197783"/>
     <use style="fill:#2e7ebc;stroke:#2e7ebc;stroke-linejoin:miter;" x="61.815042" xlink:href="#m9aeed2c9ec" y="108.632377"/>
     <use style="fill:#2e7ebc;stroke:#2e7ebc;stroke-linejoin:miter;" x="74.745962" xlink:href="#m9aeed2c9ec" y="105.559115"/>
     <use style="fill:#2e7ebc;stroke:#2e7ebc;stroke-linejoin:miter;" x="93.624844" xlink:href="#m9aeed2c9ec" y="100.912554"/>
     <use style="fill:#2e7ebc;stroke:#2e7ebc;stroke-linejoin:miter;" x="121.189299" xlink:href="#m9aeed2c9ec" y="89.937545"/>
     <use style="fill:#2e7ebc;stroke:#2e7ebc;stroke-linejoin:miter;" x="161.43385" xlink:href="#m9aeed2c9ec" y="64.28829"/>
     <use style="fill:#2e7ebc;stroke:#2e7ebc;stroke-linejoin:miter;" x="220.191771" xlink:href="#m9aeed2c9ec" y="15.519384"/>
    </g>
   </g>
   <g id="line2d_13">
    <path d="M 34.638478 111.884043 
L 35.067395 111.875906 
L 35.693055 111.869571 
L 36.607767 111.831798 
L 37.942072 111.797658 
L 39.891781 111.716565 
L 42.737553 111.581844 
L 46.892455 111.472308 
L 52.957903 111.176433 
L 61.815042 110.714367 
L 74.745962 109.626334 
L 93.624844 108.623806 
L 121.189299 104.807017 
L 161.43385 101.556109 
L 220.191771 89.408065 
" style="fill:none;stroke:#e25508;stroke-dasharray:0.75,1.2375;stroke-dashoffset:0;stroke-width:0.75;"/>
    <defs>
     <path d="M -0 1.5 
L 1.5 -1.5 
L -1.5 -1.5 
z
" id="mf52a97c41f" style="stroke:#e25508;stroke-linejoin:miter;"/>
    </defs>
    <g>
     <use style="fill:#e25508;stroke:#e25508;stroke-linejoin:miter;" x="34.638478" xlink:href="#mf52a97c41f" y="111.884043"/>
     <use style="fill:#e25508;stroke:#e25508;stroke-linejoin:miter;" x="35.067395" xlink:href="#mf52a97c41f" y="111.875906"/>
     <use style="fill:#e25508;stroke:#e25508;stroke-linejoin:miter;" x="35.693055" xlink:href="#mf52a97c41f" y="111.869571"/>
     <use style="fill:#e25508;stroke:#e25508;stroke-linejoin:miter;" x="36.607767" xlink:href="#mf52a97c41f" y="111.831798"/>
     <use style="fill:#e25508;stroke:#e25508;stroke-linejoin:miter;" x="37.942072" xlink:href="#mf52a97c41f" y="111.797658"/>
     <use style="fill:#e25508;stroke:#e25508;stroke-linejoin:miter;" x="39.891781" xlink:href="#mf52a97c41f" y="111.716565"/>
     <use style="fill:#e25508;stroke:#e25508;stroke-linejoin:miter;" x="42.737553" xlink:href="#mf52a97c41f" y="111.581844"/>
     <use style="fill:#e25508;stroke:#e25508;stroke-linejoin:miter;" x="46.892455" xlink:href="#mf52a97c41f" y="111.472308"/>
     <use style="fill:#e25508;stroke:#e25508;stroke-linejoin:miter;" x="52.957903" xlink:href="#mf52a97c41f" y="111.176433"/>
     <use style="fill:#e25508;stroke:#e25508;stroke-linejoin:miter;" x="61.815042" xlink:href="#mf52a97c41f" y="110.714367"/>
     <use style="fill:#e25508;stroke:#e25508;stroke-linejoin:miter;" x="74.745962" xlink:href="#mf52a97c41f" y="109.626334"/>
     <use style="fill:#e25508;stroke:#e25508;stroke-linejoin:miter;" x="93.624844" xlink:href="#mf52a97c41f" y="108.623806"/>
     <use style="fill:#e25508;stroke:#e25508;stroke-linejoin:miter;" x="121.189299" xlink:href="#mf52a97c41f" y="104.807017"/>
     <use style="fill:#e25508;stroke:#e25508;stroke-linejoin:miter;" x="161.43385" xlink:href="#mf52a97c41f" y="101.556109"/>
     <use style="fill:#e25508;stroke:#e25508;stroke-linejoin:miter;" x="220.191771" xlink:href="#mf52a97c41f" y="89.408065"/>
    </g>
   </g>
   <g id="line2d_14">
    <path d="M 34.638478 111.907074 
L 35.067395 111.901695 
L 35.693055 111.893559 
L 36.607767 111.881775 
L 37.942072 111.858462 
L 39.891781 111.819802 
L 42.737553 111.712364 
L 46.892455 111.558253 
L 52.957903 111.318334 
L 61.815042 110.917293 
L 74.745962 110.20307 
L 93.624844 109.231163 
L 121.189299 105.960915 
L 161.43385 103.507132 
L 220.191771 94.778482 
" style="fill:none;stroke:#fd8c3b;stroke-dasharray:0.75,1.2375;stroke-dashoffset:0;stroke-width:0.75;"/>
    <defs>
     <path d="M 0 0 
L 0 2.5 
M 0 0 
L 2 -1.25 
M 0 0 
L -2 -1.25 
" id="m16d0b0acdf" style="stroke:#fd8c3b;"/>
    </defs>
    <g>
     <use style="fill:#fd8c3b;stroke:#fd8c3b;" x="34.638478" xlink:href="#m16d0b0acdf" y="111.907074"/>
     <use style="fill:#fd8c3b;stroke:#fd8c3b;" x="35.067395" xlink:href="#m16d0b0acdf" y="111.901695"/>
     <use style="fill:#fd8c3b;stroke:#fd8c3b;" x="35.693055" xlink:href="#m16d0b0acdf" y="111.893559"/>
     <use style="fill:#fd8c3b;stroke:#fd8c3b;" x="36.607767" xlink:href="#m16d0b0acdf" y="111.881775"/>
     <use style="fill:#fd8c3b;stroke:#fd8c3b;" x="37.942072" xlink:href="#m16d0b0acdf" y="111.858462"/>
     <use style="fill:#fd8c3b;stroke:#fd8c3b;" x="39.891781" xlink:href="#m16d0b0acdf" y="111.819802"/>
     <use style="fill:#fd8c3b;stroke:#fd8c3b;" x="42.737553" xlink:href="#m16d0b0acdf" y="111.712364"/>
     <use style="fill:#fd8c3b;stroke:#fd8c3b;" x="46.892455" xlink:href="#m16d0b0acdf" y="111.558253"/>
     <use style="fill:#fd8c3b;stroke:#fd8c3b;" x="52.957903" xlink:href="#m16d0b0acdf" y="111.318334"/>
     <use style="fill:#fd8c3b;stroke:#fd8c3b;" x="61.815042" xlink:href="#m16d0b0acdf" y="110.917293"/>
     <use style="fill:#fd8c3b;stroke:#fd8c3b;" x="74.745962" xlink:href="#m16d0b0acdf" y="110.20307"/>
     <use style="fill:#fd8c3b;stroke:#fd8c3b;" x="93.624844" xlink:href="#m16d0b0acdf" y="109.231163"/>
     <use style="fill:#fd8c3b;stroke:#fd8c3b;" x="121.189299" xlink:href="#m16d0b0acdf" y="105.960915"/>
     <use style="fill:#fd8c3b;stroke:#fd8c3b;" x="161.43385" xlink:href="#m16d0b0acdf" y="103.507132"/>
     <use style="fill:#fd8c3b;stroke:#fd8c3b;" x="220.191771" xlink:href="#m16d0b0acdf" y="94.778482"/>
    </g>
   </g>
   <g id="patch_3">
    <path d="M 34.638478 111.915725 
L 34.638478 10.7 
" style="fill:none;stroke:#808080;stroke-linecap:square;stroke-linejoin:miter;stroke-width:0.5;"/>
   </g>
   <g id="patch_4">
    <path d="M 34.638478 111.915725 
L 220.191771 111.915725 
" style="fill:none;stroke:#808080;stroke-linecap:square;stroke-linejoin:miter;stroke-width:0.5;"/>
   </g>
   <g id="text_14">
    <!-- (a) -->
    <g transform="translate(122.087804 146.402015)scale(0.08 -0.08)">
     <use transform="scale(0.996264)" xlink:href="#CMSS17-40"/>
     <use transform="translate(36.433914 0)scale(0.996264)" xlink:href="#CMSS17-97"/>
     <use transform="translate(81.355835 0)scale(0.996264)" xlink:href="#CMSS17-41"/>
    </g>
   </g>
   <g id="legend_1">
    <g id="patch_5">
     <path d="M 40.238478 51.369603 
L 163.00599 51.369603 
Q 164.60599 51.369603 164.60599 49.769603 
L 164.60599 16.3 
Q 164.60599 14.7 163.00599 14.7 
L 40.238478 14.7 
Q 38.638478 14.7 38.638478 16.3 
L 38.638478 49.769603 
Q 38.638478 51.369603 40.238478 51.369603 
z
" style="fill:#ffffff;opacity:0.8;stroke:#cccccc;stroke-linejoin:miter;"/>
    </g>
    <g id="line2d_15">
     <path d="M 41.838478 20.7 
L 57.838478 20.7 
" style="fill:none;stroke:#2e7ebc;stroke-linecap:square;stroke-width:0.75;"/>
    </g>
    <g id="line2d_16">
     <g>
      <use style="fill:#2e7ebc;stroke:#2e7ebc;stroke-linejoin:miter;" x="49.838478" xlink:href="#m9aeed2c9ec" y="20.7"/>
     </g>
    </g>
    <g id="text_15">
     <!-- LIBSVM shrinking heuristic -->
     <defs>
      <path d="M 26.09375 6.46875 
C 24.90625 6.46875 23.703125 6.46875 22.5 6.46875 
L 17.203125 6.46875 
L 17.203125 69 
L 8.796875 69 
L 8.796875 0 
L 46.90625 0 
L 46.90625 6.46875 
z
" id="CMSS17-76"/>
      <path d="M 17.09375 69 
L 8.703125 69 
L 8.703125 0 
L 17.09375 0 
z
" id="CMSS17-73"/>
      <path d="M 8.90625 69 
L 8.90625 0 
L 33.796875 0 
C 47.40625 0 57.296875 8.96875 57.296875 18.75 
C 57.296875 26.328125 50.796875 34 39.09375 36.203125 
C 52.09375 39.96875 54.703125 47.5 54.703125 51.765625 
C 54.703125 60.671875 44.90625 69 31.203125 69 
z
M 17 39 
L 17 63.421875 
L 28.5 63.421875 
C 38.796875 63.421875 46.90625 58.1875 46.90625 51.65625 
C 46.90625 45.71875 40.5 39 27.59375 39 
z
M 17 5.578125 
L 17 32.921875 
L 30.296875 32.921875 
C 41.09375 32.921875 49.40625 26.234375 49.40625 18.84375 
C 49.40625 12.0625 42.09375 5.578125 31 5.578125 
z
" id="CMSS17-66"/>
      <path d="M 43.703125 65.140625 
C 39.296875 67.71875 34.5 70 26.40625 70 
C 13.5 70 5.203125 60.609375 5.203125 51.03125 
C 5.203125 47.265625 6.296875 43.015625 10.203125 38.671875 
C 14.09375 34.3125 18.5 33.140625 24.09375 31.765625 
C 26.40625 31.15625 30.296875 30.0625 31 29.78125 
C 36.59375 27.609375 39.296875 22.5625 39.296875 17.8125 
C 39.296875 11.59375 34.40625 4.96875 25.703125 4.96875 
C 22.703125 4.96875 13.90625 4.96875 5.59375 12.796875 
L 4.203125 4.96875 
C 12.40625 -1 21.296875 -2 25.796875 -2 
C 38.09375 -2 46.90625 7.625 46.90625 18.53125 
C 46.90625 22.5 45.703125 27.546875 41.5 32.203125 
C 37.40625 36.671875 33.796875 37.65625 25.59375 39.828125 
C 20.90625 41.03125 17.90625 41.828125 15.40625 44.890625 
C 13.703125 47.078125 12.796875 49.15625 12.796875 51.828125 
C 12.796875 57.390625 17.59375 63.4375 26.40625 63.4375 
C 30.796875 63.4375 36.5 62.53125 42.296875 57.1875 
z
" id="CMSS17-83"/>
      <path d="M 61.09375 69 
L 53.296875 69 
L 36 21.28125 
C 35.5 19.890625 32.40625 10.75 31.796875 7.5625 
L 31.703125 7.5625 
C 30.90625 11.34375 27.703125 20.1875 26 25.0625 
L 14.40625 57.375 
L 10.09375 69 
L 1.296875 69 
L 26.796875 0 
L 35.59375 0 
z
" id="CMSS17-86"/>
      <path d="M 49.90625 37.046875 
L 45.09375 23.015625 
C 44.296875 20.421875 41.59375 12.359375 41 9.171875 
L 40.90625 9.171875 
C 40.59375 11.171875 40 13.265625 38.40625 18.34375 
C 37.5 21.328125 36.5 24.40625 35.5 27.203125 
L 20.703125 69 
L 9 69 
L 9 0 
L 16.796875 0 
L 16.796875 60.9375 
L 16.90625 60.9375 
C 16.90625 60.84375 17.796875 56.453125 23.90625 39.046875 
L 37.09375 1.5 
L 44.5 1.5 
L 56.40625 34.859375 
C 57.203125 37.15625 59.703125 44.421875 60.796875 47.90625 
C 61.796875 50.890625 64.296875 58.25 64.90625 61.140625 
L 65 61.140625 
L 65 0 
L 72.90625 0 
L 72.90625 69 
L 61.296875 69 
z
" id="CMSS17-77"/>
      <path d="M 40.90625 29.546875 
C 40.90625 35.8125 39.40625 44.0625 28.09375 44.0625 
C 21.796875 44.0625 17.703125 40.984375 14.796875 37.609375 
L 14.796875 69.5 
L 7.40625 69.5 
L 7.40625 0.5 
L 15 0.5 
L 15 24.578125 
C 15 30.828125 17.40625 38 24.203125 38 
C 33 38 33.296875 32.125 33.296875 28.734375 
L 33.296875 0.5 
L 40.90625 0.5 
z
" id="CMSS17-104"/>
      <path d="M 26.5 26.375 
L 42 42.796875 
L 32.40625 42.796875 
L 14.90625 24.28125 
L 14.90625 69 
L 7.5 69 
L 7.5 0 
L 14.796875 0 
L 14.796875 13.9375 
L 21.5 21 
L 35.59375 0 
L 44.09375 0 
z
" id="CMSS17-107"/>
     </defs>
     <g transform="translate(64.238478 23.5)scale(0.08 -0.08)">
      <use transform="scale(0.996264)" xlink:href="#CMSS17-76"/>
      <use transform="translate(50.687105 0)scale(0.996264)" xlink:href="#CMSS17-73"/>
      <use transform="translate(76.471031 0)scale(0.996264)" xlink:href="#CMSS17-66"/>
      <use transform="translate(138.809071 0)scale(0.996264)" xlink:href="#CMSS17-83"/>
      <use transform="translate(190.857587 0)scale(0.996264)" xlink:href="#CMSS17-86"/>
      <use transform="translate(253.075442 0)scale(0.996264)" xlink:href="#CMSS17-77"/>
      <use transform="translate(365.980585 0)scale(0.996264)" xlink:href="#CMSS17-115"/>
      <use transform="translate(401.894127 0)scale(0.996264)" xlink:href="#CMSS17-104"/>
      <use transform="translate(450.09907 0)scale(0.996264)" xlink:href="#CMSS17-114"/>
      <use transform="translate(482.008843 0)scale(0.996264)" xlink:href="#CMSS17-105"/>
      <use transform="translate(504.189566 0)scale(0.996264)" xlink:href="#CMSS17-110"/>
      <use transform="translate(552.394509 0)scale(0.996264)" xlink:href="#CMSS17-107"/>
      <use transform="translate(597.996998 0)scale(0.996264)" xlink:href="#CMSS17-105"/>
      <use transform="translate(620.177721 0)scale(0.996264)" xlink:href="#CMSS17-110"/>
      <use transform="translate(668.382664 0)scale(0.996264)" xlink:href="#CMSS17-103"/>
      <use transform="translate(746.4554 0)scale(0.996264)" xlink:href="#CMSS17-104"/>
      <use transform="translate(794.660344 0)scale(0.996264)" xlink:href="#CMSS17-101"/>
      <use transform="translate(836.299166 0)scale(0.996264)" xlink:href="#CMSS17-117"/>
      <use transform="translate(884.504109 0)scale(0.996264)" xlink:href="#CMSS17-114"/>
      <use transform="translate(916.413881 0)scale(0.996264)" xlink:href="#CMSS17-105"/>
      <use transform="translate(938.594604 0)scale(0.996264)" xlink:href="#CMSS17-115"/>
      <use transform="translate(974.508146 0)scale(0.996264)" xlink:href="#CMSS17-116"/>
      <use transform="translate(1008.339713 0)scale(0.996264)" xlink:href="#CMSS17-105"/>
      <use transform="translate(1030.520436 0)scale(0.996264)" xlink:href="#CMSS17-99"/>
     </g>
    </g>
    <g id="line2d_17">
     <path d="M 41.838478 31.849746 
L 57.838478 31.849746 
" style="fill:none;stroke:#e25508;stroke-dasharray:0.75,1.2375;stroke-dashoffset:0;stroke-width:0.75;"/>
    </g>
    <g id="line2d_18">
     <g>
      <use style="fill:#e25508;stroke:#e25508;stroke-linejoin:miter;" x="49.838478" xlink:href="#mf52a97c41f" y="31.849746"/>
     </g>
    </g>
    <g id="text_16">
     <!-- GS heuristic -->
     <defs>
      <path d="M 56.40625 29 
L 36.5 29 
L 36.5 22.828125 
L 48.796875 22.828125 
L 48.796875 7.359375 
C 44.90625 6.265625 40.90625 5.46875 36.90625 5.46875 
C 22.90625 5.46875 14.59375 20.328125 14.59375 34.375 
C 14.59375 48.359375 23.296875 63 36.90625 63 
C 44.59375 63 48.90625 60.640625 54.203125 56.671875 
L 55.5 64.59375 
C 48.90625 67.984375 44.796875 69.375 37.296875 69.375 
C 17.90625 69.375 6.203125 51.9375 6.203125 34.09375 
C 6.203125 17.03125 18 -1 36.703125 -1 
C 43.703125 -1 50.203125 0.796875 56.40625 3.875 
z
" id="CMSS17-71"/>
     </defs>
     <g transform="translate(64.238478 34.649746)scale(0.08 -0.08)">
      <use transform="scale(0.996264)" xlink:href="#CMSS17-71"/>
      <use transform="translate(62.458226 0)scale(0.996264)" xlink:href="#CMSS17-83"/>
      <use transform="translate(145.735854 0)scale(0.996264)" xlink:href="#CMSS17-104"/>
      <use transform="translate(193.940798 0)scale(0.996264)" xlink:href="#CMSS17-101"/>
      <use transform="translate(235.57962 0)scale(0.996264)" xlink:href="#CMSS17-117"/>
      <use transform="translate(283.784563 0)scale(0.996264)" xlink:href="#CMSS17-114"/>
      <use transform="translate(315.694335 0)scale(0.996264)" xlink:href="#CMSS17-105"/>
      <use transform="translate(337.875058 0)scale(0.996264)" xlink:href="#CMSS17-115"/>
      <use transform="translate(373.7886 0)scale(0.996264)" xlink:href="#CMSS17-116"/>
      <use transform="translate(407.620167 0)scale(0.996264)" xlink:href="#CMSS17-105"/>
      <use transform="translate(429.80089 0)scale(0.996264)" xlink:href="#CMSS17-99"/>
     </g>
    </g>
    <g id="line2d_19">
     <path d="M 41.838478 43.377075 
L 57.838478 43.377075 
" style="fill:none;stroke:#fd8c3b;stroke-dasharray:0.75,1.2375;stroke-dashoffset:0;stroke-width:0.75;"/>
    </g>
    <g id="line2d_20">
     <g>
      <use style="fill:#fd8c3b;stroke:#fd8c3b;" x="49.838478" xlink:href="#m16d0b0acdf" y="43.377075"/>
     </g>
    </g>
    <g id="text_17">
     <!-- SVM training (post GSH) -->
     <defs>
      <path d="M 57.40625 69 
L 49 69 
L 49 39.078125 
L 17.203125 39.078125 
L 17.203125 69 
L 8.796875 69 
L 8.796875 0 
L 17.203125 0 
L 17.203125 33 
L 49 33 
L 49 0 
L 57.40625 0 
z
" id="CMSS17-72"/>
     </defs>
     <g transform="translate(64.238478 46.177075)scale(0.08 -0.08)">
      <use transform="scale(0.996264)" xlink:href="#CMSS17-83"/>
      <use transform="translate(52.048516 0)scale(0.996264)" xlink:href="#CMSS17-86"/>
      <use transform="translate(114.266371 0)scale(0.996264)" xlink:href="#CMSS17-77"/>
      <use transform="translate(227.171514 0)scale(0.996264)" xlink:href="#CMSS17-116"/>
      <use transform="translate(261.00308 0)scale(0.996264)" xlink:href="#CMSS17-114"/>
      <use transform="translate(292.912853 0)scale(0.996264)" xlink:href="#CMSS17-97"/>
      <use transform="translate(337.834774 0)scale(0.996264)" xlink:href="#CMSS17-105"/>
      <use transform="translate(360.015497 0)scale(0.996264)" xlink:href="#CMSS17-110"/>
      <use transform="translate(408.22044 0)scale(0.996264)" xlink:href="#CMSS17-105"/>
      <use transform="translate(430.401163 0)scale(0.996264)" xlink:href="#CMSS17-110"/>
      <use transform="translate(478.606106 0)scale(0.996264)" xlink:href="#CMSS17-103"/>
      <use transform="translate(556.678842 0)scale(0.996264)" xlink:href="#CMSS17-40"/>
      <use transform="translate(593.112756 0)scale(0.996264)" xlink:href="#CMSS17-112"/>
      <use transform="translate(643.920138 0)scale(0.996264)" xlink:href="#CMSS17-111"/>
      <use transform="translate(690.763762 0)scale(0.996264)" xlink:href="#CMSS17-115"/>
      <use transform="translate(726.677304 0)scale(0.996264)" xlink:href="#CMSS17-116"/>
      <use transform="translate(791.737983 0)scale(0.996264)" xlink:href="#CMSS17-71"/>
      <use transform="translate(854.196209 0)scale(0.996264)" xlink:href="#CMSS17-83"/>
      <use transform="translate(906.244725 0)scale(0.996264)" xlink:href="#CMSS17-72"/>
      <use transform="translate(972.306244 0)scale(0.996264)" xlink:href="#CMSS17-41"/>
     </g>
    </g>
   </g>
  </g>
  <g id="axes_2">
   <g id="patch_6">
    <path d="M 276.676823 111.915725 
L 462.230116 111.915725 
L 462.230116 10.7 
L 276.676823 10.7 
z
" style="fill:#ffffff;"/>
   </g>
   <g id="matplotlib.axis_3">
    <g id="xtick_6">
     <g id="line2d_21">
      <g>
       <use style="fill:#808080;stroke:#808080;stroke-width:0.8;" x="285.512694" xlink:href="#m5d4b163a86" y="111.915725"/>
      </g>
     </g>
     <g id="text_18">
      <!-- $3k$ -->
      <defs>
       <path d="M 22.09375 33.703125 
C 31 33.703125 34.90625 25.96875 34.90625 17.03125 
C 34.90625 5 28.5 0.390625 22.703125 0.390625 
C 17.40625 0.390625 8.796875 3.03125 6.09375 10.828125 
C 6.59375 10.625 7.09375 10.625 7.59375 10.625 
C 10 10.625 11.796875 12.21875 11.796875 14.8125 
C 11.796875 17.703125 9.59375 19 7.59375 19 
C 5.90625 19 3.296875 18.203125 3.296875 14.46875 
C 3.296875 5.234375 12.296875 -2 22.90625 -2 
C 34 -2 42.5 6.71875 42.5 16.953125 
C 42.5 26.671875 34.5 33.703125 25 34.796875 
C 32.59375 36.375 39.90625 43.0625 39.90625 52.015625 
C 39.90625 59.6875 32 65.296875 23 65.296875 
C 13.90625 65.296875 5.90625 59.828125 5.90625 52.015625 
C 5.90625 48.59375 8.5 48 9.796875 48 
C 11.90625 48 13.703125 49.296875 13.703125 51.890625 
C 13.703125 54.46875 11.90625 55.765625 9.796875 55.765625 
C 9.40625 55.765625 8.90625 55.765625 8.5 55.578125 
C 11.40625 61.859375 19.296875 63 22.796875 63 
C 26.296875 63 32.90625 61.328125 32.90625 51.875 
C 32.90625 49.109375 32.5 44.1875 29.09375 39.84375 
C 26.09375 36 22.703125 36 19.40625 35.6875 
C 18.90625 35.6875 16.59375 35.453125 16.203125 35.453125 
C 15.5 35.359375 15.09375 35.265625 15.09375 34.5 
C 15.09375 33.796875 15.203125 33.703125 17.203125 33.703125 
z
" id="CMR17-51"/>
      </defs>
      <g transform="translate(281.19088 124.450527)scale(0.08 -0.08)">
       <use transform="scale(0.996264)" xlink:href="#CMR17-51"/>
       <use transform="translate(45.690477 0)scale(0.996264)" xlink:href="#CMMI12-107"/>
      </g>
     </g>
    </g>
    <g id="xtick_7">
     <g id="line2d_22">
      <g>
       <use style="fill:#808080;stroke:#808080;stroke-width:0.8;" x="302.385211" xlink:href="#m5d4b163a86" y="111.915725"/>
      </g>
     </g>
     <g id="text_19">
      <!-- $60k$ -->
      <defs>
       <path d="M 10.59375 34 
C 10.59375 57.65625 21.796875 63 28.296875 63 
C 30.40625 63 35.5 62.640625 37.5 59 
C 35.90625 59 32.90625 59 32.90625 55.515625 
C 32.90625 52.828125 35.09375 51.921875 36.5 51.921875 
C 37.40625 51.921875 40.09375 52.3125 40.09375 55.625 
C 40.09375 61.78125 35.09375 65.296875 28.203125 65.296875 
C 16.296875 65.296875 3.796875 52.96875 3.796875 31 
C 3.796875 3.953125 15.09375 -2 23.09375 -2 
C 32.796875 -2 42 6.671875 42 20.046875 
C 42 32.515625 33.90625 41.59375 23.703125 41.59375 
C 17.59375 41.59375 13.09375 37.609375 10.59375 30.625 
z
M 23.09375 0.390625 
C 10.796875 0.390625 10.796875 18.75 10.796875 22.4375 
C 10.796875 29.625 14.203125 40 23.5 40 
C 25.203125 40 30.09375 40 33.40625 33.125 
C 35.203125 29.21875 35.203125 25.140625 35.203125 20.140625 
C 35.203125 14.75 35.203125 10.78125 33.09375 6.78125 
C 30.90625 2.671875 27.703125 0.390625 23.09375 0.390625 
z
" id="CMR17-54"/>
      </defs>
      <g transform="translate(295.946306 124.450527)scale(0.08 -0.08)">
       <use transform="scale(0.996264)" xlink:href="#CMR17-54"/>
       <use transform="translate(45.690477 0)scale(0.996264)" xlink:href="#CMR17-48"/>
       <use transform="translate(91.380954 0)scale(0.996264)" xlink:href="#CMMI12-107"/>
      </g>
     </g>
    </g>
    <g id="xtick_8">
     <g id="line2d_23">
      <g>
       <use style="fill:#808080;stroke:#808080;stroke-width:0.8;" x="329.026029" xlink:href="#m5d4b163a86" y="111.915725"/>
      </g>
     </g>
     <g id="text_20">
      <!-- $150k$ -->
      <g transform="translate(320.470032 124.450527)scale(0.08 -0.08)">
       <use transform="scale(0.996264)" xlink:href="#CMR17-49"/>
       <use transform="translate(45.690477 0)scale(0.996264)" xlink:href="#CMR17-53"/>
       <use transform="translate(91.380954 0)scale(0.996264)" xlink:href="#CMR17-48"/>
       <use transform="translate(137.071431 0)scale(0.996264)" xlink:href="#CMMI12-107"/>
      </g>
     </g>
    </g>
    <g id="xtick_9">
     <g id="line2d_24">
      <g>
       <use style="fill:#808080;stroke:#808080;stroke-width:0.8;" x="373.427391" xlink:href="#m5d4b163a86" y="111.915725"/>
      </g>
     </g>
     <g id="text_21">
      <!-- $300k$ -->
      <g transform="translate(364.871395 124.450527)scale(0.08 -0.08)">
       <use transform="scale(0.996264)" xlink:href="#CMR17-51"/>
       <use transform="translate(45.690477 0)scale(0.996264)" xlink:href="#CMR17-48"/>
       <use transform="translate(91.380954 0)scale(0.996264)" xlink:href="#CMR17-48"/>
       <use transform="translate(137.071431 0)scale(0.996264)" xlink:href="#CMMI12-107"/>
      </g>
     </g>
    </g>
    <g id="xtick_10">
     <g id="line2d_25">
      <g>
       <use style="fill:#808080;stroke:#808080;stroke-width:0.8;" x="462.230116" xlink:href="#m5d4b163a86" y="111.915725"/>
      </g>
     </g>
     <g id="text_22">
      <!-- $600k$ -->
      <g transform="translate(453.674119 124.450527)scale(0.08 -0.08)">
       <use transform="scale(0.996264)" xlink:href="#CMR17-54"/>
       <use transform="translate(45.690477 0)scale(0.996264)" xlink:href="#CMR17-48"/>
       <use transform="translate(91.380954 0)scale(0.996264)" xlink:href="#CMR17-48"/>
       <use transform="translate(137.071431 0)scale(0.996264)" xlink:href="#CMMI12-107"/>
      </g>
     </g>
    </g>
    <g id="text_23">
     <!-- Number of testing data points -->
     <g transform="translate(315.798383 135.535074)scale(0.08 -0.08)">
      <use transform="scale(0.996264)" xlink:href="#CMSS17-78"/>
      <use transform="translate(66.061519 0)scale(0.996264)" xlink:href="#CMSS17-117"/>
      <use transform="translate(114.266462 0)scale(0.996264)" xlink:href="#CMSS17-109"/>
      <use transform="translate(188.495717 0)scale(0.996264)" xlink:href="#CMSS17-98"/>
      <use transform="translate(239.303099 0)scale(0.996264)" xlink:href="#CMSS17-101"/>
      <use transform="translate(280.941921 0)scale(0.996264)" xlink:href="#CMSS17-114"/>
      <use transform="translate(344.080806 0)scale(0.996264)" xlink:href="#CMSS17-111"/>
      <use transform="translate(390.92443 0)scale(0.996264)" xlink:href="#CMSS17-102"/>
      <use transform="translate(450.780201 0)scale(0.996264)" xlink:href="#CMSS17-116"/>
      <use transform="translate(484.611768 0)scale(0.996264)" xlink:href="#CMSS17-101"/>
      <use transform="translate(526.25059 0)scale(0.996264)" xlink:href="#CMSS17-115"/>
      <use transform="translate(562.164132 0)scale(0.996264)" xlink:href="#CMSS17-116"/>
      <use transform="translate(595.995699 0)scale(0.996264)" xlink:href="#CMSS17-105"/>
      <use transform="translate(618.176422 0)scale(0.996264)" xlink:href="#CMSS17-110"/>
      <use transform="translate(666.381365 0)scale(0.996264)" xlink:href="#CMSS17-103"/>
      <use transform="translate(744.454101 0)scale(0.996264)" xlink:href="#CMSS17-100"/>
      <use transform="translate(792.659044 0)scale(0.996264)" xlink:href="#CMSS17-97"/>
      <use transform="translate(837.580965 0)scale(0.996264)" xlink:href="#CMSS17-116"/>
      <use transform="translate(871.412531 0)scale(0.996264)" xlink:href="#CMSS17-97"/>
      <use transform="translate(947.563565 0)scale(0.996264)" xlink:href="#CMSS17-112"/>
      <use transform="translate(998.370947 0)scale(0.996264)" xlink:href="#CMSS17-111"/>
      <use transform="translate(1045.21457 0)scale(0.996264)" xlink:href="#CMSS17-105"/>
      <use transform="translate(1067.395293 0)scale(0.996264)" xlink:href="#CMSS17-110"/>
      <use transform="translate(1115.600236 0)scale(0.996264)" xlink:href="#CMSS17-116"/>
      <use transform="translate(1149.431803 0)scale(0.996264)" xlink:href="#CMSS17-115"/>
     </g>
    </g>
   </g>
   <g id="matplotlib.axis_4">
    <g id="ytick_7">
     <g id="line2d_26">
      <g>
       <use style="fill:#808080;stroke:#808080;stroke-width:0.8;" x="276.676823" xlink:href="#mf1719c7e67" y="110.920133"/>
      </g>
     </g>
     <g id="text_24">
      <!-- $98.0$ -->
      <defs>
       <path d="M 35.203125 29.125 
C 35.203125 7.25 26.09375 0.484375 18.59375 0.484375 
C 16.296875 0.484375 10.703125 0.484375 8.40625 4.59375 
C 11 4.1875 12.90625 5.578125 12.90625 8.09375 
C 12.90625 10.8125 10.703125 11.703125 9.296875 11.703125 
C 8.40625 11.703125 5.703125 11.296875 5.703125 7.90625 
C 5.703125 1.109375 11.59375 -2 18.796875 -2 
C 30.296875 -2 42 10.53125 42 32.390625 
C 42 59.640625 30.796875 65.296875 23.203125 65.296875 
C 13.296875 65.296875 3.796875 56.6875 3.796875 43.40625 
C 3.796875 31.109375 11.90625 22 22.09375 22 
C 30.5 22 34.203125 29.734375 35.203125 33 
z
M 22.296875 23.59375 
C 19.59375 23.59375 15.796875 24.09375 12.703125 30.03125 
C 10.59375 33.890625 10.59375 38.453125 10.59375 43.296875 
C 10.59375 49.15625 10.59375 53.203125 13.40625 57.5625 
C 14.796875 59.640625 17.40625 63 23.203125 63 
C 35 63 35 45.078125 35 41.125 
C 35 34.09375 31.796875 23.59375 22.296875 23.59375 
z
" id="CMR17-57"/>
       <path d="M 27.203125 35.375 
C 33.5 38.546875 39.90625 43.328125 39.90625 50.984375 
C 39.90625 60.015625 31.09375 65.296875 23 65.296875 
C 13.90625 65.296875 5.90625 58.734375 5.90625 49.6875 
C 5.90625 47.203125 6.5 42.921875 10.40625 39.140625 
C 11.40625 38.15625 15.59375 35.171875 18.296875 33.28125 
C 13.796875 30.984375 3.296875 25.53125 3.296875 14.59375 
C 3.296875 4.359375 13.09375 -2 22.796875 -2 
C 33.5 -2 42.5 5.65625 42.5 15.78125 
C 42.5 24.84375 36.40625 29.015625 32.40625 31.703125 
z
M 14.09375 44.09375 
C 13.296875 44.59375 9.296875 47.671875 9.296875 52.359375 
C 9.296875 58.421875 15.59375 63 22.796875 63 
C 30.703125 63 36.5 57.4375 36.5 50.96875 
C 36.5 41.703125 26.09375 36.421875 25.59375 36.421875 
C 25.5 36.421875 25.40625 36.421875 24.59375 37.03125 
z
M 32.5 23.734375 
C 34 22.640625 38.796875 19.375 38.796875 13.296875 
C 38.796875 5.953125 31.40625 0.390625 23 0.390625 
C 13.90625 0.390625 7 6.84375 7 14.6875 
C 7 22.546875 13.09375 29.09375 20 32.1875 
z
" id="CMR17-56"/>
       <path d="M 18.40625 4.796875 
C 18.40625 7.6875 16 9.671875 13.59375 9.671875 
C 10.703125 9.671875 8.703125 7.28125 8.703125 4.890625 
C 8.703125 2 11.09375 0 13.5 0 
C 16.40625 0 18.40625 2.390625 18.40625 4.796875 
z
" id="CMMI12-58"/>
      </defs>
      <g transform="translate(254.62195 113.687534)scale(0.08 -0.08)">
       <use transform="scale(0.996264)" xlink:href="#CMR17-57"/>
       <use transform="translate(45.690477 0)scale(0.996264)" xlink:href="#CMR17-56"/>
       <use transform="translate(91.380954 0)scale(0.996264)" xlink:href="#CMMI12-58"/>
       <use transform="translate(118.478131 0)scale(0.996264)" xlink:href="#CMR17-48"/>
      </g>
     </g>
    </g>
    <g id="ytick_8">
     <g id="line2d_27">
      <g>
       <use style="fill:#808080;stroke:#808080;stroke-width:0.8;" x="276.676823" xlink:href="#mf1719c7e67" y="80.553905"/>
      </g>
     </g>
     <g id="text_25">
      <!-- $98.5$ -->
      <g transform="translate(254.62195 83.321306)scale(0.08 -0.08)">
       <use transform="scale(0.996264)" xlink:href="#CMR17-57"/>
       <use transform="translate(45.690477 0)scale(0.996264)" xlink:href="#CMR17-56"/>
       <use transform="translate(91.380954 0)scale(0.996264)" xlink:href="#CMMI12-58"/>
       <use transform="translate(118.478131 0)scale(0.996264)" xlink:href="#CMR17-53"/>
      </g>
     </g>
    </g>
    <g id="ytick_9">
     <g id="line2d_28">
      <g>
       <use style="fill:#808080;stroke:#808080;stroke-width:0.8;" x="276.676823" xlink:href="#mf1719c7e67" y="50.187677"/>
      </g>
     </g>
     <g id="text_26">
      <!-- $99.0$ -->
      <g transform="translate(254.62195 52.955077)scale(0.08 -0.08)">
       <use transform="scale(0.996264)" xlink:href="#CMR17-57"/>
       <use transform="translate(45.690477 0)scale(0.996264)" xlink:href="#CMR17-57"/>
       <use transform="translate(91.380954 0)scale(0.996264)" xlink:href="#CMMI12-58"/>
       <use transform="translate(118.478131 0)scale(0.996264)" xlink:href="#CMR17-48"/>
      </g>
     </g>
    </g>
    <g id="ytick_10">
     <g id="line2d_29">
      <g>
       <use style="fill:#808080;stroke:#808080;stroke-width:0.8;" x="276.676823" xlink:href="#mf1719c7e67" y="19.821448"/>
      </g>
     </g>
     <g id="text_27">
      <!-- $99.5$ -->
      <g transform="translate(254.62195 22.588849)scale(0.08 -0.08)">
       <use transform="scale(0.996264)" xlink:href="#CMR17-57"/>
       <use transform="translate(45.690477 0)scale(0.996264)" xlink:href="#CMR17-57"/>
       <use transform="translate(91.380954 0)scale(0.996264)" xlink:href="#CMMI12-58"/>
       <use transform="translate(118.478131 0)scale(0.996264)" xlink:href="#CMR17-53"/>
      </g>
     </g>
    </g>
    <g id="text_28">
     <!-- Accuracy (\%) -->
     <defs>
      <path d="M 35.5 69 
L 26.90625 69 
L 2.59375 0 
L 10.203125 0 
L 17.203125 20 
L 44 20 
L 51.09375 0 
L 59.796875 0 
z
M 42.09375 25.578125 
L 19.09375 25.578125 
C 23.90625 39.5 29.90625 56.84375 30.59375 61.328125 
L 30.703125 61.328125 
C 31.40625 57.234375 33.40625 51.265625 35.09375 46.1875 
z
" id="CMSS17-65"/>
      <path d="M 41.796875 43 
L 34 43 
C 25.5 20.21875 22.59375 10.96875 22.40625 5.984375 
L 22.296875 5.984375 
C 22 10.875 17.59375 22.8125 14.09375 31.359375 
L 9.40625 43 
L 1.296875 43 
L 19 0.203125 
C 17.90625 -2.78125 16.296875 -7.265625 15.796875 -8.265625 
C 13.59375 -13.828125 12.09375 -13.828125 10.5 -13.828125 
C 10.09375 -13.828125 6.90625 -13.828125 3.296875 -12.640625 
L 3.90625 -19.203125 
C 6.40625 -19.703125 8.90625 -20 10.703125 -20 
C 13.203125 -20 18.203125 -20 22.796875 -7.765625 
z
" id="CMSS17-121"/>
      <path d="M 61.296875 71.609375 
C 61.90625 72.609375 61.90625 73.109375 61.90625 73.203125 
C 61.90625 74.296875 61 75 60.203125 75 
C 59.09375 75 58.59375 74.203125 58.09375 73.203125 
L 17.203125 -1.625 
C 17 -2.015625 16.59375 -2.609375 16.59375 -3.21875 
C 16.59375 -4.3125 17.5 -5 18.40625 -5 
C 19.296875 -5 19.5 -4.609375 20.296875 -3.21875 
z
M 73.09375 14.984375 
C 73.09375 26.53125 66.90625 35 60.09375 35 
C 53.40625 35 47 26.734375 47 14.984375 
C 47 3.25 53.40625 -5 60.09375 -5 
C 67 -5 73.09375 3.453125 73.09375 14.984375 
z
M 60.09375 1.0625 
C 58 1.0625 54.59375 2.953125 54.59375 14.984375 
C 54.59375 26.9375 58 28.921875 60.09375 28.921875 
C 63.796875 28.921875 65.796875 21.65625 65.796875 14.984375 
C 65.796875 8.328125 63.796875 1.0625 60.09375 1.0625 
z
M 31.296875 54.984375 
C 31.296875 66.53125 25.09375 75 18.296875 75 
C 11.59375 75 5.203125 66.734375 5.203125 54.984375 
C 5.203125 43.25 11.59375 35 18.296875 35 
C 25.203125 35 31.296875 43.453125 31.296875 54.984375 
z
M 18.296875 41.0625 
C 16.203125 41.0625 12.796875 42.953125 12.796875 54.984375 
C 12.796875 66.9375 16.203125 68.921875 18.296875 68.921875 
C 22 68.921875 24 61.65625 24 54.984375 
C 24 48.328125 22 41.0625 18.296875 41.0625 
z
" id="CMSS17-37"/>
     </defs>
     <g transform="translate(248.629422 85.626731)rotate(-90)scale(0.08 -0.08)">
      <use transform="scale(0.996264)" xlink:href="#CMSS17-65"/>
      <use transform="translate(62.217855 0)scale(0.996264)" xlink:href="#CMSS17-99"/>
      <use transform="translate(103.856677 0)scale(0.996264)" xlink:href="#CMSS17-99"/>
      <use transform="translate(145.495499 0)scale(0.996264)" xlink:href="#CMSS17-117"/>
      <use transform="translate(193.700442 0)scale(0.996264)" xlink:href="#CMSS17-114"/>
      <use transform="translate(225.610215 0)scale(0.996264)" xlink:href="#CMSS17-97"/>
      <use transform="translate(270.532135 0)scale(0.996264)" xlink:href="#CMSS17-99"/>
      <use transform="translate(312.170957 0)scale(0.996264)" xlink:href="#CMSS17-121"/>
      <use transform="translate(386.400212 0)scale(0.996264)" xlink:href="#CMSS17-40"/>
      <use transform="translate(422.834126 0)scale(0.996264)" xlink:href="#CMSS17-37"/>
      <use transform="translate(500.906862 0)scale(0.996264)" xlink:href="#CMSS17-41"/>
     </g>
    </g>
   </g>
   <g id="line2d_30">
    <path d="M 285.512694 27.919109 
L 285.921186 53.238165 
L 286.517052 19.854698 
L 287.388207 33.690514 
L 288.658974 15.300715 
L 290.515839 23.632866 
L 293.226098 15.580752 
L 297.183148 18.657646 
L 302.959765 23.085986 
L 311.395136 19.741535 
L 323.710298 19.443831 
L 341.690185 19.635108 
L 367.942047 20.526044 
L 406.270191 18.583603 
L 462.230116 19.639251 
" style="fill:none;stroke:#2e7ebc;stroke-linecap:square;stroke-width:0.75;"/>
    <g>
     <use style="fill:#2e7ebc;stroke:#2e7ebc;stroke-linejoin:miter;" x="285.512694" xlink:href="#m9aeed2c9ec" y="27.919109"/>
     <use style="fill:#2e7ebc;stroke:#2e7ebc;stroke-linejoin:miter;" x="285.921186" xlink:href="#m9aeed2c9ec" y="53.238165"/>
     <use style="fill:#2e7ebc;stroke:#2e7ebc;stroke-linejoin:miter;" x="286.517052" xlink:href="#m9aeed2c9ec" y="19.854698"/>
     <use style="fill:#2e7ebc;stroke:#2e7ebc;stroke-linejoin:miter;" x="287.388207" xlink:href="#m9aeed2c9ec" y="33.690514"/>
     <use style="fill:#2e7ebc;stroke:#2e7ebc;stroke-linejoin:miter;" x="288.658974" xlink:href="#m9aeed2c9ec" y="15.300715"/>
     <use style="fill:#2e7ebc;stroke:#2e7ebc;stroke-linejoin:miter;" x="290.515839" xlink:href="#m9aeed2c9ec" y="23.632866"/>
     <use style="fill:#2e7ebc;stroke:#2e7ebc;stroke-linejoin:miter;" x="293.226098" xlink:href="#m9aeed2c9ec" y="15.580752"/>
     <use style="fill:#2e7ebc;stroke:#2e7ebc;stroke-linejoin:miter;" x="297.183148" xlink:href="#m9aeed2c9ec" y="18.657646"/>
     <use style="fill:#2e7ebc;stroke:#2e7ebc;stroke-linejoin:miter;" x="302.959765" xlink:href="#m9aeed2c9ec" y="23.085986"/>
     <use style="fill:#2e7ebc;stroke:#2e7ebc;stroke-linejoin:miter;" x="311.395136" xlink:href="#m9aeed2c9ec" y="19.741535"/>
     <use style="fill:#2e7ebc;stroke:#2e7ebc;stroke-linejoin:miter;" x="323.710298" xlink:href="#m9aeed2c9ec" y="19.443831"/>
     <use style="fill:#2e7ebc;stroke:#2e7ebc;stroke-linejoin:miter;" x="341.690185" xlink:href="#m9aeed2c9ec" y="19.635108"/>
     <use style="fill:#2e7ebc;stroke:#2e7ebc;stroke-linejoin:miter;" x="367.942047" xlink:href="#m9aeed2c9ec" y="20.526044"/>
     <use style="fill:#2e7ebc;stroke:#2e7ebc;stroke-linejoin:miter;" x="406.270191" xlink:href="#m9aeed2c9ec" y="18.583603"/>
     <use style="fill:#2e7ebc;stroke:#2e7ebc;stroke-linejoin:miter;" x="462.230116" xlink:href="#m9aeed2c9ec" y="19.639251"/>
    </g>
   </g>
   <g id="line2d_31">
    <path d="M 285.512694 42.090016 
L 285.921186 107.31501 
L 286.517052 29.354535 
L 287.388207 36.29259 
L 288.658974 15.300715 
L 290.515839 23.632866 
L 293.226098 15.580752 
L 297.183148 18.657646 
L 302.959765 23.085986 
L 311.395136 19.741535 
L 323.710298 19.443831 
L 341.690185 19.635108 
L 367.942047 20.526044 
L 406.270191 18.583603 
L 462.230116 19.639251 
" style="fill:none;stroke:#e25508;stroke-dasharray:0.75,1.2375;stroke-dashoffset:0;stroke-width:0.75;"/>
    <g>
     <use style="fill:#e25508;stroke:#e25508;stroke-linejoin:miter;" x="285.512694" xlink:href="#mf52a97c41f" y="42.090016"/>
     <use style="fill:#e25508;stroke:#e25508;stroke-linejoin:miter;" x="285.921186" xlink:href="#mf52a97c41f" y="107.31501"/>
     <use style="fill:#e25508;stroke:#e25508;stroke-linejoin:miter;" x="286.517052" xlink:href="#mf52a97c41f" y="29.354535"/>
     <use style="fill:#e25508;stroke:#e25508;stroke-linejoin:miter;" x="287.388207" xlink:href="#mf52a97c41f" y="36.29259"/>
     <use style="fill:#e25508;stroke:#e25508;stroke-linejoin:miter;" x="288.658974" xlink:href="#mf52a97c41f" y="15.300715"/>
     <use style="fill:#e25508;stroke:#e25508;stroke-linejoin:miter;" x="290.515839" xlink:href="#mf52a97c41f" y="23.632866"/>
     <use style="fill:#e25508;stroke:#e25508;stroke-linejoin:miter;" x="293.226098" xlink:href="#mf52a97c41f" y="15.580752"/>
     <use style="fill:#e25508;stroke:#e25508;stroke-linejoin:miter;" x="297.183148" xlink:href="#mf52a97c41f" y="18.657646"/>
     <use style="fill:#e25508;stroke:#e25508;stroke-linejoin:miter;" x="302.959765" xlink:href="#mf52a97c41f" y="23.085986"/>
     <use style="fill:#e25508;stroke:#e25508;stroke-linejoin:miter;" x="311.395136" xlink:href="#mf52a97c41f" y="19.741535"/>
     <use style="fill:#e25508;stroke:#e25508;stroke-linejoin:miter;" x="323.710298" xlink:href="#mf52a97c41f" y="19.443831"/>
     <use style="fill:#e25508;stroke:#e25508;stroke-linejoin:miter;" x="341.690185" xlink:href="#mf52a97c41f" y="19.635108"/>
     <use style="fill:#e25508;stroke:#e25508;stroke-linejoin:miter;" x="367.942047" xlink:href="#mf52a97c41f" y="20.526044"/>
     <use style="fill:#e25508;stroke:#e25508;stroke-linejoin:miter;" x="406.270191" xlink:href="#mf52a97c41f" y="18.583603"/>
     <use style="fill:#e25508;stroke:#e25508;stroke-linejoin:miter;" x="462.230116" xlink:href="#mf52a97c41f" y="19.639251"/>
    </g>
   </g>
   <g id="patch_7">
    <path d="M 276.676823 111.915725 
L 276.676823 10.7 
" style="fill:none;stroke:#808080;stroke-linecap:square;stroke-linejoin:miter;stroke-width:0.5;"/>
   </g>
   <g id="patch_8">
    <path d="M 276.676823 111.915725 
L 462.230116 111.915725 
" style="fill:none;stroke:#808080;stroke-linecap:square;stroke-linejoin:miter;stroke-width:0.5;"/>
   </g>
   <g id="text_29">
    <!-- (b) -->
    <g transform="translate(363.973941 146.402015)scale(0.08 -0.08)">
     <use transform="scale(0.996264)" xlink:href="#CMSS17-40"/>
     <use transform="translate(36.433914 0)scale(0.996264)" xlink:href="#CMSS17-98"/>
     <use transform="translate(84.638857 0)scale(0.996264)" xlink:href="#CMSS17-41"/>
    </g>
   </g>
   <g id="legend_2">
    <g id="patch_9">
     <path d="M 333.862603 107.915725 
L 456.630116 107.915725 
Q 458.230116 107.915725 458.230116 106.315725 
L 458.230116 84.816234 
Q 458.230116 83.216234 456.630116 83.216234 
L 333.862603 83.216234 
Q 332.262603 83.216234 332.262603 84.816234 
L 332.262603 106.315725 
Q 332.262603 107.915725 333.862603 107.915725 
z
" style="fill:#ffffff;opacity:0.8;stroke:#cccccc;stroke-linejoin:miter;"/>
    </g>
    <g id="line2d_32">
     <path d="M 335.462603 89.216234 
L 351.462603 89.216234 
" style="fill:none;stroke:#2e7ebc;stroke-linecap:square;stroke-width:0.75;"/>
    </g>
    <g id="line2d_33">
     <g>
      <use style="fill:#2e7ebc;stroke:#2e7ebc;stroke-linejoin:miter;" x="343.462603" xlink:href="#m9aeed2c9ec" y="89.216234"/>
     </g>
    </g>
    <g id="text_30">
     <!-- LIBSVM shrinking heuristic -->
     <g transform="translate(357.862603 92.016234)scale(0.08 -0.08)">
      <use transform="scale(0.996264)" xlink:href="#CMSS17-76"/>
      <use transform="translate(50.687105 0)scale(0.996264)" xlink:href="#CMSS17-73"/>
      <use transform="translate(76.471031 0)scale(0.996264)" xlink:href="#CMSS17-66"/>
      <use transform="translate(138.809071 0)scale(0.996264)" xlink:href="#CMSS17-83"/>
      <use transform="translate(190.857587 0)scale(0.996264)" xlink:href="#CMSS17-86"/>
      <use transform="translate(253.075442 0)scale(0.996264)" xlink:href="#CMSS17-77"/>
      <use transform="translate(365.980585 0)scale(0.996264)" xlink:href="#CMSS17-115"/>
      <use transform="translate(401.894127 0)scale(0.996264)" xlink:href="#CMSS17-104"/>
      <use transform="translate(450.09907 0)scale(0.996264)" xlink:href="#CMSS17-114"/>
      <use transform="translate(482.008843 0)scale(0.996264)" xlink:href="#CMSS17-105"/>
      <use transform="translate(504.189566 0)scale(0.996264)" xlink:href="#CMSS17-110"/>
      <use transform="translate(552.394509 0)scale(0.996264)" xlink:href="#CMSS17-107"/>
      <use transform="translate(597.996998 0)scale(0.996264)" xlink:href="#CMSS17-105"/>
      <use transform="translate(620.177721 0)scale(0.996264)" xlink:href="#CMSS17-110"/>
      <use transform="translate(668.382664 0)scale(0.996264)" xlink:href="#CMSS17-103"/>
      <use transform="translate(746.4554 0)scale(0.996264)" xlink:href="#CMSS17-104"/>
      <use transform="translate(794.660344 0)scale(0.996264)" xlink:href="#CMSS17-101"/>
      <use transform="translate(836.299166 0)scale(0.996264)" xlink:href="#CMSS17-117"/>
      <use transform="translate(884.504109 0)scale(0.996264)" xlink:href="#CMSS17-114"/>
      <use transform="translate(916.413881 0)scale(0.996264)" xlink:href="#CMSS17-105"/>
      <use transform="translate(938.594604 0)scale(0.996264)" xlink:href="#CMSS17-115"/>
      <use transform="translate(974.508146 0)scale(0.996264)" xlink:href="#CMSS17-116"/>
      <use transform="translate(1008.339713 0)scale(0.996264)" xlink:href="#CMSS17-105"/>
      <use transform="translate(1030.520436 0)scale(0.996264)" xlink:href="#CMSS17-99"/>
     </g>
    </g>
    <g id="line2d_34">
     <path d="M 335.462603 100.365979 
L 351.462603 100.365979 
" style="fill:none;stroke:#e25508;stroke-dasharray:0.75,1.2375;stroke-dashoffset:0;stroke-width:0.75;"/>
    </g>
    <g id="line2d_35">
     <g>
      <use style="fill:#e25508;stroke:#e25508;stroke-linejoin:miter;" x="343.462603" xlink:href="#mf52a97c41f" y="100.365979"/>
     </g>
    </g>
    <g id="text_31">
     <!-- GS heuristic -->
     <g transform="translate(357.862603 103.165979)scale(0.08 -0.08)">
      <use transform="scale(0.996264)" xlink:href="#CMSS17-71"/>
      <use transform="translate(62.458226 0)scale(0.996264)" xlink:href="#CMSS17-83"/>
      <use transform="translate(145.735854 0)scale(0.996264)" xlink:href="#CMSS17-104"/>
      <use transform="translate(193.940798 0)scale(0.996264)" xlink:href="#CMSS17-101"/>
      <use transform="translate(235.57962 0)scale(0.996264)" xlink:href="#CMSS17-117"/>
      <use transform="translate(283.784563 0)scale(0.996264)" xlink:href="#CMSS17-114"/>
      <use transform="translate(315.694335 0)scale(0.996264)" xlink:href="#CMSS17-105"/>
      <use transform="translate(337.875058 0)scale(0.996264)" xlink:href="#CMSS17-115"/>
      <use transform="translate(373.7886 0)scale(0.996264)" xlink:href="#CMSS17-116"/>
      <use transform="translate(407.620167 0)scale(0.996264)" xlink:href="#CMSS17-105"/>
      <use transform="translate(429.80089 0)scale(0.996264)" xlink:href="#CMSS17-99"/>
     </g>
    </g>
   </g>
  </g>
 </g>
</svg>
