<svg xmlns="http://www.w3.org/2000/svg" xmlns:xlink="http://www.w3.org/1999/xlink" xmlns:lucid="lucid" width="960" height="542.93"><g transform="translate(-55.433070866141804 -26.40512256734126)" lucid:page-tab-id="0_0"><path d="M0 0h1070.87v579.32H0z" fill="#fff"/><path d="M679.18 445.45h43.13v88.8H679.2z" stroke="#fff" fill="#fff"/><use xlink:href="#a" transform="matrix(1,0,0,1,684.1830708661419,450.45483657131757) translate(12.061728395061728 43.05555555555556)"/><path d="M549.8 338.9H851.7v124.3H549.8z" stroke="#000" fill="#fff"/><use xlink:href="#b" transform="matrix(1,0,0,1,554.8080708661419,343.914554145871) translate(129.7283950617284 61.05555555555555)"/><path d="M837.3 143.6h43.13v53.26H837.3z" stroke="#fff" fill="#fff"/><use xlink:href="#a" transform="matrix(1,0,0,1,842.3080708661416,148.59070303255191) translate(12.061728395061728 25.555555555555557)"/><path d="M736.68 125.83h71.88v88.8h-71.88z" stroke="#fff" fill="#fff"/><use xlink:href="#c" transform="matrix(1,0,0,1,741.6830708661419,130.83398929497747) translate(26.061728395061728 43.05555555555556)"/><path d="M592.93 125.83h71.88v88.8h-71.87z" stroke="#fff" fill="#fff"/><use xlink:href="#d" transform="matrix(1,0,0,1,597.9330708661419,130.83398929497747) translate(24.604938271604937 43.05555555555556)"/><path d="M506.68 125.83h71.88v88.8h-71.88z" stroke="#fff" fill="#fff"/><use xlink:href="#e" transform="matrix(1,0,0,1,511.683070866142,130.83398929497747) translate(9.543209876543205 43.05555555555556)"/><use xlink:href="#f" transform="matrix(1,0,0,1,511.683070866142,130.83398929497747) translate(27.271604938271604 43.05555555555556)"/><use xlink:href="#g" transform="matrix(1,0,0,1,511.683070866142,130.83398929497747) translate(42.580246913580254 43.05555555555556)"/><path d="M190.43 214.62h57.5v71.02h-57.5z" stroke="#fff" fill="#fff"/><use xlink:href="#h" transform="matrix(1,0,0,1,195.43307086614192,219.61755798284963) translate(16.59259259259259 34.55555555555556)"/><path d="M75.43 214.62h57.5v71.02h-57.5z" stroke="#000" fill="#fff"/><use xlink:href="#i" transform="matrix(1,0,0,1,80.43307086614189,219.61755798284963) translate(14.733333333333333 34.55555555555556)"/><path d="M132.93 214.62h57.5v71.02h-57.5z" stroke="#000" fill="#fff"/><use xlink:href="#j" transform="matrix(1,0,0,1,137.93307086614192,219.61755798284963) translate(14.733333333333333 34.55555555555556)"/><path d="M247.93 214.62h57.5v71.02h-57.5z" stroke="#000" fill="#fff"/><use xlink:href="#k" transform="matrix(1,0,0,1,252.93307086614192,219.61755798284963) translate(13.71358024691358 34.55555555555556)"/><path d="M334.18 214.62h57.5v71.02h-57.5z" stroke="#000" fill="#fff"/><use xlink:href="#l" transform="matrix(1,0,0,1,339.18307086614186,219.61755798284963) translate(18.190123456790122 34.55555555555556)"/><path d="M672 63.7h57.5v71H672z" stroke="#fff" fill="#fff"/><use xlink:href="#m" transform="matrix(1,0,0,1,676.9955708661419,68.68549121346683) translate(16.59259259259259 34.55555555555556)"/><path d="M672.95 374.43h57.5v71.02h-57.5z" stroke="#fff" fill="#fff"/><use xlink:href="#m" transform="matrix(1,0,0,1,677.9539041994753,379.42798162101957) translate(16.59259259259259 34.55555555555556)"/><path d="M557.95 374.43h57.5v71.02h-57.5z" stroke="#000" fill="#fff"/><use xlink:href="#n" transform="matrix(1,0,0,1,562.9539041994753,379.42798162101957) translate(14.733333333333333 34.55555555555556)"/><path d="M615.45 374.43h57.5v71.02h-57.5z" stroke="#000" fill="#fff"/><use xlink:href="#o" transform="matrix(1,0,0,1,620.4539041994751,379.42798162101957) translate(14.733333333333333 34.55555555555556)"/><path d="M729.5 374.43H787v71.02h-57.5z" stroke="#000" fill="#fff"/><use xlink:href="#k" transform="matrix(1,0,0,1,734.4955708661416,379.42798162101957) translate(13.71358024691358 34.55555555555556)"/><path d="M787 374.43h57.5v71.02H787z" stroke="#000" fill="#fff"/><use xlink:href="#l" transform="matrix(1,0,0,1,791.9955708661416,379.42798162101957) translate(18.190123456790122 34.55555555555556)"/><path d="M650.43 214.62h100.63v32.85H650.43z" stroke="#fff" fill="#fff"/><use xlink:href="#p" transform="matrix(1,0,0,1,655.4330708661419,219.61755798284955) translate(5.549382716049372 15.055555555555555)"/><use xlink:href="#q" transform="matrix(1,0,0,1,655.4330708661419,219.61755798284955) translate(75.57407407407408 15.055555555555555)"/><path d="M650.43 516.48h100.63v32.85H650.43z" stroke="#fff" fill="#fff"/><use xlink:href="#p" transform="matrix(1,0,0,1,655.4330708661419,521.4816915216152) translate(5.549382716049372 15.055555555555555)"/><use xlink:href="#r" transform="matrix(1,0,0,1,655.4330708661419,521.4816915216152) translate(75.57407407407408 15.055555555555555)"/><path d="M392.68 250.12l.84-.02 1.3-.08 1.26-.13 1.24-.2 1.22-.23 1.2-.28 1.2-.35 1.2-.4 1.2-.43 1.2-.5 1.22-.58 1.22-.64 1.25-.72 1.27-.8 1.3-.9 1.35-1.03 1.4-1.15 1.44-1.3 1.5-1.5 1.62-1.7 1.7-2 1.83-2.3 2-2.74 2.17-3.3 2.46-4.05 2.82-5.14 3.42-6.9 4.6-10.4 24.72-61.78 3.42-6.9 2.83-5.17 2.44-4.04 2.2-3.3 1.97-2.73 1.84-2.3 1.7-2 1.6-1.7 1.53-1.5 1.45-1.3 1.4-1.15 1.34-1.02 1.3-.9 1.28-.8.44-.27" stroke="#000" fill="none"/><path d="M392.7 250.62h-.52v-1h.5zM504.62 99.63l-12.52 8.25-2.46-8.94z"/><path d="M506.18 99.2l-14.38 9.48-2.83-10.27zm-13.78 7.9l10.66-7.04-12.76-.6z"/><path d="M392.7 250.14l2 .04 2.42.16 2.34.24 2.27.34 2.22.42 2.17.5 2.13.6 2.1.7 2.1.77 2.1.9 2.08.97 2.1 1.1 2.12 1.22 2.16 1.36 2.22 1.54 2.26 1.72 2.35 1.94 2.44 2.2 2.57 2.52 2.73 2.9 2.94 3.4 3.23 4.08 3.63 5 4.26 6.44 5.5 9.1 10.9 20.08 16.36 30.52 5.5 9.1 4.26 6.43 3.62 5 3.23 4.07 2.92 3.4 2.73 2.92 2.57 2.5 2.44 2.22 2.35 1.94 2.27 1.72 2.2 1.53 2.17 1.37 2.12 1.23 2.1 1.1 2.1.98 2.08.9 2.1.76 2 .66" stroke="#000" fill="none"/><path d="M392.7 249.64v1h-.52v-1zM547.7 400.83l-14.78 2.54 1.33-9.17z"/><path d="M549.3 401.06l-16.97 2.92 1.53-10.54zm-15.78 1.7l12.6-2.16-11.47-5.65z"/><g fill="none"><path d="M305.43 303.4v88.78h-230V303.4z"/><path d="M75.43 303.4c0 7.94 6.44 14.38 14.38 14.38h86.26c7.94 0 14.37 6.43 14.37 14.37 0-7.94 6.44-14.37 14.38-14.37h86.26c7.94 0 14.37-6.44 14.37-14.38" stroke="#000"/></g><path d="M132.93 338.9h115v35.53h-115z" stroke="#fff" fill="#fff"/><use xlink:href="#s" transform="matrix(1,0,0,1,137.93307086614192,343.91455414587074) translate(24.870370370370367 14.222222222222223)"/><use xlink:href="#t" transform="matrix(1,0,0,1,137.93307086614192,343.91455414587074) translate(28.327160493827158 35.55555555555556)"/><g fill="none"><path d="M391.68 303.4v88.78h-57.5V303.4z"/><path d="M334.18 303.4c0 2 1.6 3.6 3.6 3.6h21.56c1.98 0 3.6 1.6 3.6 3.6 0-2 1.6-3.6 3.6-3.6h21.55c1.97 0 3.58-1.6 3.58-3.6" stroke="#000"/></g><path d="M348.56 318.2h28.75v56.23h-28.74z" stroke="#fff" fill="#fff"/><use xlink:href="#u" transform="matrix(1,0,0,1,353.55807086614186,323.1983881187007) translate(-13.191358024691361 16.388888888888886)"/><use xlink:href="#v" transform="matrix(1,0,0,1,353.55807086614186,323.1983881187007) translate(-10.722222222222221 37.72222222222222)"/><path d="M909.18 247.47h86.25v56.23h-86.25z" stroke="#fff" fill="#fff"/><use xlink:href="#w" transform="matrix(1,0,0,1,914.1830708661416,252.46747839736244) translate(2.475308641975303 16.388888888888886)"/><use xlink:href="#x" transform="matrix(1,0,0,1,914.1830708661416,252.46747839736244) translate(8.425925925925924 37.72222222222222)"/><path d="M952.3 246.47v-24.3h-93.43v-8.43" stroke="#000" fill="none"/><path d="M952.8 246.97h-1v-.52h1zM863.5 213.24h-9.26l4.63-14.26z"/><path d="M864.2 213.74h-10.65l5.32-16.38zm-9.28-1h7.9l-3.95-12.14z"/><path d="M952.3 304.7v185.15H739.2" stroke="#000" fill="none"/><path d="M952.8 304.7h-1v-.5h1zM738.7 494.48l-14.27-4.63 14.26-4.64z"/><path d="M739.2 495.17l-16.4-5.32 16.4-5.33zm-13.16-5.32l12.15 3.94v-7.9z"/><path d="M506.68 54.8h71.88v88.8h-71.88z" stroke="#000" fill="#fff"/><use xlink:href="#n" transform="matrix(1,0,0,1,511.68307086614163,59.80713434467963) translate(21.733333333333334 43.05555555555556)"/><path d="M521.06 81.44h43.12v53.27h-43.12z" stroke="#000" fill="#fff"/><use xlink:href="#l" transform="matrix(1,0,0,1,526.0580708661416,86.44220495104116) translate(11.190123456790122 25.555555555555557)"/><path d="M528.25 46.4H557v52.32h-28.75z" stroke="#000" stroke-opacity="0" fill-opacity="0"/><use xlink:href="#y" transform="matrix(1,0,0,1,533.2455708661416,51.40512256734126) translate(-2.820987654320989 25.055555555555557)"/><path d="M686.85 339.4h28.75v52.3h-28.75z" stroke="#000" stroke-opacity="0" fill-opacity="0"/><use xlink:href="#y" transform="matrix(1,0,0,1,691.8497375328081,344.39089923731973) translate(-2.820987654320989 25.055555555555557)"/><path d="M592.93 54.8h71.88v88.8h-71.87z" stroke="#000" fill="#fff"/><use xlink:href="#n" transform="matrix(1,0,0,1,597.9330708661419,59.80713434467963) translate(21.733333333333334 43.05555555555556)"/><path d="M607.3 81.44h43.13v53.27H607.3z" stroke="#000" fill="#fff"/><use xlink:href="#k" transform="matrix(1,0,0,1,612.3080708661419,86.4422049510413) translate(6.71358024691358 25.555555555555557)"/><path d="M614.5 46.4h28.75v52.32H614.5z" stroke="#000" stroke-opacity="0" fill-opacity="0"/><use xlink:href="#y" transform="matrix(1,0,0,1,619.4955708661419,51.40512256734126) translate(-2.820987654320989 25.055555555555557)"/><path d="M736.68 54.8h71.88v88.8h-71.88z" stroke="#000" fill="#fff"/><use xlink:href="#n" transform="matrix(1,0,0,1,741.6830708661419,59.80713434467963) translate(21.733333333333334 43.05555555555556)"/><path d="M751.06 81.44h43.12v53.27h-43.12z" stroke="#000" fill="#fff"/><use xlink:href="#o" transform="matrix(1,0,0,1,756.0580708661419,86.44220495104139) translate(7.7333333333333325 25.555555555555557)"/><path d="M758.25 46.4H787v52.32h-28.75z" stroke="#000" stroke-opacity="0" fill-opacity="0"/><use xlink:href="#y" transform="matrix(1,0,0,1,763.2455708661419,51.40512256734126) translate(-2.820987654320989 25.055555555555557)"/><path d="M822.93 54.8h71.88v88.8h-71.87z" stroke="#000" fill="#fff"/><g><use xlink:href="#n" transform="matrix(1,0,0,1,827.9330708661414,59.80713434467963) translate(21.733333333333334 43.05555555555556)"/></g><path d="M837.3 81.44h43.13v53.27H837.3z" stroke="#000" fill="#fff"/><g><use xlink:href="#n" transform="matrix(1,0,0,1,842.3080708661414,86.44220495104139) translate(7.7333333333333325 25.555555555555557)"/></g><path d="M844.5 46.4h28.75v52.32H844.5z" stroke="#000" stroke-opacity="0" fill-opacity="0"/><g><use xlink:href="#y" transform="matrix(1,0,0,1,849.4955708661414,51.40512256734126) translate(-2.820987654320989 25.055555555555557)"/></g><defs><path d="M27 0v-27h64v-190l-56 39v-29l58-41h29v221h61V0H27" id="z"/><use transform="matrix(0.04938271604938272,0,0,0.04938271604938272,0,0)" xlink:href="#z" id="a"/><path d="M127-220V0H93v-220H8v-28h204v28h-85" id="A"/><path d="M100-194c63 0 86 42 84 106H49c0 40 14 67 53 68 26 1 43-12 49-29l28 8c-11 28-37 45-77 45C44 4 14-33 15-96c1-61 26-98 85-98zm52 81c6-60-76-77-97-28-3 7-6 17-6 28h103" id="B"/><path d="M141 0L90-78 38 0H4l68-98-65-92h35l48 74 47-74h35l-64 92 68 98h-35" id="C"/><path d="M59-47c-2 24 18 29 38 22v24C64 9 27 4 27-40v-127H5v-23h24l9-43h21v43h35v23H59v120" id="D"/><g id="b"><use transform="matrix(0.04938271604938272,0,0,0.04938271604938272,0,0)" xlink:href="#A"/><use transform="matrix(0.04938271604938272,0,0,0.04938271604938272,8.839506172839506,0)" xlink:href="#B"/><use transform="matrix(0.04938271604938272,0,0,0.04938271604938272,18.71604938271605,0)" xlink:href="#C"/><use transform="matrix(0.04938271604938272,0,0,0.04938271604938272,27.60493827160494,0)" xlink:href="#D"/></g><path d="M101-251c82-7 93 87 43 132L82-64C71-53 59-42 53-27h129V0H18c2-99 128-94 128-182 0-28-16-43-45-43s-46 15-49 41l-32-3c6-41 34-60 81-64" id="E"/><use transform="matrix(0.04938271604938272,0,0,0.04938271604938272,0,0)" xlink:href="#E" id="c"/><path d="M190 0L58-211 59 0H30v-248h39L202-35l-2-213h31V0h-41" id="F"/><use transform="matrix(0.04938271604938272,0,0,0.04938271604938272,0,0)" xlink:href="#F" id="d"/><use transform="matrix(0.04938271604938272,0,0,0.04938271604938272,0,0)" xlink:href="#F" id="e"/><path d="M118-107v75H92v-75H18v-26h74v-75h26v75h74v26h-74" id="G"/><use transform="matrix(0.04938271604938272,0,0,0.04938271604938272,0,0)" xlink:href="#G" id="f"/><use transform="matrix(0.04938271604938272,0,0,0.04938271604938272,0,0)" xlink:href="#z" id="g"/><path d="M14 0l8-38h34L48 0H14" id="H"/><g id="h"><use transform="matrix(0.04938271604938272,0,0,0.04938271604938272,0,0)" xlink:href="#H"/><use transform="matrix(0.04938271604938272,0,0,0.04938271604938272,4.938271604938272,0)" xlink:href="#H"/><use transform="matrix(0.04938271604938272,0,0,0.04938271604938272,9.876543209876544,0)" xlink:href="#H"/></g><path d="M124 0L87-78 21 0h-35l86-98-46-92h33l34 74 61-74h37l-83 92 50 98h-34" id="I"/><path d="M9 0l6-27h63l36-188-63 39 6-31 66-41h29L110-27h60l-5 27H9" id="J"/><path d="M50-231l6-30h32l-6 30H50zM6 0l37-190h31L37 0H6" id="K"/><g id="i"><use transform="matrix(0.04938271604938272,0,0,0.04938271604938272,0,0)" xlink:href="#I"/><use transform="matrix(0.034567901234567905,0,0,0.034567901234567905,8.88888888888889,2.488888888888889)" xlink:href="#J"/><use transform="matrix(0.034567901234567905,0,0,0.034567901234567905,15.80246913580247,-4.977777777777778)" xlink:href="#K"/></g><path d="M123-251c66 0 92 69 53 113C138-94 73-75 39-27h128l-5 27H-2c17-92 123-93 159-163 14-28-1-64-36-62-29 2-46 17-54 41l-30-6c13-36 37-61 86-61" id="L"/><g id="j"><use transform="matrix(0.04938271604938272,0,0,0.04938271604938272,0,0)" xlink:href="#I"/><use transform="matrix(0.034567901234567905,0,0,0.034567901234567905,8.88888888888889,2.488888888888889)" xlink:href="#L"/><use transform="matrix(0.034567901234567905,0,0,0.034567901234567905,15.80246913580247,-4.977777777777778)" xlink:href="#K"/></g><path d="M173 0L80-213 41 0H11l48-248h37l94 214 40-214h30L212 0h-39" id="M"/><g id="k"><use transform="matrix(0.04938271604938272,0,0,0.04938271604938272,0,0)" xlink:href="#I"/><use transform="matrix(0.034567901234567905,0,0,0.034567901234567905,8.88888888888889,2.488888888888889)" xlink:href="#M"/><use transform="matrix(0.034567901234567905,0,0,0.034567901234567905,17.841975308641977,-4.977777777777778)" xlink:href="#K"/></g><path d="M198-190L69 30C53 58 25 83-20 72c4-11-1-27 19-22 33-1 43-29 59-52L20-190h32L79-34l84-156h35" id="N"/><g id="l"><use transform="matrix(0.04938271604938272,0,0,0.04938271604938272,0,0)" xlink:href="#N"/><use transform="matrix(0.034567901234567905,0,0,0.034567901234567905,8.88888888888889,-4.977777777777778)" xlink:href="#K"/></g><g id="m"><use transform="matrix(0.04938271604938272,0,0,0.04938271604938272,0,0)" xlink:href="#H"/><use transform="matrix(0.04938271604938272,0,0,0.04938271604938272,4.938271604938272,0)" xlink:href="#H"/><use transform="matrix(0.04938271604938272,0,0,0.04938271604938272,9.876543209876544,0)" xlink:href="#H"/></g><g id="n"><use transform="matrix(0.04938271604938272,0,0,0.04938271604938272,0,0)" xlink:href="#I"/><use transform="matrix(0.034567901234567905,0,0,0.034567901234567905,8.88888888888889,2.488888888888889)" xlink:href="#J"/><use transform="matrix(0.034567901234567905,0,0,0.034567901234567905,15.80246913580247,-4.977777777777778)" xlink:href="#K"/></g><g id="o"><use transform="matrix(0.04938271604938272,0,0,0.04938271604938272,0,0)" xlink:href="#I"/><use transform="matrix(0.034567901234567905,0,0,0.034567901234567905,8.88888888888889,2.488888888888889)" xlink:href="#L"/><use transform="matrix(0.034567901234567905,0,0,0.034567901234567905,15.80246913580247,-4.977777777777778)" xlink:href="#K"/></g><path d="M30-248c87 1 191-15 191 75 0 78-77 80-158 76V0H30v-248zm33 125c57 0 124 11 124-50 0-59-68-47-124-48v98" id="O"/><path d="M114-163C36-179 61-72 57 0H25l-1-190h30c1 12-1 29 2 39 6-27 23-49 58-41v29" id="P"/><path d="M100-194c62-1 85 37 85 99 1 63-27 99-86 99S16-35 15-95c0-66 28-99 85-99zM99-20c44 1 53-31 53-75 0-43-8-75-51-75s-53 32-53 75 10 74 51 75" id="Q"/><path d="M96-169c-40 0-48 33-48 73s9 75 48 75c24 0 41-14 43-38l32 2c-6 37-31 61-74 61-59 0-76-41-82-99-10-93 101-131 147-64 4 7 5 14 7 22l-32 3c-4-21-16-35-41-35" id="R"/><path d="M24 0v-261h32V0H24" id="S"/><g id="p"><use transform="matrix(0.04938271604938272,0,0,0.04938271604938272,0,0)" xlink:href="#O"/><use transform="matrix(0.04938271604938272,0,0,0.04938271604938272,11.851851851851853,0)" xlink:href="#P"/><use transform="matrix(0.04938271604938272,0,0,0.04938271604938272,17.728395061728396,0)" xlink:href="#Q"/><use transform="matrix(0.04938271604938272,0,0,0.04938271604938272,27.60493827160494,0)" xlink:href="#D"/><use transform="matrix(0.04938271604938272,0,0,0.04938271604938272,32.543209876543216,0)" xlink:href="#Q"/><use transform="matrix(0.04938271604938272,0,0,0.04938271604938272,42.41975308641976,0)" xlink:href="#R"/><use transform="matrix(0.04938271604938272,0,0,0.04938271604938272,51.308641975308646,0)" xlink:href="#Q"/><use transform="matrix(0.04938271604938272,0,0,0.04938271604938272,61.18518518518519,0)" xlink:href="#S"/></g><use transform="matrix(0.04938271604938272,0,0,0.04938271604938272,0,0)" xlink:href="#E" id="q"/><use transform="matrix(0.04938271604938272,0,0,0.04938271604938272,0,0)" xlink:href="#z" id="r"/><path d="M101-234c-31-9-42 10-38 44h38v23H63V0H32v-167H5v-23h27c-7-52 17-82 69-68v24" id="T"/><path d="M141-36C126-15 110 5 73 4 37 3 15-17 15-53c-1-64 63-63 125-63 3-35-9-54-41-54-24 1-41 7-42 31l-33-3c5-37 33-52 76-52 45 0 72 20 72 64v82c-1 20 7 32 28 27v20c-31 9-61-2-59-35zM48-53c0 20 12 33 32 33 41-3 63-29 60-74-43 2-92-5-92 41" id="U"/><path d="M84 4C-5 8 30-112 23-190h32v120c0 31 7 50 39 49 72-2 45-101 50-169h31l1 190h-30c-1-10 1-25-2-33-11 22-28 36-60 37" id="V"/><g id="s"><use transform="matrix(0.04938271604938272,0,0,0.04938271604938272,0,0)" xlink:href="#T"/><use transform="matrix(0.04938271604938272,0,0,0.04938271604938272,4.938271604938272,0)" xlink:href="#B"/><use transform="matrix(0.04938271604938272,0,0,0.04938271604938272,14.814814814814817,0)" xlink:href="#U"/><use transform="matrix(0.04938271604938272,0,0,0.04938271604938272,24.69135802469136,0)" xlink:href="#D"/><use transform="matrix(0.04938271604938272,0,0,0.04938271604938272,29.629629629629633,0)" xlink:href="#V"/><use transform="matrix(0.04938271604938272,0,0,0.04938271604938272,39.50617283950618,0)" xlink:href="#P"/><use transform="matrix(0.04938271604938272,0,0,0.04938271604938272,45.38271604938272,0)" xlink:href="#B"/></g><path d="M108 0H70L1-190h34L89-25l56-165h34" id="W"/><g id="t"><use transform="matrix(0.04938271604938272,0,0,0.04938271604938272,0,0)" xlink:href="#W"/><use transform="matrix(0.04938271604938272,0,0,0.04938271604938272,8.88888888888889,0)" xlink:href="#B"/><use transform="matrix(0.04938271604938272,0,0,0.04938271604938272,18.765432098765434,0)" xlink:href="#R"/><use transform="matrix(0.04938271604938272,0,0,0.04938271604938272,27.654320987654323,0)" xlink:href="#D"/><use transform="matrix(0.04938271604938272,0,0,0.04938271604938272,32.592592592592595,0)" xlink:href="#Q"/><use transform="matrix(0.04938271604938272,0,0,0.04938271604938272,42.46913580246914,0)" xlink:href="#P"/></g><path d="M177-190C167-65 218 103 67 71c-23-6-38-20-44-43l32-5c15 47 100 32 89-28v-30C133-14 115 1 83 1 29 1 15-40 15-95c0-56 16-97 71-98 29-1 48 16 59 35 1-10 0-23 2-32h30zM94-22c36 0 50-32 50-73 0-42-14-75-50-75-39 0-46 34-46 75s6 73 46 73" id="X"/><g id="u"><use transform="matrix(0.04938271604938272,0,0,0.04938271604938272,0,0)" xlink:href="#D"/><use transform="matrix(0.04938271604938272,0,0,0.04938271604938272,4.938271604938272,0)" xlink:href="#U"/><use transform="matrix(0.04938271604938272,0,0,0.04938271604938272,14.814814814814817,0)" xlink:href="#P"/><use transform="matrix(0.04938271604938272,0,0,0.04938271604938272,20.69135802469136,0)" xlink:href="#X"/><use transform="matrix(0.04938271604938272,0,0,0.04938271604938272,30.567901234567906,0)" xlink:href="#B"/><use transform="matrix(0.04938271604938272,0,0,0.04938271604938272,40.44444444444445,0)" xlink:href="#D"/></g><path d="M135-143c-3-34-86-38-87 0 15 53 115 12 119 90S17 21 10-45l28-5c4 36 97 45 98 0-10-56-113-15-118-90-4-57 82-63 122-42 12 7 21 19 24 35" id="Y"/><g id="v"><use transform="matrix(0.04938271604938272,0,0,0.04938271604938272,0,0)" xlink:href="#R"/><use transform="matrix(0.04938271604938272,0,0,0.04938271604938272,8.88888888888889,0)" xlink:href="#S"/><use transform="matrix(0.04938271604938272,0,0,0.04938271604938272,12.790123456790125,0)" xlink:href="#U"/><use transform="matrix(0.04938271604938272,0,0,0.04938271604938272,22.666666666666668,0)" xlink:href="#Y"/><use transform="matrix(0.04938271604938272,0,0,0.04938271604938272,31.555555555555557,0)" xlink:href="#Y"/></g><path d="M210-169c-67 3-38 105-44 169h-31v-121c0-29-5-50-35-48C34-165 62-65 56 0H25l-1-190h30c1 10-1 24 2 32 10-44 99-50 107 0 11-21 27-35 58-36 85-2 47 119 55 194h-31v-121c0-29-5-49-35-48" id="Z"/><g id="w"><use transform="matrix(0.04938271604938272,0,0,0.04938271604938272,0,0)" xlink:href="#Z"/><use transform="matrix(0.04938271604938272,0,0,0.04938271604938272,14.765432098765434,0)" xlink:href="#B"/><use transform="matrix(0.04938271604938272,0,0,0.04938271604938272,24.641975308641978,0)" xlink:href="#Y"/><use transform="matrix(0.04938271604938272,0,0,0.04938271604938272,33.53086419753087,0)" xlink:href="#Y"/><use transform="matrix(0.04938271604938272,0,0,0.04938271604938272,42.41975308641976,0)" xlink:href="#U"/><use transform="matrix(0.04938271604938272,0,0,0.04938271604938272,52.2962962962963,0)" xlink:href="#X"/><use transform="matrix(0.04938271604938272,0,0,0.04938271604938272,62.17283950617284,0)" xlink:href="#B"/></g><path d="M117-194c89-4 53 116 60 194h-32v-121c0-31-8-49-39-48C34-167 62-67 57 0H25l-1-190h30c1 10-1 24 2 32 11-22 29-35 61-36" id="aa"/><path d="M115-194c53 0 69 39 70 98 0 66-23 100-70 100C84 3 66-7 56-30L54 0H23l1-261h32v101c10-23 28-34 59-34zm-8 174c40 0 45-34 45-75 0-40-5-75-45-74-42 0-51 32-51 76 0 43 10 73 51 73" id="ab"/><g id="x"><use transform="matrix(0.04938271604938272,0,0,0.04938271604938272,0,0)" xlink:href="#aa"/><use transform="matrix(0.04938271604938272,0,0,0.04938271604938272,9.876543209876544,0)" xlink:href="#V"/><use transform="matrix(0.04938271604938272,0,0,0.04938271604938272,19.75308641975309,0)" xlink:href="#Z"/><use transform="matrix(0.04938271604938272,0,0,0.04938271604938272,34.51851851851852,0)" xlink:href="#ab"/><use transform="matrix(0.04938271604938272,0,0,0.04938271604938272,44.39506172839506,0)" xlink:href="#B"/><use transform="matrix(0.04938271604938272,0,0,0.04938271604938272,54.27160493827161,0)" xlink:href="#P"/></g><path d="M212-179c-10-28-35-45-73-45-59 0-87 40-87 99 0 60 29 101 89 101 43 0 62-24 78-52l27 14C228-24 195 4 139 4 59 4 22-46 18-125c-6-104 99-153 187-111 19 9 31 26 39 46" id="ac"/><path d="M205 0l-28-72H64L36 0H1l101-248h38L239 0h-34zm-38-99l-47-123c-12 45-31 82-46 123h93" id="ad"/><g id="y"><use transform="matrix(0.04938271604938272,0,0,0.04938271604938272,0,0)" xlink:href="#ac"/><use transform="matrix(0.04938271604938272,0,0,0.04938271604938272,12.790123456790125,0)" xlink:href="#ad"/></g></defs></g></svg>